<?xml version="1.0" encoding="UTF-8"?>
<svg width="39px" height="39px" viewBox="0 0 39 39" version="1.1" xmlns="http://www.w3.org/2000/svg" xmlns:xlink="http://www.w3.org/1999/xlink">
    <title>icons-seo-3</title>
    <g id="icons-seo-3" stroke="none" stroke-width="1" fill="none" fill-rule="evenodd">
        <g id="noun_Increase-Revenue_1423876" fill="#FC565B" fill-rule="nonzero">
            <rect id="Rectangle" x="0.816793893" y="24.8091603" width="6.67938931" height="13.3587786"></rect>
            <rect id="Rectangle" x="11.3129771" y="19.0839695" width="6.67938931" height="19.0839695"></rect>
            <rect id="Rectangle" x="21.8091603" y="16.221374" width="6.67938931" height="21.9465649"></rect>
            <rect id="Rectangle" x="32.3053435" y="7.63358779" width="6.67938931" height="30.5343511"></rect>
            <path d="M25.370229,5.9389313 L35.4541985,1.29389313 L35.6564885,1.72519084 L36.1221374,0.461832061 L34.8435115,0 L35.0458015,0.43129771 L25.0114504,5.05343511 C25.1556693,5.33801442 25.2756856,5.63422484 25.370229,5.9389313 L25.370229,5.9389313 Z" id="Path"></path>
            <path d="M15.0610687,10.6870229 C14.8903089,10.4186406 14.7422136,10.1364936 14.6183206,9.84351145 L3.67938931,14.8854962 L4.08396947,15.7480916 L15.0610687,10.6870229 Z" id="Path"></path>
            <path d="M24.6717557,7.63358779 C24.6717557,4.99864146 22.5357097,2.86259542 19.9007634,2.86259542 C17.265817,2.86259542 15.129771,4.99864146 15.129771,7.63358779 C15.129771,10.2685341 17.265817,12.4045802 19.9007634,12.4045802 C22.5357097,12.4045802 24.6717557,10.2685341 24.6717557,7.63358779 Z M20.4007634,9.92366412 L20.4007634,10.4961832 L19.4007634,10.4961832 L19.4007634,10.0152672 C18.9975121,9.99880505 18.6011078,9.90553345 18.2328244,9.74045802 L18.4580153,8.8740458 C18.8372203,9.05587077 19.251267,9.15352331 19.6717557,9.16030534 C20.1755725,9.16030534 20.4351145,8.96183206 20.4351145,8.66030534 C20.4351145,8.35877863 20.2061069,8.20610687 19.6183206,8.00763359 C18.8091603,7.74045802 18.2824427,7.3129771 18.2824427,6.64122137 C18.3026851,5.99910808 18.7686807,5.4583624 19.4007634,5.34351145 L19.4007634,4.77099237 L20.4007634,4.77099237 L20.4007634,5.25572519 C20.735559,5.27543203 21.0646183,5.35156731 21.3740458,5.48091603 L21.129771,6.32442748 C20.8112311,6.17883523 20.4647317,6.10458535 20.1145038,6.10687023 C19.6374046,6.10687023 19.4083969,6.3129771 19.4083969,6.55343511 C19.4083969,6.79389313 19.6832061,6.98091603 20.3091603,7.20610687 C21.1679389,7.50763359 21.5725191,7.9351145 21.5725191,8.58778626 C21.5565082,9.25789972 21.0630735,9.82044748 20.4007634,9.92366412 L20.4007634,9.92366412 Z" id="Shape"></path>
        </g>
    </g>
</svg>