<?xml version="1.0" encoding="UTF-8"?>
<svg width="41px" height="40px" viewBox="0 0 41 40" version="1.1" xmlns="http://www.w3.org/2000/svg" xmlns:xlink="http://www.w3.org/1999/xlink">
    <title>icons-lead-1</title>
    <g id="Symbols" stroke="none" stroke-width="1" fill="none" fill-rule="evenodd">
        <g id="icons-lead-1" transform="translate(1.000000, 1.000000)" fill="#034EA1" fill-rule="nonzero" stroke="#034EA1">
            <path d="M30.3442979,10.123138 C31.8649621,13.2768464 32.263117,16.940785 31.4955894,20.3277415 C30.7424528,23.6369487 28.9483569,26.5671277 26.3819362,28.7489692 C26.2476189,28.8607339 26.1133016,28.9724986 25.9741872,29.0842633 C25.9118255,29.137716 25.9693901,29.0891226 25.9837813,29.0794039 C25.9454049,29.10856 25.9118255,29.137716 25.8734492,29.1620126 C25.7918993,29.225184 25.7055525,29.2883554 25.6240027,29.3515267 C25.3361798,29.5604781 25.0435599,29.7645702 24.7413458,29.9540843 C24.156106,30.3233937 23.5516779,30.6538285 22.9232647,30.9453886 C22.8513089,30.9794039 22.7793532,31.00856 22.7073975,31.0425753 C22.6642241,31.0620126 22.6258477,31.0765907 22.5826742,31.096028 C22.6114565,31.0863093 22.7026004,31.0474346 22.5682831,31.1008873 C22.4147776,31.1640587 22.256475,31.22723 22.1029694,31.2904014 C21.7815672,31.4118848 21.455368,31.5285088 21.1243717,31.6305548 C20.4815672,31.8297876 19.8195746,31.9852863 19.157582,32.1019103 C18.9944824,32.1310664 18.8313827,32.155363 18.6682831,32.1796597 C18.8073975,32.1602224 18.6059215,32.1893784 18.562748,32.1942377 C18.46201,32.2039564 18.3660691,32.2185344 18.2653311,32.2282531 C17.9391318,32.2622684 17.6081355,32.2865651 17.2771392,32.2962837 C16.5959584,32.3254398 15.9147776,32.3060024 15.2335968,32.2428311 C15.0800912,32.2282531 14.9265857,32.213675 14.7730801,32.1942377 C14.7442979,32.1893784 14.4852573,32.155363 14.6387628,32.1796597 C14.5524159,32.1650817 14.4660691,32.155363 14.3749252,32.140785 C14.0391318,32.0873323 13.6985414,32.024161 13.3675451,31.9464116 C12.7055525,31.7957722 12.057951,31.6062582 11.4199436,31.3730101 C11.261641,31.3146981 11.1081355,31.256386 10.9498329,31.1932147 C10.8778772,31.1640587 10.8059215,31.1349027 10.7339658,31.1057467 C10.6044455,31.052294 10.6907923,31.0863093 10.7195746,31.1008873 C10.6668071,31.0765907 10.6188366,31.0571533 10.5660691,31.0328566 C10.2494639,30.8919359 9.9328588,30.7364372 9.62584773,30.5760791 C9.01182559,30.2505037 8.41699164,29.8860536 7.85093998,29.4778694 C7.71182559,29.3758234 7.56791415,29.2737774 7.4335968,29.166872 C7.40481452,29.1474346 7.37603223,29.123138 7.35204699,29.1037006 C7.26090308,29.0308106 7.42400271,29.1620126 7.3328588,29.0891226 C7.26090308,29.0308106 7.18894736,28.9724986 7.11699164,28.9141866 C6.83396581,28.6809385 6.56053407,28.4428311 6.29669644,28.1901456 C5.69226839,27.6167441 5.12621673,26.9947492 4.6129326,26.3338797 C2.53581083,23.6466674 1.40850455,20.1965395 1.42769275,16.7852863 C1.43248979,16.3528055 1.45167799,15.9203247 1.48525732,15.4878438 C1.5236337,15.0359257 1.55241599,14.8269743 1.61957466,14.4187901 C1.74909496,13.6412965 1.93138278,12.8735216 2.17123518,12.1203247 C2.64134588,10.6382275 3.32732374,9.253317 4.25795105,7.92671854 C4.69927946,7.29500498 5.2029695,6.69244744 5.77381821,6.09960856 C6.0328588,5.8274858 6.30629053,5.56994104 6.58451931,5.31725562 C6.71403961,5.20063158 6.84835695,5.08400754 6.9826743,4.97224283 C7.04503592,4.91879015 7.10739754,4.86533746 7.16975917,4.81674411 C7.20813555,4.7875881 7.24171489,4.75843209 7.28009127,4.72927608 C7.29448241,4.71469808 7.41920566,4.62237071 7.32806175,4.6904014 C7.87972227,4.25792058 8.46496212,3.86917378 9.06459311,3.51444232 C9.36680714,3.33950626 9.67861525,3.16942954 9.99042337,3.01393081 C10.1295377,2.94590012 10.2734492,2.87786943 10.4173606,2.80983874 C10.4989104,2.77096406 10.5804602,2.73694872 10.66201,2.69807404 C10.6668071,2.6932147 10.7675451,2.64948069 10.7003864,2.68349603 C10.6236337,2.71751138 10.7867333,2.64948069 10.8011244,2.63976202 C11.4391318,2.37735792 12.0915303,2.15382851 12.75832,1.97403312 C13.0797222,1.88656509 13.4011244,1.81367506 13.7273237,1.74564437 C13.8904233,1.71162902 14.053523,1.68247301 14.2166226,1.653317 C14.2933754,1.638739 14.3701281,1.62902033 14.4468809,1.61444232 C14.4900543,1.60958299 14.5332278,1.59986432 14.5764012,1.59500498 C14.7155156,1.57556764 14.5284307,1.59986432 14.6147776,1.59014565 C15.9483569,1.42006892 17.2963274,1.41520959 18.6299067,1.58042698 C18.6490949,1.58528631 18.7882093,1.59986432 18.6970654,1.59014565 C18.6155156,1.58042698 18.7210506,1.59500498 18.7306447,1.59500498 C18.8169916,1.60958299 18.9033385,1.61930166 18.9944824,1.63387966 C19.1671761,1.66303567 19.3446669,1.69219168 19.5173606,1.72620703 C19.8435599,1.78937838 20.1649621,1.86226841 20.4863643,1.94973644 C21.1531539,2.1246725 21.8103495,2.34334258 22.4483569,2.60574667 C22.4771392,2.62032468 22.5107185,2.63004335 22.5395008,2.64462135 C22.558689,2.64948069 22.6834123,2.70779271 22.6066595,2.67377736 C22.5299067,2.63976202 22.659427,2.69807404 22.6738182,2.70293337 C22.7026004,2.71751138 22.7361798,2.73208938 22.7649621,2.74180805 C22.9280617,2.81469808 23.0911613,2.89244744 23.254261,2.9701968 C23.5708661,3.12569552 23.8778772,3.29091291 24.1800912,3.46584897 C24.7845193,3.8157211 25.3649621,4.20932723 25.9214196,4.63208938 C26.0365488,4.71955741 25.9645931,4.66610473 25.9406078,4.64666739 C25.9789842,4.6758234 26.0125635,4.70497941 26.0509399,4.73413542 C26.1133016,4.7875881 26.1756632,4.83618145 26.2428218,4.88963414 C26.3771392,5.00139884 26.5114565,5.11802289 26.6409768,5.23464693 C26.9048145,5.47275434 27.1638551,5.7157211 27.4133016,5.96840652 C27.6867333,6.24538861 28.156844,6.24538861 28.4302757,5.96840652 C28.7037075,5.69142442 28.7085045,5.21520959 28.4302757,4.93822749 C26.3243717,2.81469808 23.6764012,1.26942954 20.7981724,0.525951277 C18.0014934,-0.198089643 15.0273237,-0.173792968 12.2402388,0.593981968 C9.35721304,1.39091291 6.70444551,2.99449347 4.63691784,5.17633491 C2.29116138,7.65459578 0.698541451,10.8471789 0.194851414,14.2487134 C-0.361606151,17.956386 0.276401229,21.7806827 2.07529422,25.0655932 C3.65832005,27.9568976 6.10961156,30.3768464 9.01662263,31.8832403 C11.5926373,33.2195574 14.5092425,33.8755676 17.4066595,33.7346469 C20.3136706,33.5937262 23.1823052,32.6898899 25.6335968,31.0911687 C28.5454049,29.1911687 30.8048145,26.411629 32.1096115,23.1655932 C33.5151466,19.666872 33.6830432,15.6724986 32.6228956,12.0571533 C32.354261,11.138739 31.9992794,10.2446213 31.5819362,9.37965971 C31.4092425,9.02492826 30.9151466,8.92774156 30.5985414,9.11725562 C30.2483569,9.3359257 30.1764012,9.76840652 30.3442979,10.123138 L30.3442979,10.123138 Z" id="Path"></path>
            <path d="M37.2136706,36.6794039 C36.2206816,35.6735216 35.2324897,34.6724986 34.2395008,33.6666162 C32.6660691,32.0727543 31.0926373,30.4788924 29.5192056,28.8850305 C29.159427,28.5205804 28.7948514,28.151271 28.4350728,27.7868208 C28.161641,27.5098387 27.6915303,27.5098387 27.4180986,27.7868208 C27.1446669,28.0638029 27.1446669,28.5400178 27.4180986,28.8169999 C28.4110875,29.8228822 29.3992794,30.8239052 30.3922683,31.8297876 C31.9657001,33.4236495 33.5391318,35.0175114 35.1125635,36.6113733 C35.4723421,36.9758234 35.8369178,37.3451329 36.1966964,37.709583 C36.4701281,37.9865651 36.9402388,37.9865651 37.2136706,37.709583 C37.4918993,37.4277415 37.4918993,36.956386 37.2136706,36.6794039 L37.2136706,36.6794039 Z" id="Path"></path>
            <path d="M2.97713924,24.7788924 C4.12843075,23.6077927 5.28451931,22.436693 6.43581083,21.2655932 C8.2730802,19.3996086 10.1151466,17.5336239 11.9524159,15.6627799 C12.3745562,15.2302991 12.8014934,14.8026776 13.2236337,14.3701968 C12.8830432,14.3701968 12.5472499,14.3701968 12.2066595,14.3701968 C13.0077665,15.1817057 13.8136706,15.998074 14.6147776,16.809583 C15.8955894,18.1070254 17.1716041,19.3996086 18.4524159,20.697051 C18.7450359,20.9934704 19.0376558,21.2898899 19.3254787,21.58145 C19.5989104,21.8584321 20.0690211,21.8584321 20.3424528,21.58145 C20.9516779,20.9643144 21.5657001,20.3423196 22.1749252,19.725184 C23.6428218,18.2382275 25.1059215,16.7561303 26.5738182,15.2691738 C28.3487259,13.4712198 30.1188366,11.6781252 31.8937444,9.88017122 C33.4240027,8.33004335 34.959058,6.77505613 36.4893163,5.22492826 C37.2280617,4.47659066 37.9907923,3.74283107 38.7151466,2.9701968 C38.7247407,2.96047813 38.7343348,2.95075946 38.7487259,2.93618145 C39.0221576,2.65919936 39.0221576,2.18298452 38.7487259,1.90600243 C38.4752942,1.62902033 38.0051835,1.62902033 37.7317517,1.90600243 C37.1225266,2.52313798 36.5085045,3.14513286 35.8992794,3.76226841 C34.4313827,5.24922493 32.9682831,6.73132212 31.5003864,8.21827864 C29.7254787,10.0162326 27.955368,11.8093272 26.1804602,13.6072812 C24.6502019,15.1574091 23.1151466,16.7123963 21.5848883,18.2625242 C20.8461429,19.0108618 20.0642241,19.7300433 19.359058,20.5172556 C19.3494639,20.5269743 19.3398698,20.536693 19.3254787,20.551271 C19.6660691,20.551271 20.0018624,20.551271 20.3424528,20.551271 C19.5413458,19.739762 18.7354418,18.9233937 17.9343348,18.1118848 C16.653523,16.8144423 15.3775082,15.5218592 14.0966964,14.2244167 C13.8040765,13.9279973 13.5114565,13.6315779 13.2236337,13.3400178 C12.9502019,13.0630357 12.4800912,13.0630357 12.2066595,13.3400178 C11.055368,14.5111175 9.89927946,15.6822172 8.74798795,16.853317 C6.91071858,18.7193016 5.06865215,20.5852863 3.23138278,22.4561303 C2.80924256,22.8886111 2.38230529,23.3162326 1.96016507,23.7487134 C1.68673334,24.0256955 1.68673334,24.5019103 1.96016507,24.7788924 C2.2335968,25.0558745 2.70370751,25.0558745 2.97713924,24.7788924 L2.97713924,24.7788924 Z" id="Path"></path>
            <path d="M32.2247407,3.15971087 C33.9804602,3.15971087 35.7313827,3.15971087 37.4871023,3.15971087 C37.7365488,3.15971087 37.9859953,3.15971087 38.2354418,3.15971087 C37.9955894,2.91674411 37.755737,2.67377736 37.5158846,2.43081061 C37.5158846,4.20932723 37.5158846,5.98298452 37.5158846,7.76150115 C37.5158846,8.01418657 37.5158846,8.26687199 37.5158846,8.51955741 C37.5158846,8.89858555 37.8468809,9.26789501 38.2354418,9.24845767 C38.6240027,9.22902033 38.954999,8.92774156 38.954999,8.51955741 C38.954999,6.74104079 38.954999,4.9673835 38.954999,3.18886688 C38.954999,2.93618145 38.954999,2.68349603 38.954999,2.43081061 C38.954999,2.03720447 38.6240027,1.70191035 38.2354418,1.70191035 C36.4797222,1.70191035 34.7287997,1.70191035 32.9730801,1.70191035 C32.7236337,1.70191035 32.4741872,1.70191035 32.2247407,1.70191035 C31.8505709,1.70191035 31.4859953,2.03720447 31.5051835,2.43081061 C31.5243717,2.82441675 31.8217886,3.15971087 32.2247407,3.15971087 L32.2247407,3.15971087 Z" id="Path"></path>
        </g>
    </g>
</svg>