<?xml version="1.0" encoding="UTF-8"?>
<svg width="33px" height="40px" viewBox="0 0 33 40" version="1.1" xmlns="http://www.w3.org/2000/svg" xmlns:xlink="http://www.w3.org/1999/xlink">
    <title>icons-gmb-2</title>
    <g id="icons-gmb-2" stroke="none" stroke-width="1" fill="none" fill-rule="evenodd">
        <g id="noun_report_1313576" fill="#FC565B" fill-rule="nonzero">
            <g id="Group">
                <path d="M31.919252,11.6499328 L23.6853652,11.6499328 C22.3205703,11.6499328 21.2103652,10.5285136 21.2103652,9.14993283 L21.2103652,0.833689333 C21.2103652,0.5422465 21.2638915,0.262705417 21.3552337,-1.85037171e-16 L1.08074802,-1.85037171e-16 C0.627008085,-1.85037171e-16 0.25574802,0.375010167 0.25574802,0.833333333 L0.25574802,39.1666667 C0.25574802,39.6250407 0.627008085,40 1.08074802,40 L31.9192521,40 C32.372992,40 32.7442521,39.6250407 32.7442521,39.1666667 L32.7442521,11.4983113 C32.4823608,11.5931702 32.205011,11.6499328 31.919252,11.6499328 Z M24.7601212,14.3061828 C25.1573136,14.0823873 25.6600479,14.2256164 25.8832169,14.6268208 C26.1055802,15.0280253 25.9637833,15.5358378 25.5657852,15.7612609 L19.7907852,19.0254211 C19.5442521,19.1645813 19.2437394,19.1678364 18.9939835,19.0303039 L13.6250382,16.085968 L8.46153718,22.1072896 C8.29879306,22.2977192 8.06837312,22.3953755 7.83795317,22.3953755 C7.64620511,22.3953755 7.45365142,22.3286437 7.29815823,22.191925 C6.95333397,21.8908182 6.91627348,21.3642882 7.21436917,21.0167947 L12.8121231,14.4884744 C13.066713,14.1922504 13.4888809,14.1157531 13.8296768,14.3012999 L19.3823136,17.3465473 L24.7601212,14.3061828 Z M5.51764067,4.15644325 L18.2020157,4.15644325 C18.6580216,4.15644325 19.0270157,4.52916458 19.0270157,4.98977658 C19.0270157,5.45038858 18.6580216,5.82310992 18.2020157,5.82310992 L5.51764067,5.82310992 C5.06163479,5.82310992 4.69264067,5.45038858 4.69264067,4.98977658 C4.69264067,4.52916458 5.06163479,4.15644325 5.51764067,4.15644325 Z M4.69264067,9.15644325 C4.69264067,8.69583125 5.06163479,8.32310992 5.51764067,8.32310992 L14.9020157,8.32310992 C15.3580216,8.32310992 15.7270157,8.69583125 15.7270157,9.15644325 C15.7270157,9.61705525 15.3580216,9.98977658 14.9020157,9.98977658 L5.51764067,9.98977658 C5.06163479,9.98977658 4.69264067,9.61705525 4.69264067,9.15644325 Z M8.66295317,35.0337219 C8.66295317,35.4943339 8.29395905,35.8670552 7.83795317,35.8670552 C7.38194729,35.8670552 7.01295317,35.4943339 7.01295317,35.0337219 L7.01295317,26.9787089 C7.01295317,26.5180969 7.38194729,26.1453756 7.83795317,26.1453756 C8.29395905,26.1453756 8.66295317,26.5180969 8.66295317,26.9787089 L8.66295317,35.0337219 Z M14.4379532,35.0337219 C14.4379532,35.4943339 14.0689591,35.8670552 13.6129532,35.8670552 C13.1569473,35.8670552 12.7879532,35.4943339 12.7879532,35.0337219 L12.7879532,21.9787089 C12.7879532,21.5180969 13.1569473,21.1453756 13.6129532,21.1453756 C14.0689591,21.1453756 14.4379532,21.5180969 14.4379532,21.9787089 L14.4379532,35.0337219 Z M20.2129532,35.0337219 C20.2129532,35.4943339 19.8439591,35.8670552 19.3879532,35.8670552 C18.9319473,35.8670552 18.5629532,35.4943339 18.5629532,35.0337219 L18.5629532,23.6453756 C18.5629532,23.1847636 18.9319473,22.8120423 19.3879532,22.8120423 C19.8439591,22.8120423 20.2129532,23.1847636 20.2129532,23.6453756 L20.2129532,35.0337219 Z M25.9879532,35.0337219 C25.9879532,35.4943339 25.6189591,35.8670552 25.1629532,35.8670552 C24.7069473,35.8670552 24.3379532,35.4943339 24.3379532,35.0337219 L24.3379532,21.1453756 C24.3379532,20.6847636 24.7069473,20.3120423 25.1629532,20.3120423 C25.6189591,20.3120423 25.9879532,20.6847636 25.9879532,21.1453756 L25.9879532,35.0337219 Z" id="Shape"></path>
                <path d="M23.6857681,9.98336792 L31.9192521,9.98336792 C32.2492722,9.98336792 32.5545181,9.77503458 32.678238,9.46670533 C32.8102662,9.15837608 32.735994,8.799998 32.5050202,8.55834958 L24.271486,0.241699167 C24.0322541,0.00834141667 23.6775101,-0.0666300833 23.3722642,0.0666808333 C23.0587601,0.19170125 22.8607681,0.5000305 22.8607681,0.833333333 L22.8607681,9.15003458 C22.8607681,9.60835775 23.2319778,9.98336792 23.6857681,9.98336792 Z" id="Path"></path>
            </g>
        </g>
    </g>
</svg>