<?xml version="1.0" encoding="UTF-8"?>
<svg width="46px" height="46px" viewBox="0 0 46 46" version="1.1" xmlns="http://www.w3.org/2000/svg" xmlns:xlink="http://www.w3.org/1999/xlink">
    <title>icons-bb</title>
    <g id="icons-bb" stroke="none" stroke-width="1" fill="none" fill-rule="evenodd">
        <g id="noun_content_3344849" transform="translate(0.000000, -0.000011)" fill="#034EA1" fill-rule="nonzero">
            <g id="Group">
                <path d="M6.97690625,9.85191711 L5.96059375,8.83560461 L14.1644063,0.631792108 C14.5678692,0.22572722 15.1171711,-0.00181111603 15.6895938,0 L38.09375,0 C39.284614,0 40.25,0.965396866 40.25,2.15626086 L40.25,5.03126086 L38.8125,5.03126086 L38.8125,2.15626086 C38.8125,1.75930619 38.4907047,1.43751086 38.09375,1.43751086 L15.6895938,1.43751086 C15.4987359,1.43736082 15.3156552,1.51312727 15.1807188,1.64810461 L6.97690625,9.85191711 Z" id="Path"></path>
                <path d="M39.53125,46.0000109 L6.46875,46.0000109 C6.07179534,46.0000109 5.75,45.6782155 5.75,45.2812609 L5.75,40.9687609 L7.1875,40.9687609 L7.1875,44.5625109 L38.8125,44.5625109 L38.8125,19.4062609 L40.25,19.4062609 L40.25,45.2812609 C40.25,45.6782155 39.9282047,46.0000109 39.53125,46.0000109 Z" id="Path"></path>
                <path d="M7.1875,26.5937609 L5.75,26.5937609 L5.75,9.34376086 C5.75,8.94680619 6.07179534,8.62501086 6.46875,8.62501086 L14.375,8.62501086 L14.375,0.718760858 L15.8125,0.718760858 L15.8125,9.34376086 C15.8125,9.74071552 15.4907047,10.0625109 15.09375,10.0625109 L7.1875,10.0625109 L7.1875,26.5937609 Z" id="Path"></path>
                <path d="M23.71875,41.6875109 L2.15625,41.6875109 C0.965386008,41.6875109 0,40.7221248 0,39.5312609 L0,28.0312609 C0,26.8403969 0.965386008,25.8750109 2.15625,25.8750109 L14.0774375,25.8750109 L18.1793438,21.7731046 C18.3849021,21.5676083 18.6939951,21.5061451 18.962533,21.6173673 C19.2310709,21.7285895 19.4061879,21.9906013 19.40625,22.2812609 L19.40625,25.8750109 L23.71875,25.8750109 C24.909614,25.8750109 25.875,26.8403969 25.875,28.0312609 L25.875,39.5312609 C25.875,40.7221248 24.909614,41.6875109 23.71875,41.6875109 Z M2.15625,27.3125109 C1.75929534,27.3125109 1.4375,27.6343062 1.4375,28.0312609 L1.4375,39.5312609 C1.4375,39.9282155 1.75929534,40.2500109 2.15625,40.2500109 L23.71875,40.2500109 C24.1157047,40.2500109 24.4375,39.9282155 24.4375,39.5312609 L24.4375,28.0312609 C24.4375,27.6343062 24.1157047,27.3125109 23.71875,27.3125109 L18.6875,27.3125109 C18.2905453,27.3125109 17.96875,26.9907155 17.96875,26.5937609 L17.96875,24.0163234 L14.8831563,27.1019171 C14.7483958,27.2367182 14.5656088,27.3124701 14.375,27.3125109 L2.15625,27.3125109 Z" id="Shape"></path>
                <path d="M27.3125,24.4375109 C26.9155453,24.4375109 26.59375,24.1157155 26.59375,23.7187609 L26.59375,20.1250109 L22.28125,20.1250109 C21.090386,20.1250109 20.125,19.1596248 20.125,17.9687609 L20.125,6.46876086 C20.125,5.27789687 21.090386,4.31251086 22.28125,4.31251086 L43.84375,4.31251086 C45.034614,4.31251086 46,5.27789687 46,6.46876086 L46,17.9687609 C46,19.1596248 45.034614,20.1250109 43.84375,20.1250109 L31.9225625,20.1250109 L27.8206563,24.2269171 C27.6858958,24.3617182 27.5031088,24.4375109 27.3125,24.4375109 Z M22.28125,5.75001086 C21.8842953,5.75001086 21.5625,6.07180619 21.5625,6.46876086 L21.5625,17.9687609 C21.5625,18.3657155 21.8842953,18.6875109 22.28125,18.6875109 L27.3125,18.6875109 C27.7094547,18.6875109 28.03125,19.0093062 28.03125,19.4062609 L28.03125,21.9836984 L31.1168438,18.8981046 C31.2516042,18.7633035 31.4343912,18.6875516 31.625,18.6875109 L43.84375,18.6875109 C44.2407047,18.6875109 44.5625,18.3657155 44.5625,17.9687609 L44.5625,6.46876086 C44.5625,6.07180619 44.2407047,5.75001086 43.84375,5.75001086 L22.28125,5.75001086 Z" id="Shape"></path>
                <rect id="Rectangle" x="4.3125" y="30.1875109" width="1.4375" height="1.4375"></rect>
                <rect id="Rectangle" x="7.1875" y="30.1875109" width="1.4375" height="1.4375"></rect>
                <rect id="Rectangle" x="10.0625" y="30.1875109" width="11.5" height="1.4375"></rect>
                <rect id="Rectangle" x="4.3125" y="33.0625109" width="17.25" height="1.4375"></rect>
                <rect id="Rectangle" x="4.3125" y="35.9375109" width="15.8125" height="1.4375"></rect>
                <path d="M35.21875,15.8125109 C35.1326443,15.8124087 35.0472352,15.7970789 34.9664687,15.7672296 L29.2164687,13.6109796 C28.9357377,13.5057478 28.7498128,13.2373168 28.7499999,12.9375109 L28.7499999,10.0625109 C28.7498128,9.76270491 28.9357377,9.49427396 29.2164687,9.38904211 L34.9664687,7.23279211 C35.187264,7.15002702 35.4346123,7.18082522 35.6283698,7.31520772 C35.8221273,7.44959023 35.9376473,7.67046307 35.9375001,7.90626086 L35.9375001,15.0937609 C35.9375001,15.4907155 35.6157047,15.8125109 35.21875,15.8125109 Z M30.1875,12.4394171 L34.5,14.0566046 L34.5,8.94341711 L30.1875,10.5606046 L30.1875,12.4394171 Z" id="Shape"></path>
                <rect id="Rectangle" x="32.34375" y="8.62501086" width="1.4375" height="5.75"></rect>
                <path d="M29.46875,13.6562609 L25.15625,13.6562609 C24.7592953,13.6562609 24.4375,13.3344655 24.4375,12.9375109 L24.4375,10.0625109 C24.4375,9.66555619 24.7592953,9.34376086 25.15625,9.34376086 L29.46875,9.34376086 L29.46875,10.7812609 L25.875,10.7812609 L25.875,12.2187609 L29.46875,12.2187609 L29.46875,13.6562609 Z" id="Path"></path>
                <path d="M28.03125,17.2500109 L25.875,17.2500109 C25.4780453,17.2500109 25.15625,16.9282155 25.15625,16.5312609 L25.15625,12.9375109 L26.59375,12.9375109 L26.59375,15.8125109 L27.3125,15.8125109 L27.3125,12.9375109 L28.75,12.9375109 L28.75,16.5312609 C28.75,16.9282155 28.4282047,17.2500109 28.03125,17.2500109 Z" id="Path"></path>
                <rect id="Rectangle" x="37.375" y="10.7812609" width="3.59375" height="1.4375"></rect>
                <polygon id="Rectangle" transform="translate(38.453337, 8.265033) rotate(-45.000000) translate(-38.453337, -8.265033) " points="36.9285084 7.54628328 39.9781647 7.54628328 39.9781647 8.98378328 36.9285084 8.98378328"></polygon>
                <polygon id="Rectangle" transform="translate(38.453309, 14.734982) rotate(-45.000000) translate(-38.453309, -14.734982) " points="37.7345585 13.2101541 39.1720585 13.2101541 39.1720585 16.2598104 37.7345585 16.2598104"></polygon>
                <rect id="Rectangle" x="33.0625" y="41.6875109" width="4.3125" height="1.4375"></rect>
                <rect id="Rectangle" x="33.0625" y="38.8125109" width="4.3125" height="1.4375"></rect>
                <rect id="Rectangle" x="33.0625" y="35.9375109" width="4.3125" height="1.4375"></rect>
                <rect id="Rectangle" x="33.0625" y="33.0625109" width="4.3125" height="1.4375"></rect>
                <rect id="Rectangle" x="35.9375" y="30.1875109" width="1.4375" height="1.4375"></rect>
            </g>
        </g>
    </g>
</svg>