<?xml version="1.0" encoding="UTF-8"?>
<svg width="36px" height="40px" viewBox="0 0 36 40" version="1.1" xmlns="http://www.w3.org/2000/svg" xmlns:xlink="http://www.w3.org/1999/xlink">
    <title>icons-gmb-3</title>
    <g id="icons-gmb-3" stroke="none" stroke-width="1" fill="none" fill-rule="evenodd">
        <g id="noun_dollar-marketing_2753040" fill="#FC565B" fill-rule="nonzero">
            <g id="Group">
                <path d="M21.2,32.928125 C15.8201403,35.5608121 9.35320235,34.697464 4.88,30.749375 C4.59751953,30.5003973 4.43608595,30.1448064 4.43608595,29.7715625 C4.43608595,29.3983186 4.59751953,29.0427277 4.88,28.79375 L4.88,28.79375 C5.38334168,28.3584648 6.13665832,28.3584648 6.64,28.79375 C10.5268603,32.1681198 16.175199,32.7049634 20.6460992,30.1249531 C25.1169994,27.5449427 27.4001644,22.4310875 26.3076285,17.4442044 C25.2150926,12.4573213 20.993738,8.72430469 15.84,8.1875 C15.1667132,8.10740678 14.6617682,7.5425712 14.6666667,6.875 L14.6666667,6.875 C14.6638965,6.49781396 14.8261134,6.13768682 15.1119441,5.88646841 C15.3977749,5.63524999 15.779587,5.51722664 16.16,5.5625 C22.7130846,6.16332708 28.0571861,10.9876174 29.2312313,17.3623162 C30.4052766,23.737015 27.1217515,30.1010108 21.2,32.928125 L21.2,32.928125 Z" id="Path"></path>
                <path d="M14.6666496,38.375 L14.6666496,38.375 C14.6632223,37.698435 15.1827983,37.1301489 15.8666667,37.0625 C22.0592702,37.0695337 27.7852839,33.8239389 30.8877737,28.5482999 C33.9902635,23.2726608 33.9978874,16.7684726 30.9077737,11.4857999 C27.8176599,6.20312717 22.0992702,2.94453367 15.9066667,2.9375 C15.2069661,2.88916978 14.6649462,2.31545925 14.6666496,1.625 L14.6666496,0.3125 C25.7123617,-0.0861805538 34.9949912,8.40501899 35.4,19.278125 C35.8050088,30.151231 27.1790283,39.2888194 16.1333333,39.6875 C15.75724,39.7247129 15.382775,39.6030417 15.1030862,39.352752 C14.8233974,39.1024623 14.6647715,38.7470777 14.6666496,38.375 Z" id="Path"></path>
                <path d="M0.88,31.169375 L0.386666667,25.775 C0.346936479,25.3667143 0.503384377,24.9636196 0.809551247,24.6854199 C1.11571812,24.4072202 1.53639867,24.2859049 1.94666667,24.3575 L7.37333333,25.3025 C7.72172266,25.3632791 8.03128535,25.5578759 8.23385103,25.8434373 C8.43641672,26.1289986 8.5153733,26.482106 8.45333333,26.825 L8.45333333,26.825 C8.39158948,27.1679457 8.19390384,27.4726715 7.90380977,27.6720721 C7.6137157,27.8714727 7.25500339,27.9491956 6.90666667,27.888125 L4.92,27.546875 C4.51223518,27.4761039 4.09421,27.5958275 3.78866317,27.8708931 C3.48311634,28.1459587 3.32472673,28.545147 3.36,28.95125 L3.54666667,30.933125 C3.579966,31.2815254 3.47054825,31.6285902 3.24272063,31.8972187 C3.014893,32.1658471 2.68752203,32.3337941 2.33333333,32.36375 L2.33333333,32.36375 C1.97940275,32.396529 1.62682903,32.2888209 1.3539366,32.0645531 C1.08104418,31.8402853 0.910431402,31.5180295 0.88,31.169375 Z" id="Path"></path>
                <path d="M9.76,22.54625 L12.1466667,22.28375 C12.2148415,23.0323116 12.5230178,23.740154 13.0266667,24.305 C13.5076456,24.7511424 14.1534441,24.9836027 14.8133333,24.948125 C15.4628123,24.9939777 16.1045559,24.7865485 16.6,24.370625 C16.9755787,24.0334836 17.1927488,23.558424 17.2,23.058125 C17.2096722,22.7585738 17.1208192,22.463956 16.9466667,22.218125 C16.7146525,21.9417529 16.410375,21.7329943 16.0666667,21.614375 C15.7733333,21.500625 15.1155556,21.299375 14.0933333,21.010625 C13.0727993,20.8057707 12.1198696,20.3547898 11.32,19.698125 C10.5858856,18.9486531 10.1831889,17.9434843 10.2,16.9025 C10.1968714,16.2071056 10.3808874,15.5232993 10.7333333,14.920625 C11.0641889,14.2822782 11.5915208,13.763186 12.24,13.4375 C12.9908738,13.0944752 13.8125553,12.9282131 14.64,12.951875 C15.9007282,12.8562389 17.1469153,13.2683016 18.0933333,14.09375 C18.8885612,14.9176603 19.3241434,16.015516 19.3066667,17.151875 L16.8533333,17.27 C16.8111908,16.6967704 16.5712604,16.1549423 16.1733333,15.734375 C15.7486438,15.3960253 15.2124051,15.2231862 14.6666667,15.24875 C14.0641894,15.2126806 13.4684258,15.3895479 12.9866667,15.7475 C12.7271534,15.9607646 12.5840574,16.2813429 12.6,16.61375 C12.5946795,16.9311219 12.7253551,17.2360317 12.96,17.45375 C13.6374619,17.9146069 14.4047773,18.2319333 15.2133333,18.385625 C16.1429807,18.6010357 17.0396321,18.9364393 17.88,19.383125 C18.4465989,19.728107 18.907431,20.218029 19.2133333,20.800625 C19.5559549,21.4899776 19.7208107,22.2517916 19.6933333,23.01875 C19.694755,23.7996381 19.492769,24.567845 19.1066667,25.25 C18.7411742,25.9247553 18.1667017,26.4672641 17.4666667,26.79875 C16.6286609,27.1660688 15.7168072,27.341102 14.8,27.310625 C13.4984006,27.3950331 12.2179573,26.9543542 11.2533333,26.09 C10.3523609,25.1154493 9.82433802,23.8624264 9.76,22.54625 Z" id="Path"></path>
                <polygon id="Rectangle" transform="translate(14.491663, 12.986886) rotate(-0.480000) translate(-14.491663, -12.986886) " points="13.1581284 11.4642101 15.8247922 11.4645591 15.8251971 14.5095625 13.1585333 14.5092135"></polygon>
                <polygon id="Rectangle" transform="translate(14.507271, 26.952079) rotate(-0.460000) translate(-14.507271, -26.952079) " points="13.1737379 25.3703478 15.8404019 25.3706823 15.840805 28.5338106 13.174141 28.5334761"></polygon>
                <path d="M9.72,22.54625 L12.1066667,22.28375 C12.1748415,23.0323116 12.4830178,23.740154 12.9866667,24.305 C13.4676456,24.7511424 14.1134441,24.9836027 14.7733333,24.948125 C15.4228123,24.9939777 16.0645559,24.7865485 16.56,24.370625 C16.9355787,24.0334836 17.1527488,23.558424 17.16,23.058125 C17.1696722,22.7585738 17.0808192,22.463956 16.9066667,22.218125 C16.6746525,21.9417529 16.370375,21.7329943 16.0266667,21.614375 C15.7333333,21.500625 15.0755556,21.299375 14.0533333,21.010625 C13.0327993,20.8057707 12.0798696,20.3547898 11.28,19.698125 C10.5458856,18.9486531 10.1431889,17.9434843 10.16,16.9025 C10.1568714,16.2071056 10.3408874,15.5232993 10.6933333,14.920625 C11.0241889,14.2822782 11.5515208,13.763186 12.2,13.4375 C12.9508738,13.0944752 13.7725553,12.9282131 14.6,12.951875 C15.8607282,12.8562389 17.1069153,13.2683016 18.0533333,14.09375 C18.8485612,14.9176603 19.2841434,16.015516 19.2666667,17.151875 L16.8133333,17.27 C16.7711908,16.6967704 16.5312604,16.1549423 16.1333333,15.734375 C15.6928323,15.3881842 15.1353441,15.2193296 14.5733333,15.261875 C13.9708561,15.2258056 13.3750925,15.4026729 12.8933333,15.760625 C12.6338201,15.9738896 12.490724,16.2944679 12.5066667,16.626875 C12.5013462,16.9442469 12.6320218,17.2491567 12.8666667,17.466875 C13.5441286,17.9277319 14.311444,18.2450583 15.12,18.39875 C16.0496474,18.6141607 16.9462987,18.9495643 17.7866667,19.39625 C18.3532656,19.741232 18.8140976,20.231154 19.12,20.81375 C19.4626216,21.5031026 19.6274774,22.2649166 19.6,23.031875 C19.6014217,23.8127631 19.3994356,24.58097 19.0133333,25.263125 C18.6352255,25.9391853 18.0462127,26.4775797 17.3333333,26.79875 C16.4953276,27.1660688 15.5834739,27.341102 14.6666667,27.310625 C13.3650673,27.3950331 12.084624,26.9543542 11.12,26.09 C10.2528917,25.1025782 9.75840531,23.8509097 9.72,22.54625 L9.72,22.54625 Z" id="Path"></path>
                <polygon id="Rectangle" transform="translate(14.451664, 12.987216) rotate(-0.480000) translate(-14.451664, -12.987216) " points="13.1181298 11.4645399 15.7847936 11.464889 15.7851985 14.5098924 13.1185347 14.5095433"></polygon>
                <polygon id="Rectangle" transform="translate(14.467273, 26.952395) rotate(-0.460000) translate(-14.467273, -26.952395) " points="13.1337392 25.370664 15.8004032 25.3709985 15.8008063 28.5341267 13.1341423 28.5337922"></polygon>
            </g>
        </g>
    </g>
</svg>