<?xml version="1.0" encoding="UTF-8"?>
<svg width="38px" height="42px" viewBox="0 0 38 42" version="1.1" xmlns="http://www.w3.org/2000/svg" xmlns:xlink="http://www.w3.org/1999/xlink">
    <title>icons-seo-2</title>
    <g id="icons-seo-2" stroke="none" stroke-width="1" fill="none" fill-rule="evenodd">
        <g id="noun_trust_3147025" fill-rule="nonzero">
            <g id="Group">
                <path d="M12.8813559,25.6271186 C10.8686441,23.8474576 10.1530132,23.1800847 9.79519774,22.8686441 C9.4373823,22.5127119 9.4373823,22.5127119 8.8559322,22.0677966 C8.00612053,21.3559322 7.24576271,21.1334746 6.66431262,21.2224576 C6.21704331,18.4194915 4.91996234,9.96610169 4.51741996,8.76483051 C4.24905838,7.875 3.44397363,7.34110169 2.54943503,7.43008475 C1.69962335,7.5190678 0.805084746,8.18644068 0.715630885,9.52118644 C0.581450094,11.3008475 0.268361582,20.2436441 0.223634652,22.8686441 C0.0894538606,25.8050847 0.894538606,26.6949153 1.74435028,27.6737288 C1.83380414,27.7627119 1.87853107,27.8516949 1.96798493,27.940678 C2.9519774,29.0974576 5.18832392,31.5444915 6.88794727,33.1461864 C8.27448211,34.4809322 8.27448211,34.8368644 8.31920904,35.815678 L8.31920904,36.1716102 C8.36393597,37.4618644 8.05084746,40.8432203 8.05084746,40.8877119 C8.05084746,41.065678 8.09557439,41.2436441 8.22975518,41.4216102 C8.36393597,41.5550847 8.54284369,41.6440678 8.72175141,41.6440678 C8.72175141,41.6440678 8.72175141,41.6440678 8.72175141,41.6440678 L15.5649718,41.4661017 C15.9227872,41.4661017 16.2358757,41.154661 16.2358757,40.7987288 C16.2358757,39.7309322 16.2358757,38.7076271 16.2806026,37.7288136 C16.3700565,32.7012712 16.4595104,28.7860169 12.8813559,25.6271186 Z M14.8940678,40.1313559 L9.4373823,40.2648305 C9.48210923,39.5529661 9.57156309,38.4851695 9.61629002,37.5063559 L14.9387947,37.0614407 C14.9387947,37.2838983 14.9387947,37.4618644 14.9387947,37.684322 C14.9387947,38.440678 14.8940678,39.2860169 14.8940678,40.1313559 Z M14.9835217,35.7266949 L9.66101695,36.1716102 C9.66101695,36.1716102 9.66101695,36.1271186 9.66101695,36.1271186 L9.66101695,35.815678 C9.66101695,34.5254237 9.57156309,33.8135593 7.82721281,32.2118644 C6.12758945,30.6101695 3.93596987,28.2076271 2.99670433,27.095339 C2.90725047,27.0063559 2.81779661,26.9173729 2.77306968,26.8283898 C2.01271186,25.9830508 1.4759887,25.3601695 1.56544256,22.9131356 C1.65489642,19.7987288 1.923258,11.3008475 2.05743879,9.65466102 C2.10216573,9.07627119 2.45998117,8.85381356 2.72834275,8.80932203 C2.72834275,8.80932203 2.77306968,8.80932203 2.77306968,8.80932203 C2.90725047,8.80932203 3.17561205,8.85381356 3.26506591,9.20974576 C3.57815443,10.2775424 4.91996234,18.6419492 5.4566855,22.1122881 C5.14359699,22.690678 5.23305085,23.5360169 5.63559322,24.3368644 C6.57485876,26.1610169 8.14030132,28.6970339 8.22975518,28.8305085 C8.4086629,29.1419492 8.8559322,29.2309322 9.16902072,29.0529661 C9.48210923,28.875 9.57156309,28.4300847 9.39265537,28.1186441 C9.39265537,28.0741525 7.73775895,25.4936441 6.88794727,23.7584746 C6.61958569,23.2245763 6.61958569,22.8241525 6.70903955,22.690678 C6.70903955,22.690678 6.75376648,22.6461864 6.75376648,22.6461864 C6.75376648,22.6461864 6.75376648,22.6461864 6.75376648,22.6461864 C6.88794727,22.5572034 7.33521657,22.5572034 8.05084746,23.1800847 C8.58757062,23.625 8.58757062,23.625 8.94538606,23.9364407 C9.30320151,24.2478814 10.0635593,24.9152542 12.0762712,26.6949153 C14.6704331,28.9639831 14.9835217,31.9004237 14.9835217,35.7266949 Z" id="Shape" fill="#FC565B"></path>
                <path d="M37.3917137,22.8241525 C37.3022599,20.2436441 37.0338983,11.3008475 36.8997175,9.47669492 C36.8102637,8.18644068 35.8709981,7.5190678 35.0659134,7.38559322 C34.1713748,7.29661017 33.36629,7.83050847 33.0979284,8.72033898 C32.740113,9.92161017 31.3983051,18.375 30.9510358,21.1779661 C30.3695857,21.1334746 29.6092279,21.3114407 28.7594162,22.0233051 C28.1779661,22.4682203 28.1779661,22.4682203 27.8201507,22.8241525 C27.4623352,23.1355932 26.7019774,23.8029661 24.7339925,25.5826271 C21.155838,28.7415254 21.2452919,32.6567797 21.3347458,37.6398305 C21.3347458,38.6186441 21.3794727,39.6419492 21.3794727,40.7097458 C21.3794727,41.065678 21.6478343,41.3771186 22.0503766,41.3771186 L28.893597,41.5550847 C28.893597,41.5550847 28.893597,41.5550847 28.893597,41.5550847 C29.0725047,41.5550847 29.2514124,41.4661017 29.3855932,41.3326271 C29.519774,41.1991525 29.5645009,41.0211864 29.5645009,40.7987288 C29.5645009,40.7542373 29.2961394,37.3728814 29.2961394,36.0826271 L29.2961394,35.7266949 C29.2961394,34.7478814 29.2961394,34.3919492 30.7274011,33.0572034 C32.4270245,31.4110169 34.7080979,28.9639831 35.6473635,27.8516949 C35.7368173,27.7627119 35.7815443,27.6737288 35.8709981,27.5847458 C36.6760829,26.6949153 37.4811676,25.8050847 37.3917137,22.8241525 Z M22.6765537,40.1313559 C22.6765537,39.2860169 22.6765537,38.4851695 22.6318267,37.684322 C22.6318267,37.4618644 22.6318267,37.2838983 22.6318267,37.0614407 L27.9543315,37.5063559 C27.9990584,38.440678 28.0885122,39.5529661 28.1332392,40.2648305 L22.6765537,40.1313559 Z M34.8422787,26.7838983 C34.7528249,26.8728814 34.663371,26.9618644 34.6186441,27.0508475 C33.6793785,28.1631356 31.443032,30.565678 29.7881356,32.1673729 C28.0885122,33.8135593 27.9990584,34.4809322 27.9543315,35.7711864 L27.9543315,36.0826271 C27.9543315,36.0826271 27.9543315,36.1271186 27.9543315,36.1271186 L22.6318267,35.6822034 C22.5870998,31.8559322 22.9449153,28.9639831 25.5838041,26.5614407 C27.596516,24.7817797 28.3568738,24.1144068 28.7146893,23.8029661 C29.0725047,23.4915254 29.0725047,23.4915254 29.6092279,23.0466102 C30.3248588,22.4682203 30.7721281,22.4237288 30.9063089,22.5127119 C30.9063089,22.5127119 30.9063089,22.5127119 30.9063089,22.5127119 C30.9063089,22.5127119 30.9063089,22.5572034 30.9510358,22.5572034 C31.0404896,22.690678 31.0404896,23.0911017 30.7721281,23.625 C29.8775895,25.404661 28.26742,27.9851695 28.26742,27.9851695 C28.0885122,28.2966102 28.1779661,28.6970339 28.4910546,28.9194915 C28.8041431,29.0974576 29.2066855,29.0084746 29.4303202,28.6970339 C29.519774,28.6080508 31.0852166,26.0275424 32.0244821,24.2033898 C32.4270245,23.3580508 32.5164783,22.5572034 32.2033898,21.9788136 C32.740113,18.5084746 34.0819209,10.1440678 34.3950094,9.07627119 C34.5291902,8.67584746 34.8422787,8.67584746 34.9317326,8.67584746 C35.2000942,8.72033898 35.5579096,8.94279661 35.6026365,9.52118644 C35.7368173,11.1673729 36.0051789,19.6652542 36.0946328,22.779661 C36.0946328,25.315678 35.5579096,25.9385593 34.8422787,26.7838983 Z" id="Shape" fill="#FC565B"></path>
                <path d="M29.1172316,6.22881356 C29.1172316,5.96186441 28.9383239,5.69491525 28.6699623,5.6059322 C25.047081,4.31567797 22.8554614,3.24788136 19.23258,0.355932203 C19.0089454,0.177966102 18.6511299,0.177966102 18.3827684,0.355932203 C14.759887,3.24788136 12.5235405,4.31567797 8.90065913,5.6059322 C8.63229755,5.69491525 8.45338983,5.96186441 8.45338983,6.22881356 C8.45338983,13.125 10.0188324,18.0635593 13.0602637,20.8665254 C15.386064,23.0021186 17.8907721,23.1801436 18.6511299,23.1801436 C18.7405838,23.1801436 18.7853107,23.1801436 18.8300377,23.1801436 C19.23258,23.1801436 21.9609228,23.2245763 24.5550847,20.8665254 C27.596516,18.1080508 29.1172316,13.1694915 29.1172316,6.22881356 Z" id="Shape" fill="#FC565B"></path>
                <path d="M18.8747646,21.8898305 C18.8747646,21.8898305 18.8300377,21.8898305 18.8300377,21.8898305 C18.8300377,21.8898305 18.7853107,21.8898305 18.7853107,21.8898305 C18.6958569,21.8898305 16.2806026,22.0233051 13.9548023,19.8877119 C11.3159134,17.440678 9.8846516,12.8580508 9.79519774,6.71822034 C13.1497175,5.51694915 15.4755179,4.36016949 18.8300377,1.73516949 C22.1845574,4.36016949 24.4656309,5.47245763 27.7754237,6.71822034 C27.7306968,12.9025424 26.299435,17.440678 23.6605461,19.8877119 C21.3794727,22.0233051 18.9642185,21.8898305 18.8747646,21.8898305 Z" id="Path" fill="#FC565B"></path>
                <path d="M23.5710923,8.45338983 C23.2580038,8.2309322 22.8554614,8.31991525 22.6318267,8.58686441 L17.309322,15.9724576 L14.9387947,12.6355932 C14.7151601,12.3241525 14.3126177,12.279661 13.9995292,12.5021186 C13.6864407,12.7245763 13.6417137,13.125 13.8653484,13.4364407 L16.8173258,17.529661 C16.9515066,17.7076271 17.1304143,17.7966102 17.354049,17.7966102 C17.5776836,17.7966102 17.7565913,17.7076271 17.8907721,17.529661 L23.75,9.38771186 C23.9289077,9.07627119 23.8841808,8.67584746 23.5710923,8.45338983 Z" id="Path" fill="#FFFFFF"></path>
            </g>
        </g>
    </g>
</svg>