<?xml version="1.0" encoding="UTF-8"?>
<svg width="46px" height="34px" viewBox="0 0 46 34" version="1.1" xmlns="http://www.w3.org/2000/svg" xmlns:xlink="http://www.w3.org/1999/xlink">
    <title>icons-bb-2</title>
    <g id="icons-bb-2" stroke="none" stroke-width="1" fill="none" fill-rule="evenodd">
        <g id="noun_buyers_429553" fill="#FC565B" fill-rule="nonzero">
            <path d="M14.6759259,25.6944444 L14.6759259,29.6759259 L14.6296296,29.6759259 L11.25,29.6759259 L-3.55271368e-15,29.6759259 L-3.55271368e-15,26.0185185 C-3.55271368e-15,25.2314815 0.324074074,24.537037 0.925925926,24.0277778 C4.21296296,21.2962963 7.77777778,19.4907407 8.51851852,19.1666667 C8.61111111,19.1203704 8.65740741,19.0277778 8.65740741,18.9351852 L8.65740741,17.037037 C8.14814815,16.2037037 7.91666667,15.2777778 7.77777778,14.4444444 C7.5,14.4444444 7.08333333,14.0277778 6.71296296,12.5462963 C6.2037037,10.6944444 6.66666667,10.3240741 7.17592593,10.3240741 C7.22222222,10.3240741 7.22222222,10.3240741 7.26851852,10.3240741 C6.89814815,9.25925926 6.89814815,8.24074074 7.12962963,7.31481481 C7.40740741,6.2037037 8.00925926,5.32407407 8.65740741,4.62962963 C9.07407407,4.16666667 9.58333333,3.7962963 10.0925926,3.47222222 C10.5092593,3.19444444 10.9722222,2.91666667 11.4814815,2.77777778 L11.4814815,2.77777778 C11.8981481,2.63888889 12.3148148,2.5462963 12.7314815,2.5462963 C12.9166667,2.5462963 13.1018519,2.5 13.287037,2.5 C14.3981481,2.5 15.2777778,2.82407407 15.9259259,3.19444444 C17.037037,3.7962963 17.4537037,4.62962963 17.4537037,4.62962963 C17.4537037,4.62962963 20.2777778,4.81481481 19.0277778,10.7407407 C19.3981481,10.8796296 19.6759259,11.3888889 19.212963,12.962963 C18.7962963,14.4444444 18.3796296,14.8611111 18.1018519,14.8611111 C18.0092593,14.8611111 17.962963,14.8148148 17.8703704,14.7685185 C17.7314815,15.4166667 17.5462963,16.1574074 17.2222222,16.8518519 C17.2222222,17.8240741 17.2222222,18.7037037 17.2222222,19.0277778 C17.2222222,19.1203704 17.2685185,19.212963 17.3611111,19.2592593 C17.5925926,19.3981481 18.2407407,19.6759259 19.0277778,20.1388889 C18.1481481,20.7407407 17.2222222,21.4351852 16.3425926,22.1759259 C15.2777778,22.962963 14.6759259,24.3055556 14.6759259,25.6944444 Z M25,13.0555556 C25.1388889,13.9814815 25.4166667,14.9537037 25.9722222,15.8796296 L25.9722222,17.962963 C25.9722222,18.0555556 25.9259259,18.1481481 25.8333333,18.1944444 C25.0462963,18.5648148 21.1574074,20.5555556 17.5462963,23.5185185 C16.8981481,24.0277778 16.5277778,24.8611111 16.5277778,25.6944444 L16.5277778,29.6759259 L28.7962963,29.6759259 L32.5,29.6759259 L35.6018519,29.6759259 C35.4166667,29.1203704 35.2777778,28.5648148 35.2777778,27.9166667 C35.2314815,27.3148148 35.462963,26.712963 35.8796296,26.2962963 C36.1111111,26.0648148 36.3888889,25.8333333 36.712963,25.7407407 C36.1574074,25.0925926 35.6481481,24.0277778 35.6481481,22.5 C35.6481481,21.1574074 36.1111111,19.9537037 36.9907407,19.0277778 C36.25,18.6111111 35.6944444,18.3333333 35.462963,18.2407407 C35.3703704,18.1944444 35.3240741,18.1018519 35.3240741,18.0092593 C35.3240741,17.6388889 35.3240741,16.6666667 35.3240741,15.6018519 C35.6944444,14.8611111 35.8796296,14.0740741 36.0185185,13.3333333 C36.0648148,13.3796296 36.1574074,13.4259259 36.25,13.4259259 C36.5740741,13.4259259 36.9907407,13.0092593 37.4537037,11.3888889 C37.9166667,9.67592593 37.6388889,9.12037037 37.2222222,8.98148148 C38.5648148,2.5462963 35.5092593,2.31481481 35.5092593,2.31481481 C35.5092593,2.31481481 35.0462963,1.43518519 33.8425926,0.740740741 C33.1481481,0.324074074 32.1759259,0 30.9722222,0 C30.787037,0 30.6018519,0 30.3703704,0.0462962963 C29.8611111,0.0462962963 29.4444444,0.185185185 28.9814815,0.324074074 L28.9814815,0.324074074 C28.4259259,0.509259259 27.9166667,0.787037037 27.4537037,1.11111111 C26.8981481,1.48148148 26.3425926,1.89814815 25.8796296,2.40740741 C25.1388889,3.14814815 24.4907407,4.12037037 24.212963,5.37037037 C23.9351852,6.38888889 23.9351852,7.5462963 24.3518519,8.65740741 C24.3055556,8.65740741 24.3055556,8.65740741 24.2592593,8.65740741 C23.75,8.65740741 23.1944444,9.07407407 23.75,11.1111111 C24.2592593,12.5925926 24.6759259,13.0555556 25,13.0555556 Z M38.3796296,24.7685185 C38.9814815,25.2777778 39.9074074,25.8333333 41.2037037,26.3425926 C41.712963,26.5740741 42.0833333,26.8055556 42.3148148,27.037037 C42.5,27.2685185 42.5925926,27.5925926 42.5925926,28.0555556 C42.5925926,28.4259259 42.5,28.7037037 42.2685185,28.9351852 C42.0833333,29.1666667 41.7592593,29.2592593 41.3888889,29.2592593 C40.9259259,29.2592593 40.5555556,29.1203704 40.2314815,28.7962963 C40,28.5648148 39.8611111,28.1944444 39.8148148,27.6851852 C39.8148148,27.5 39.6296296,27.3611111 39.4444444,27.3611111 C39.4444444,27.3611111 39.4444444,27.3611111 39.4444444,27.3611111 L37.5,27.4074074 C37.2685185,27.4074074 37.1296296,27.5925926 37.1296296,27.8240741 C37.1759259,28.8425926 37.5,29.6759259 38.1481481,30.2314815 C38.8425926,30.8333333 39.6759259,31.2037037 40.6481481,31.3425926 L40.6481481,32.6851852 C40.6481481,32.8703704 40.787037,33.0092593 40.9722222,33.0092593 L42.1759259,33.0092593 C42.3611111,33.0092593 42.5,32.8703704 42.5,32.6851852 L42.5,31.2962963 C43.287037,31.1574074 43.9814815,30.8333333 44.4907407,30.3240741 C45.0925926,29.7685185 45.3703704,28.9814815 45.3703704,28.0555556 C45.3703704,27.037037 45.0925926,26.2962963 44.4907407,25.7407407 C43.8888889,25.1851852 42.962963,24.6759259 41.712963,24.1203704 C41.1574074,23.8888889 40.787037,23.6574074 40.6018519,23.4259259 C40.4166667,23.1944444 40.3240741,22.8703704 40.3240741,22.5 C40.3240741,22.1296296 40.4166667,21.8055556 40.6018519,21.5740741 C40.787037,21.3425926 41.0648148,21.2037037 41.4814815,21.2037037 C41.8518519,21.2037037 42.1759259,21.3425926 42.4074074,21.6203704 C42.5925926,21.8518519 42.6851852,22.1759259 42.7314815,22.5925926 C42.7314815,22.7777778 42.9166667,22.9166667 43.1018519,22.9166667 L43.1018519,22.9166667 L45.0462963,22.8703704 C45.2777778,22.8703704 45.462963,22.6851852 45.4166667,22.4537037 C45.3703704,21.6203704 45.0925926,20.8796296 44.5833333,20.2777778 C44.0740741,19.6759259 43.3796296,19.3055556 42.5462963,19.1203704 L42.5462963,17.6388889 C42.5462963,17.4537037 42.4074074,17.3148148 42.2222222,17.3148148 L41.0185185,17.3148148 C40.8333333,17.3148148 40.6944444,17.4537037 40.6944444,17.6388889 L40.6944444,19.0740741 C39.7685185,19.212963 39.0277778,19.537037 38.4722222,20.0925926 C37.8703704,20.6944444 37.5462963,21.4351852 37.5462963,22.3611111 C37.5,23.4722222 37.8240741,24.2592593 38.3796296,24.7685185 Z" id="Shape"></path>
        </g>
    </g>
</svg>