<?xml version="1.0" encoding="UTF-8"?>
<svg width="48px" height="47px" viewBox="0 0 48 47" version="1.1" xmlns="http://www.w3.org/2000/svg" xmlns:xlink="http://www.w3.org/1999/xlink">
    <title>icons-seo</title>
    <g id="icons-seo" stroke="none" stroke-width="1" fill="none" fill-rule="evenodd">
        <g id="noun_SEO_737036" fill="#034EA1" fill-rule="nonzero">
            <path d="M35.0809628,33.8826139 L35.2910284,33.6170798 C38.4420131,29.899602 40.1750547,25.2262013 40.1750547,20.3403732 C40.1750547,9.13483292 31.1422319,0.000228412848 20.0612691,0.000228412848 C8.98030635,-0.0526480106 0,9.0817261 0,20.3403732 C0,31.5990204 9.03282276,40.6802877 20.1137856,40.6802877 C24.6301969,40.6802877 28.9365427,39.1932965 32.5076586,36.3786348 L32.7177243,36.2193143 L45.95186,47 L48,44.4508723 L35.0809628,33.8826139 Z M20.1137856,37.3876645 C10.8183807,37.3876645 3.25601751,29.7402815 3.25601751,20.3403732 C3.25601751,10.940465 10.8183807,3.29308204 20.1137856,3.29308204 C29.4091904,3.29308204 36.9715536,10.940465 36.9715536,20.3403732 C36.9715536,29.7402815 29.4091904,37.3876645 20.1137856,37.3876645 Z" id="Shape"></path>
            <polygon id="Path" points="10 26.6666667 12.4120603 29 17.3366834 22.7777778 21.7085427 26 27.3366834 19.5 30 21.3333333 29.4974874 13 22.0100503 15.8333333 24.5728643 17.5555556 21.2562814 21.4444444 16.7839196 18.1111111"></polygon>
        </g>
    </g>
</svg>