<?xml version="1.0" encoding="UTF-8"?>
<svg width="33px" height="40px" viewBox="0 0 33 40" version="1.1" xmlns="http://www.w3.org/2000/svg" xmlns:xlink="http://www.w3.org/1999/xlink">
    <title>icons-gmb-2</title>
    <g id="icons-gmb-2" stroke="none" stroke-width="1" fill="none" fill-rule="evenodd">
        <g id="noun_report_1313576" transform="translate(0.255748, 0.000000)" fill="#034EA1" fill-rule="nonzero">
            <g id="Group">
                <path d="M31.663504,11.6499328 L23.4296172,11.6499328 C22.0648223,11.6499328 20.9546172,10.5285136 20.9546172,9.14993283 L20.9546172,0.833689333 C20.9546172,0.5422465 21.0081435,0.262705417 21.0994856,0 L0.825,0 C0.371260065,0 0,0.375010167 0,0.833333333 L0,39.1666667 C0,39.6250407 0.371260065,40 0.825,40 L31.663504,40 C32.117244,40 32.488504,39.6250407 32.488504,39.1666667 L32.488504,11.4983113 C32.2266128,11.5931702 31.949263,11.6499328 31.663504,11.6499328 Z M24.5043732,14.3061828 C24.9015655,14.0823873 25.4042999,14.2256164 25.6274688,14.6268208 C25.8498322,15.0280253 25.7080353,15.5358378 25.3100372,15.7612609 L19.5350372,19.0254211 C19.288504,19.1645813 18.9879914,19.1678364 18.7382355,19.0303039 L13.3692902,16.085968 L8.20578916,22.1072896 C8.04304504,22.2977192 7.8126251,22.3953755 7.58220515,22.3953755 C7.39045709,22.3953755 7.1979034,22.3286437 7.04241021,22.191925 C6.69758595,21.8908182 6.66052546,21.3642882 6.95862115,21.0167947 L12.5563751,14.4884744 C12.810965,14.1922504 13.2331329,14.1157531 13.5739288,14.3012999 L19.1265655,17.3465473 L24.5043732,14.3061828 Z M5.26189265,4.15644325 L17.9462677,4.15644325 C18.4022735,4.15644325 18.7712677,4.52916458 18.7712677,4.98977658 C18.7712677,5.45038858 18.4022735,5.82310992 17.9462677,5.82310992 L5.26189265,5.82310992 C4.80588677,5.82310992 4.43689265,5.45038858 4.43689265,4.98977658 C4.43689265,4.52916458 4.80588677,4.15644325 5.26189265,4.15644325 Z M4.43689265,9.15644325 C4.43689265,8.69583125 4.80588677,8.32310992 5.26189265,8.32310992 L14.6462677,8.32310992 C15.1022735,8.32310992 15.4712677,8.69583125 15.4712677,9.15644325 C15.4712677,9.61705525 15.1022735,9.98977658 14.6462677,9.98977658 L5.26189265,9.98977658 C4.80588677,9.98977658 4.43689265,9.61705525 4.43689265,9.15644325 Z M8.40720515,35.0337219 C8.40720515,35.4943339 8.03821103,35.8670552 7.58220515,35.8670552 C7.12619927,35.8670552 6.75720515,35.4943339 6.75720515,35.0337219 L6.75720515,26.9787089 C6.75720515,26.5180969 7.12619927,26.1453756 7.58220515,26.1453756 C8.03821103,26.1453756 8.40720515,26.5180969 8.40720515,26.9787089 L8.40720515,35.0337219 Z M14.1822052,35.0337219 C14.1822052,35.4943339 13.813211,35.8670552 13.3572052,35.8670552 C12.9011993,35.8670552 12.5322052,35.4943339 12.5322052,35.0337219 L12.5322052,21.9787089 C12.5322052,21.5180969 12.9011993,21.1453756 13.3572052,21.1453756 C13.813211,21.1453756 14.1822052,21.5180969 14.1822052,21.9787089 L14.1822052,35.0337219 Z M19.9572052,35.0337219 C19.9572052,35.4943339 19.588211,35.8670552 19.1322052,35.8670552 C18.6761993,35.8670552 18.3072052,35.4943339 18.3072052,35.0337219 L18.3072052,23.6453756 C18.3072052,23.1847636 18.6761993,22.8120423 19.1322052,22.8120423 C19.588211,22.8120423 19.9572052,23.1847636 19.9572052,23.6453756 L19.9572052,35.0337219 Z M25.7322052,35.0337219 C25.7322052,35.4943339 25.363211,35.8670552 24.9072052,35.8670552 C24.4511993,35.8670552 24.0822052,35.4943339 24.0822052,35.0337219 L24.0822052,21.1453756 C24.0822052,20.6847636 24.4511993,20.3120423 24.9072052,20.3120423 C25.363211,20.3120423 25.7322052,20.6847636 25.7322052,21.1453756 L25.7322052,35.0337219 Z" id="Shape"></path>
                <path d="M23.4300201,9.98336792 L31.663504,9.98336792 C31.9935242,9.98336792 32.2987701,9.77503458 32.4224899,9.46670533 C32.5545181,9.15837608 32.480246,8.799998 32.2492722,8.55834958 L24.015738,0.241699167 C23.7765061,0.00834141667 23.4217621,-0.0666300833 23.1165162,0.0666808333 C22.803012,0.19170125 22.6050201,0.5000305 22.6050201,0.833333333 L22.6050201,9.15003458 C22.6050201,9.60835775 22.9762298,9.98336792 23.4300201,9.98336792 Z" id="Path"></path>
            </g>
        </g>
    </g>
</svg>