<?xml version="1.0" encoding="UTF-8"?>
<svg width="48px" height="47px" viewBox="0 0 48 47" version="1.1" xmlns="http://www.w3.org/2000/svg" xmlns:xlink="http://www.w3.org/1999/xlink">
    <title>icons-web</title>
    <g id="icons-web" stroke="none" stroke-width="1" fill="none" fill-rule="evenodd">
        <g id="noun_website_2029853" transform="translate(0.000000, 6.000000)" fill="#FC565B" fill-rule="nonzero">
            <g id="Group">
                <path d="M33.85,28.95 L29.1,28.95 C29,28.95 28.9,29.05 28.9,29.15 L28.9,29.8 C28.9,30.2 28.55,30.55 28.15,30.55 L19.05,30.55 C18.65,30.55 18.3,30.2 18.3,29.8 L18.3,29.15 C18.3,29.05 18.2,28.95 18.1,28.95 L0.5,28.95 C0.35,28.95 0.25,29.05 0.25,29.25 L0.25,31.95 C0.25,33.25 1.3,34.3 2.65,34.3 L34.9,34.3 C34.8,34.05 34.75,33.85 34.7,33.6 L33.85,28.95 Z" id="Path"></path>
                <path d="M5.65,26.95 L33.5,26.95 L33.05,24.45 C32.95,23.9 32.95,23.35 33.1,22.8 L7.7,22.8 L7.7,4.9 C7.7,4.65 7.9,4.5 8.1,4.5 L39.05,4.5 C39.3,4.5 39.45,4.7 39.45,4.9 L39.45,20.1 C39.5,20.15 39.55,20.15 39.6,20.2 L43.6,22.95 L43.6,4.95 C43.6,2.45 41.55,0.4 39.05,0.4 L8.1,0.4 C5.6,0.4 3.55,2.45 3.55,4.95 L3.55,24.95 C3.55,26 4.45,26.95 5.65,26.95 Z" id="Path"></path>
                <path d="M33.05,7.55 L23.95,7.55 C23.35,7.55 22.85,8.05 22.85,8.65 L22.85,8.65 C22.85,9.25 23.35,9.75 23.95,9.75 L33.05,9.75 C33.65,9.75 34.15,9.25 34.15,8.65 C34.2,8.05 33.7,7.55 33.05,7.55 Z" id="Path"></path>
                <path d="M33.05,12.5 L23.95,12.5 C23.35,12.5 22.85,13 22.85,13.6 L22.85,13.6 C22.85,14.2 23.35,14.7 23.95,14.7 L33.05,14.7 C33.65,14.7 34.15,14.2 34.15,13.6 C34.2,13 33.7,12.5 33.05,12.5 Z" id="Path"></path>
                <path d="M23.95,17.45 C23.35,17.45 22.85,17.95 22.85,18.55 L22.85,18.55 C22.85,19.15 23.35,19.65 23.95,19.65 L33.05,19.65 C33.65,19.65 34.15,19.15 34.15,18.55 L34.15,18.55 C34.15,17.95 33.65,17.45 33.05,17.45 L23.95,17.45 Z" id="Path"></path>
                <path d="M14.6,7.55 C13.8,7.55 13.1,8.2 13.1,9.05 L13.1,18.2 C13.1,19 13.75,19.7 14.6,19.7 L19.25,19.7 C20.05,19.7 20.75,19.05 20.75,18.2 L20.75,9.05 C20.75,8.25 20.1,7.55 19.25,7.55 L14.6,7.55 Z" id="Path"></path>
                <path d="M47.4,35.25 L44.75,31.15 L45.9,30.4 C46.95,29.7 46.95,28.2 45.95,27.5 L38.25,22.2 C36.95,21.3 35.15,22.45 35.45,24 L37.1,33.15 C37.3,34.4 38.7,35 39.75,34.3 L40.9,33.55 L43.55,37.65 C44.2,38.7 45.6,39 46.65,38.3 C47.75,37.65 48.05,36.25 47.4,35.25 Z" id="Path"></path>
            </g>
        </g>
    </g>
</svg>