<?xml version="1.0" encoding="UTF-8"?>
<svg width="37px" height="36px" viewBox="0 0 37 36" version="1.1" xmlns="http://www.w3.org/2000/svg" xmlns:xlink="http://www.w3.org/1999/xlink">
    <title>icons-gmb-1</title>
    <g id="Symbols" stroke="none" stroke-width="1" fill="none" fill-rule="evenodd">
        <g id="icons-gmb-1" transform="translate(0.000000, -0.000000)" fill-rule="nonzero">
            <path d="M2.41812791,35.2192733 L34.5004768,35.2192733 C35.8335988,35.2192733 36.9186047,34.1345523 36.9186047,32.8011454 C36.9186047,24.115407 36.9186047,11.5905581 36.9186047,2.4181279 C36.9186047,1.08472093 35.8335988,0 34.5004768,0 L2.41812791,0 C1.08500582,0 0,1.08472674 0,2.41813372 C0,11.5879884 0,24.1126454 0,32.8011512 C0,34.1345523 1.08500582,35.2192733 2.41812791,35.2192733 Z" id="Shape" fill="#034EA1"></path>
            <path d="M34.5004768,34.3471802 L2.41812791,34.3471802 C1.56590698,34.3471802 0.872093018,33.6536512 0.872093018,32.8011454 L0.872093018,5.74270348 L4.30084884,5.74270348 C4.49218605,5.74270348 4.66138372,5.61807558 4.71759302,5.43525581 L5.1297907,4.09872674 C5.19792442,3.87048255 5.41537791,3.71122674 5.65838372,3.71122674 L14.8795175,3.71122674 C15.123093,3.71122674 15.3405465,3.87020348 15.4092442,4.1024186 L15.8203082,5.43525581 C15.8765175,5.61807558 16.0457151,5.74270348 16.2370523,5.74270348 L36.0465116,5.74270348 L36.0465116,32.8011512 C36.0465116,33.6536512 35.3526977,34.3471802 34.5004768,34.3471802 Z" id="Path" fill="#034EA1"></path>
            <path d="M0.872093018,2.41813373 C0.872093018,1.56562791 1.56590698,0.872098837 2.41812791,0.872098837 L34.5004768,0.872098837 C35.3526977,0.872098837 36.0465116,1.56562791 36.0465116,2.41813373 L36.0465116,4.87061047 L16.5589826,4.87061047 L16.2438721,3.84947675 C16.0672965,3.25473838 15.5057733,2.83913373 14.8795233,2.83913373 L5.65838372,2.83913373 C5.03270349,2.83913373 4.47174419,3.25445931 4.29516861,3.84522093 L3.97891861,4.87061047 L0.872093018,4.87061047 L0.872093018,2.41813373 Z" id="Path" fill="#034EA1"></path>
            <path d="M31.0069942,25.1805523 L5.82247093,25.1805523 C4.98614535,25.1805523 4.3059593,25.8607384 4.3059593,26.6967791 L4.3059593,29.7860116 C4.3059593,30.6220523 4.98614535,31.3022384 5.82247093,31.3022384 L31.0069942,31.3022384 C31.8433198,31.3022384 32.5235058,30.6220523 32.5235058,29.7860116 L32.5235058,26.6967791 C32.5235058,25.8607384 31.8433198,25.1805523 31.0069942,25.1805523 Z M31.6514128,29.7860116 C31.6514128,30.1411512 31.3624186,30.4301454 31.0069942,30.4301454 L5.82247093,30.4301454 C5.46704651,30.4301454 5.17805233,30.1411512 5.17805233,29.7860116 L5.17805233,26.6967791 C5.17805233,26.3416395 5.46704651,26.0526454 5.82247093,26.0526454 L31.0069942,26.0526454 C31.3624186,26.0526454 31.6514128,26.3416395 31.6514128,26.6967791 L31.6514128,29.7860116 Z" id="Shape" fill="#034EA1"></path>
            <path d="M10.8580116,26.9548314 C10.6876802,26.7845 10.4117442,26.7845 10.2414128,26.9548314 L9.57144769,27.6247965 L8.90148256,26.9548314 C8.73115116,26.7845 8.45521512,26.7845 8.28488372,26.9548314 C8.11455233,27.1251628 8.11455233,27.4010988 8.28488372,27.5714302 L8.95484884,28.2413954 L8.28488372,28.9113605 C8.11455233,29.0816919 8.11455233,29.3576279 8.28488372,29.5279593 C8.45527326,29.6983547 8.73114535,29.6982965 8.90148256,29.5279593 L9.57144769,28.8579942 L10.2414128,29.5279593 C10.4118023,29.6983547 10.6876744,29.6982965 10.8580116,29.5279593 C11.028343,29.3576279 11.028343,29.0816919 10.8580116,28.9113605 L10.1880465,28.2413954 L10.8580116,27.5714302 C11.028343,27.4010988 11.028343,27.1251628 10.8580116,26.9548314 Z" id="Path" fill="#034EA1"></path>
            <path d="M19.7010116,26.9548314 C19.5306802,26.7845 19.2547442,26.7845 19.0844128,26.9548314 L18.4144477,27.6247965 L17.7444826,26.9548314 C17.5741512,26.7845 17.2982151,26.7845 17.1278837,26.9548314 C16.9575523,27.1251628 16.9575523,27.4010988 17.1278837,27.5714302 L17.7978488,28.2413954 L17.1278837,28.9113605 C16.9575523,29.0816919 16.9575523,29.3576279 17.1278837,29.5279593 C17.2982791,29.6983547 17.5741454,29.6982965 17.7444826,29.5279593 L18.4144477,28.8579942 L19.0844128,29.5279593 C19.2548082,29.6983547 19.5306744,29.6982965 19.7010116,29.5279593 C19.871343,29.3576279 19.871343,29.0816919 19.7010116,28.9113605 L19.0310465,28.2413954 L19.7010116,27.5714302 C19.871343,27.4010988 19.871343,27.1251628 19.7010116,26.9548314 Z" id="Path" fill="#034EA1"></path>
            <path d="M28.5445814,26.9548314 C28.37425,26.7845 28.098314,26.7845 27.9279826,26.9548314 L27.2580175,27.6247965 L26.5880523,26.9548314 C26.4177209,26.7845 26.1417849,26.7845 25.9714535,26.9548314 C25.8011221,27.1251628 25.8011221,27.4010988 25.9714535,27.5714302 L26.6414186,28.2413954 L25.9714535,28.9113605 C25.8011221,29.0816919 25.8011221,29.3576279 25.9714535,29.5279593 C26.1418488,29.6983547 26.4177151,29.6982965 26.5880523,29.5279593 L27.2580175,28.8579942 L27.9279826,29.5279593 C28.0983779,29.6983547 28.3742442,29.6982965 28.5445814,29.5279593 C28.7149128,29.3576279 28.7149128,29.0816919 28.5445814,28.9113605 L27.8746163,28.2413954 L28.5445814,27.5714302 C28.7149128,27.4010988 28.7149128,27.1251628 28.5445814,26.9548314 Z" id="Path" fill="#034EA1"></path>
            <path d="M7.00484884,6.41862791 C7.48482558,6.41862791 7.8744593,6.02895931 7.8744593,5.54898256 C7.8744593,5.06900582 7.48482558,4.6793721 7.00484884,4.6793721 C6.52480233,4.6793721 6.12963372,5.06900582 6.12963372,5.54898256 C6.12963372,6.02895931 6.52480233,6.41862791 7.00484884,6.41862791 Z" id="Path" fill="#034EA1"></path>
            <path d="M10.2992558,6.41862791 C10.7792326,6.41862791 11.1688663,6.02895931 11.1688663,5.54898256 C11.1688663,5.06900582 10.7792326,4.6793721 10.2992558,4.6793721 C9.81927909,4.6793721 9.42397093,5.06900582 9.42397093,5.54898256 C9.42397093,6.02895931 9.81927909,6.41862791 10.2992558,6.41862791 Z" id="Path" fill="#034EA1"></path>
            <path d="M13.5936628,6.41862791 C14.0735698,6.41862791 14.4632035,6.02895931 14.4632035,5.54898256 C14.4632035,5.06900582 14.0735698,4.6793721 13.5936628,4.6793721 C13.1136163,4.6793721 12.7183779,5.06900582 12.7183779,5.54898256 C12.7183779,6.02895931 13.1136163,6.41862791 13.5936628,6.41862791 Z" id="Path" fill="#034EA1"></path>
            <path d="M13.0921802,23.0630581 L23.7372791,23.0630581 C23.9780116,23.0630581 24.1733256,22.8677442 24.1733256,22.6270116 C24.1733256,19.305564 21.5899768,16.6032674 18.4144477,16.6032674 C15.2394826,16.6032674 12.6561337,19.305564 12.6561337,22.6270116 C12.6561337,22.86775 12.8514477,23.0630581 13.0921802,23.0630581 Z" id="Shape" fill="#FFFFFF"></path>
            <path d="M18.4144477,17.4753605 C20.9699768,17.4753605 23.0729942,19.5536802 23.2836337,22.1909651 L13.5458314,22.1909651 C13.7564709,19.5536802 15.8594884,17.4753605 18.4144477,17.4753605 Z" id="Path" fill="#FFFFFF"></path>
            <path d="M18.4144477,10.425657 C19.8100233,10.425657 20.9449942,11.5609128 20.9449942,12.9562035 C20.9449942,14.3554709 19.8100233,15.4938488 18.4144477,15.4938488 C17.0194419,15.4938488 15.8844709,14.3554709 15.8844709,12.9562035 C15.8844709,11.5609128 17.0194419,10.425657 18.4144477,10.425657 Z" id="Shape" fill="#FFFFFF"></path>
            <path d="M18.4144477,16.3659419 C20.2909244,16.3659419 21.8170872,14.8363721 21.8170872,12.9562035 C21.8170872,11.0800116 20.2909244,9.55356396 18.4144477,9.55356396 C16.5385407,9.55356396 15.0123779,11.0800116 15.0123779,12.9562035 C15.0123779,14.8363721 16.5385407,16.3659419 18.4144477,16.3659419 Z" id="Path" fill="#FFFFFF"></path>
        </g>
    </g>
</svg>