<?xml version="1.0" encoding="UTF-8"?>
<svg width="44px" height="46px" viewBox="0 0 44 46" version="1.1" xmlns="http://www.w3.org/2000/svg" xmlns:xlink="http://www.w3.org/1999/xlink">
    <title>icons-content</title>
    <g id="icons-content" stroke="none" stroke-width="1" fill="none" fill-rule="evenodd">
        <g id="Group" stroke="#FC565B">
            <g transform="translate(0.142857, 0.000000)" id="Path" stroke-width="3">
                <path d="M25.7550869,0.0268555 L25.7550869,7.0268555 C25.7550869,8.1314249 26.6505165,9.0268555 27.7550869,9.0268555 L34.755024,9.0268555"></path>
                <path d="M34.7550259,18.2144127 L34.7550259,9.855279 C34.7550259,9.3248482 34.5443154,8.8161421 34.1692429,8.4410696 L26.3408738,0.6126471 C25.9658013,0.2375713 25.4570905,0.0268558 24.9266549,0.0268558 L2.7550259,0.0268558 C1.650456,0.0268558 0.7550259,0.9222864 0.7550259,2.0268558 L0.7550259,43.9731449 C0.7550259,45.0777134 1.650456,45.9731449 2.7550259,45.9731449 L32.7550259,45.9731449 C33.8595963,45.9731449 34.7550259,45.0777134 34.7550259,43.9731449 L34.7550259,25.0001106"></path>
            </g>
            <path d="M40.3001127,20 L37.1428571,16.5484266 L39.5061869,14.3866186 C40.1072084,13.8368479 41.0401057,13.878393 41.5898783,14.4794145 L42.7562399,15.7545012 C43.3060091,16.3555208 43.2644639,17.2884214 42.6634423,17.8381921 L40.3001127,20 Z" id="Path" stroke-width="2"></path>
            <polyline id="Path" stroke-width="2" points="40.1428571 19.8093018 29.9680832 28.9441024 24.2985474 31 24.1428571 30.832948 26.5775401 25.3061407 37.0614274 16"></polyline>
            <line x1="29.1428571" y1="29" x2="26.1428571" y2="26" id="Path" stroke-width="2"></line>
            <line x1="5.14285714" y1="22.5" x2="24.1428571" y2="22.5" id="Path" stroke-width="2"></line>
            <line x1="5.14285714" y1="41.5" x2="24.1428571" y2="41.5" id="Path" stroke-width="2"></line>
            <line x1="4.14285714" y1="29.5" x2="14.1428571" y2="29.5" id="Path" stroke-width="2"></line>
            <line x1="5.14285714" y1="34.5" x2="19.1428571" y2="34.5" id="Path" stroke-width="2"></line>
        </g>
    </g>
</svg>