<?xml version="1.0" encoding="UTF-8"?>
<svg width="38px" height="36px" viewBox="0 0 38 36" version="1.1" xmlns="http://www.w3.org/2000/svg" xmlns:xlink="http://www.w3.org/1999/xlink">
    <title>icons-lead-2</title>
    <g id="Symbols" stroke="none" stroke-width="1" fill="none" fill-rule="evenodd">
        <g id="icons-lead-2" transform="translate(-0.000000, -0.000000)" fill="#034EA1" fill-rule="nonzero">
            <path d="M10.6208758,12.0000147 C10.3565722,12.0018253 10.1205026,11.8340589 10.0339961,11.5829101 C9.94748959,11.3317613 10.0297917,11.0531044 10.2386029,10.8901564 L14.9985165,7.1328596 C15.2675287,6.92055587 15.6567555,6.96774627 15.867879,7.23826231 C16.0790025,7.50877835 16.0320744,7.90018111 15.7630623,8.11248484 L11.0031486,11.8697817 C10.8938592,11.9550804 10.7592177,12.0009398 10.6208758,12.0000147 Z" id="Path"></path>
            <path d="M24.3791242,12.0000147 C24.2407823,12.0009398 24.1061408,11.9550804 23.9968514,11.8697817 L19.2369377,8.11248484 C18.9679256,7.90018111 18.9209975,7.50877835 19.132121,7.23826231 C19.3432445,6.96774627 19.7324713,6.92055587 20.0014835,7.1328596 L24.7613971,10.8901564 C24.9702083,11.0531044 25.0525104,11.3317613 24.9660039,11.5829101 C24.8794974,11.8340589 24.6434278,12.0018253 24.3791242,12.0000147 L24.3791242,12.0000147 Z" id="Path"></path>
            <path d="M27.6886571,12 C27.5564627,11.9996777 27.4271498,11.9636284 27.3161065,11.8961419 C26.9965183,11.7022455 26.9039471,11.3015983 27.109134,11.0003662 L31.710824,4.32748585 C31.837273,4.11892291 32.075761,3.99307083 32.330846,4.00029516 C32.585931,4.00751948 32.8159417,4.14664004 32.9288288,4.36198129 C33.0417159,4.57732253 33.0190378,4.83370592 32.8698703,5.02852775 L28.2612812,11.7014081 C28.1359496,11.8852365 27.9207662,11.9974428 27.6886571,12 Z" id="Path"></path>
            <path d="M38,23.5 L38,24.5 C38,24.7761424 37.6665753,25 37.2552751,25 L21.7649979,25 C21.3587012,24.2681025 20.7609852,23.5908032 20,23 L37.2552751,23 C37.6665753,23 38,23.2238576 38,23.5 Z" id="Path"></path>
            <path d="M38,34.4981296 L38,35.4943888 C38,35.7694982 37.6763094,35.9925184 37.2770167,35.9925184 L19.2024353,35.9925184 C19.1357335,36.0024939 19.0667018,36.0024939 19,35.9925184 C20.0436515,35.4586697 20.9130964,34.7798702 21.5521309,34 L37.2770167,34 C37.6763094,34 38,34.2230202 38,34.4981296 Z" id="Path"></path>
            <path d="M38,30.75 L38,32.25 C38,32.6642136 37.6776128,33 37.279928,33 L22,33 C22.4254979,32.0525256 22.7003083,31.0393145 22.8136814,30 L37.279928,30 C37.6776128,30 38,30.3357864 38,30.75 Z" id="Path"></path>
            <path d="M38,26.75 L38,28.25 C38,28.6642136 37.5904263,29 37.0851915,29 L22.4482561,29 C22.4482561,28.8725 22.4482561,28.7525 22.4482561,28.625 C22.4493949,27.7371144 22.298504,26.8534932 22,26 L37.0851915,26 C37.5904263,26 38,26.3357864 38,26.75 Z" id="Path"></path>
            <circle id="Oval" cx="8.5" cy="13.5" r="2.5"></circle>
            <circle id="Oval" cx="17.5" cy="6.5" r="2.5"></circle>
            <circle id="Oval" cx="26.5" cy="13.5" r="2.5"></circle>
            <circle id="Oval" cx="33.5" cy="2.5" r="2.5"></circle>
            <path d="M5.94668864,28.8116262 C5.95043586,28.3843698 5.98800412,27.9580135 6.05906567,27.5362766 L5.94668864,27.5362766 C5.58160558,27.5362766 5.28564728,27.2507799 5.28564728,26.8986019 C5.28564728,26.5464238 5.58160558,26.2609271 5.94668864,26.2609271 L6.36975511,26.2609271 C6.44246966,26.0313642 6.52840504,25.808178 6.62095083,25.6232524 C5.85073056,25.4723809 5.29721135,24.8191067 5.29721135,24.0609492 C5.29721135,23.3027916 5.85073056,22.6495175 6.62095083,22.498646 L6.62095083,22.498646 C6.62095083,22.146468 6.91690913,21.8609712 7.2819922,21.8609712 C7.64707526,21.8609712 7.94303356,22.146468 7.94303356,22.498646 L8.60407493,22.498646 C8.72739984,22.5003209 8.84728208,22.5381278 8.94781644,22.6070507 C10.0988966,21.6341819 11.4973753,20.9739641 13,20.6940264 C10.9558679,18.1723664 7.40129476,17.3055821 4.36049685,18.5872797 C1.31969894,19.8689772 -0.435829892,22.9739716 0.0936281098,26.1340675 C0.623086112,29.2941633 3.30319989,31.7075991 6.60773,32 C6.17135671,30.9897241 5.94668864,29.9060918 5.94668864,28.8116262 L5.94668864,28.8116262 Z" id="Path"></path>
            <path d="M6.28248588,24 C6.12647323,24 6,24.2238576 6,24.5 C6,24.7761424 6.12647323,25 6.28248588,25 L6.59887006,25 C6.72286285,24.6547828 6.85674764,24.3210137 7,24 L6.28248588,24 Z" id="Path"></path>
            <path d="M14,22 C10.1340068,22 7,25.1340068 7,29 C7,32.8659932 10.1340068,36 14,36 C17.8659932,36 21,32.8659932 21,29 C21,25.1340068 17.8659932,22 14,22 L14,22 Z M13.6818182,28.3636364 L14.3181818,28.3636364 C15.1968166,28.2757729 15.9803183,28.9168197 16.0681818,29.7954545 C16.1560453,30.6740894 15.5149985,31.4575911 14.6363636,31.5454545 L14.6363636,31.5454545 C14.6363636,31.8969085 14.3514539,32.1818182 14,32.1818182 L14,32.1818182 C13.6485461,32.1818182 13.3636364,31.8969085 13.3636364,31.5454545 L12.7272727,31.5454545 C12.3758188,31.5454545 12.0909091,31.2605448 12.0909091,30.9090909 C12.0909091,30.557637 12.3758188,30.2727273 12.7272727,30.2727273 L14.3181818,30.2727273 C14.4939088,30.2727273 14.6363636,30.1302724 14.6363636,29.9545455 C14.6363636,29.7788185 14.4939088,29.6363636 14.3181818,29.6363636 L13.6818182,29.6363636 C13.1134411,29.6932013 12.5579165,29.442496 12.224505,28.9786859 C11.8910936,28.5148757 11.8304485,27.9084246 12.0654141,27.3877768 C12.3003798,26.8671289 12.7952593,26.5113832 13.3636364,26.4545455 L13.3636364,26.4545455 C13.3636364,26.1030915 13.6485461,25.8181818 14,25.8181818 C14.3514539,25.8181818 14.6363636,26.1030915 14.6363636,26.4545455 L15.2727273,26.4545455 C15.6241812,26.4545455 15.9090909,26.7394552 15.9090909,27.0909091 C15.9090909,27.442363 15.6241812,27.7272727 15.2727273,27.7272727 L13.6818182,27.7272727 C13.5060912,27.7272727 13.3636364,27.8697276 13.3636364,28.0454545 C13.3636364,28.2211815 13.5060912,28.3636364 13.6818182,28.3636364 Z" id="Shape"></path>
        </g>
    </g>
</svg>