<?xml version="1.0" encoding="UTF-8"?>
<svg width="48px" height="43px" viewBox="0 0 48 43" version="1.1" xmlns="http://www.w3.org/2000/svg" xmlns:xlink="http://www.w3.org/1999/xlink">
    <title>icons-bb-1</title>
    <g id="icons-bb-1" stroke="none" stroke-width="1" fill="none" fill-rule="evenodd">
        <g id="noun_visibility_2965932" fill="#FC565B" fill-rule="nonzero">
            <path d="M47.0910867,28.4914934 C43.2509935,24.9470699 34.3581461,18 24,18 C13.6418539,18 4.74900649,24.9470699 0.908913299,28.4914934 C0.327920548,29.0184279 0,29.7430631 0,30.5 C0,31.2569369 0.327920548,31.9815721 0.908913299,32.5085066 C4.74900649,36.0529301 13.6418539,43 24,43 C34.3581461,43 43.2509935,36.0529301 47.0910867,32.5085066 C47.6720795,31.9815721 48,31.2569369 48,30.5 C48,29.7430631 47.6720795,29.0184279 47.0910867,28.4914934 Z M24,38.5576573 C19.228144,38.5576573 15.3597903,34.9395412 15.3597903,30.4763705 C15.3597903,26.0131998 19.228144,22.3950851 24,22.3950851 C28.771856,22.3950851 32.6402112,26.0131998 32.6402112,30.4763705 C32.6415512,32.6200451 31.7316768,34.6762807 30.1110323,36.1920878 C28.4903877,37.7078949 26.2919371,38.5589107 24,38.5576573 Z" id="Shape"></path>
            <circle id="Oval" cx="24.5" cy="29.5" r="4.5"></circle>
            <path d="M9.99698012,13.3721909 C10.3990092,14.3523813 11.350057,14.9943158 12.4080498,14.9996053 C12.7515997,15.0060181 13.0921188,14.9342168 13.4039264,14.7896163 C14.7113517,14.2147475 15.3350959,12.7107726 14.8191195,11.3772959 L11.9363188,4.39516346 C11.3036291,3.20069763 9.86849473,2.6830549 8.62072318,3.19925177 C7.37295162,3.71544864 6.72085379,5.09656889 7.11417941,6.39005845 L9.99698012,13.3721909 Z" id="Path"></path>
            <path d="M34.6062394,14.7931234 C34.913692,14.9353134 35.2494552,15.0059178 35.5882068,14.9996119 C36.6314229,14.9944106 37.5691876,14.3631769 37.9656016,13.3993261 L40.8081389,6.53358379 C41.3434014,5.22213385 40.7207153,3.72482577 39.4127115,3.17814584 C38.09993,2.66997029 36.6192963,3.2842843 36.0533493,4.57194314 L33.210812,11.4376854 C32.936069,12.0660334 32.9296186,12.7790924 33.1929494,13.4122965 C33.4562803,14.0455007 33.9666385,14.544136 34.6062394,14.7931234 L34.6062394,14.7931234 Z" id="Path"></path>
            <path d="M24,13 C25.1045695,13 26,11.8073159 26,10.3360656 L26,2.66393443 C26,1.19268407 25.1045695,0 24,0 C22.8954305,0 22,1.19268407 22,2.66393443 L22,10.3360656 C22.0171498,11.7977495 22.9026127,12.977157 24,13 L24,13 Z" id="Path"></path>
        </g>
    </g>
</svg>