<?xml version="1.0" encoding="UTF-8"?>
<svg width="44px" height="44px" viewBox="0 0 44 44" version="1.1" xmlns="http://www.w3.org/2000/svg" xmlns:xlink="http://www.w3.org/1999/xlink">
    <title>icons-bb-3</title>
    <g id="icons-bb-3" stroke="none" stroke-width="1" fill="none" fill-rule="evenodd">
        <g id="noun_dollar_1111239" fill="#FC565B" fill-rule="nonzero">
            <g id="Group">
                <path d="M22.0020465,0.333581395 C10.0550233,0.333581395 0.334604651,10.0545116 0.334604651,22.0030698 C0.334604651,33.9495814 10.0550233,43.6674419 22.0020465,43.6674419 C33.9475349,43.6674419 43.6653953,33.9495814 43.6653953,22.0030698 C43.6653953,10.0545116 33.9490698,0.333581395 22.0020465,0.333581395 Z M23.1368372,32.5661395 L23.1368372,33.1964651 C23.1368372,33.915814 22.5510233,34.5026512 21.8296279,34.5026512 C21.1087442,34.5026512 20.5244651,33.9163256 20.5244651,33.1964651 L20.5244651,32.5799535 C17.6573023,32.3410233 15.554,31.2517674 14.4877674,29.5260465 C13.706,28.2587442 14.6596744,26.6220465 16.1495349,26.6220465 L16.341907,26.6220465 C17.0684186,26.6220465 17.7222791,27.0405581 18.0584186,27.6852093 C18.4917674,28.5145581 19.3717674,29.1080465 20.5239535,29.3208837 L20.5239535,23.7492558 L19.3840465,23.4816744 C15.9576744,22.686093 14.124,20.7106977 14.124,17.7519535 C14.124,14.3726512 16.4851628,12.1629302 20.5239535,11.7224186 L20.5239535,10.8081395 C20.5239535,10.0857209 21.1082326,9.50297674 21.8291163,9.50297674 C22.5505116,9.50297674 23.1363256,10.0867442 23.1363256,10.8081395 L23.1363256,11.7224186 C25.6796279,12.0073953 27.618186,13.1084186 28.6516744,14.7533023 C29.4457209,16.0134419 28.4802791,17.652186 26.9909302,17.652186 C26.2608372,17.652186 25.5962326,17.2393023 25.2693023,16.5849302 C24.8850698,15.8123721 24.1135349,15.2337209 23.1363256,15.0280465 L23.1363256,20.3300465 L24.415907,20.5817674 C28.0571628,21.3773488 29.8754885,23.267814 29.8754885,26.3524186 C29.876,29.8990233 27.4473023,32.1215349 23.1368372,32.5661395 Z" id="Shape"></path>
                <path d="M23.1368372,24.2450233 L23.1368372,29.3730698 C24.8513023,29.1919535 25.8535814,28.248 25.8535814,26.8077674 C25.8535814,25.4862326 24.9868837,24.662 23.1368372,24.2450233 Z" id="Path"></path>
                <path d="M18.2344186,17.397907 C18.2344186,18.5562326 19.0274419,19.3722791 20.5249767,19.7810698 L20.5249767,15.0065581 C19.1706977,15.2178605 18.2344186,16.1572093 18.2344186,17.397907 Z" id="Path"></path>
            </g>
        </g>
    </g>
</svg>