<?xml version="1.0" encoding="UTF-8"?>
<svg width="49px" height="31px" viewBox="0 0 49 31" version="1.1" xmlns="http://www.w3.org/2000/svg" xmlns:xlink="http://www.w3.org/1999/xlink">
    <title>icon-lgp</title>
    <g id="icon-lgp" stroke="none" stroke-width="1" fill="none" fill-rule="evenodd">
        <g id="noun_Lead-Generation_2077824" fill="#FC565B" fill-rule="nonzero">
            <g id="Group">
                <polygon id="Path" points="48.7039583 11.51 42.783125 10.27 44.314375 12.88 20.8454167 26.23 11.668125 22.24 0 28.48 0.98 30.23 11.76 24.47 20.9679167 28.48 45.325 14.61 46.825625 17.15"></polygon>
                <path d="M14.8122917,19.17 C14.8131325,18.7041158 14.8541113,18.2391322 14.9347917,17.78 C15.4336151,18.8432809 15.691333,19.999813 15.6902083,21.17 L15.6902083,21.17 C15.691333,19.999813 15.4336151,18.8432809 14.9347917,17.78 C14.854063,18.2391261 14.8130839,18.7041137 14.8122917,19.17 L14.8122917,19.17 Z" id="Path"></path>
                <path d="M14.9347917,17.78 C14.1916095,16.1590689 12.8756236,14.8557346 11.2291667,14.11 C13.1169475,12.8985023 13.9684524,10.6163742 13.3231407,8.49791577 C12.677829,6.37945735 10.6889031,4.92760834 8.43208333,4.92760834 C6.17526355,4.92760834 4.1863377,6.37945735 3.541026,8.49791577 C2.89571431,10.6163742 3.74721916,12.8985023 5.635,14.11 C2.86957483,15.4081268 1.13061296,18.1665026 1.18416667,21.17 L1.18416667,25.42 L11.7089583,19.5 L15.12875,21 L15.12875,21 L20.7433333,23.35 L28.389375,19.11 L29.0222917,18.7 L41.0375,12.04 C40.3321378,11.2048694 39.4419325,10.538017 38.434375,10.09 C40.3245771,8.8801084 41.1786658,6.59740267 40.5343243,4.47750747 C39.8899829,2.35761227 37.9003441,0.90433697 35.6423958,0.90433697 C33.3844476,0.90433697 31.3948088,2.35761227 30.7504673,4.47750747 C30.1061259,6.59740267 30.9602146,8.8801084 32.8504167,10.09 C30.535217,11.1964179 28.9350454,13.3601886 28.5833333,15.86 C27.9531795,14.164627 26.6390122,12.7977242 24.9491667,12.08 C26.8247959,10.8605113 27.6633794,8.58131309 27.0132273,6.47005969 C26.3630753,4.35880628 24.3777284,2.91409374 22.1265625,2.91409374 C19.8753966,2.91409374 17.8900497,4.35880628 17.2398977,6.47005969 C16.5897456,8.58131309 17.4283291,10.8605113 19.3039583,12.08 C16.9922408,13.151898 15.371668,15.2748047 14.975625,17.75" id="Path"></path>
            </g>
        </g>
    </g>
</svg>