<?xml version="1.0" encoding="UTF-8"?>
<svg width="39px" height="36px" viewBox="0 0 39 36" version="1.1" xmlns="http://www.w3.org/2000/svg" xmlns:xlink="http://www.w3.org/1999/xlink">
    <title>icons-gmb-1</title>
    <g id="icons-gmb-1" stroke="none" stroke-width="1" fill="none" fill-rule="evenodd">
        <g id="noun_web-account_3216725" fill-rule="nonzero">
            <g id="Group" transform="translate(0.162791, 0.000000)">
                <path d="M2.85417442,35.3421919 L34.9365233,35.3421919 C36.2696453,35.3421919 37.3546512,34.2574709 37.3546512,32.924064 C37.3546512,24.2383256 37.3546512,11.7134767 37.3546512,2.54104651 C37.3546512,1.20763953 36.2696453,0.122918605 34.9365233,0.122918605 L2.85417442,0.122918605 C1.52105233,0.122918605 0.436046512,1.20764535 0.436046512,2.54105233 C0.436046512,11.710907 0.436046512,24.235564 0.436046512,32.9240698 C0.436046512,34.2574709 1.52105233,35.3421919 2.85417442,35.3421919 Z" id="Shape" fill="#FC565B"></path>
                <path d="M34.9365233,34.4700988 L2.85417442,34.4700988 C2.00195349,34.4700988 1.30813953,33.7765698 1.30813953,32.924064 L1.30813953,5.86562209 L4.73689535,5.86562209 C4.92823256,5.86562209 5.09743023,5.74099419 5.15363953,5.55817442 L5.56583721,4.22164535 C5.63397093,3.99340116 5.85142442,3.83414535 6.09443023,3.83414535 L15.315564,3.83414535 C15.5591395,3.83414535 15.776593,3.99312209 15.8452907,4.22533721 L16.2563547,5.55817442 C16.312564,5.74099419 16.4817616,5.86562209 16.6730988,5.86562209 L36.4825581,5.86562209 L36.4825581,32.9240698 C36.4825581,33.7765698 35.7887442,34.4700988 34.9365233,34.4700988 Z" id="Path" fill="#FC565B"></path>
                <path d="M1.30813953,2.54105233 C1.30813953,1.68854651 2.00195349,0.995017442 2.85417442,0.995017442 L34.9365233,0.995017442 C35.7887442,0.995017442 36.4825581,1.68854651 36.4825581,2.54105233 L36.4825581,4.99352907 L16.9950291,4.99352907 L16.6799186,3.97239535 C16.503343,3.37765698 15.9418198,2.96205233 15.3155698,2.96205233 L6.09443023,2.96205233 C5.46875,2.96205233 4.9077907,3.37737791 4.73121512,3.96813953 L4.41496512,4.99352907 L1.30813953,4.99352907 L1.30813953,2.54105233 Z" id="Path" fill="#FC565B"></path>
                <path d="M31.4430407,25.3034709 L6.25851744,25.3034709 C5.42219186,25.3034709 4.74200581,25.983657 4.74200581,26.8196977 L4.74200581,29.9089302 C4.74200581,30.7449709 5.42219186,31.425157 6.25851744,31.425157 L31.4430407,31.425157 C32.2793663,31.425157 32.9595523,30.7449709 32.9595523,29.9089302 L32.9595523,26.8196977 C32.9595523,25.983657 32.2793663,25.3034709 31.4430407,25.3034709 Z M32.0874593,29.9089302 C32.0874593,30.2640698 31.7984651,30.553064 31.4430407,30.553064 L6.25851744,30.553064 C5.90309302,30.553064 5.61409884,30.2640698 5.61409884,29.9089302 L5.61409884,26.8196977 C5.61409884,26.4645581 5.90309302,26.175564 6.25851744,26.175564 L31.4430407,26.175564 C31.7984651,26.175564 32.0874593,26.4645581 32.0874593,26.8196977 L32.0874593,29.9089302 Z" id="Shape" fill="#FC565B"></path>
                <path d="M11.2940581,27.07775 C11.1237267,26.9074186 10.8477907,26.9074186 10.6774593,27.07775 L10.0074942,27.7477151 L9.33752907,27.07775 C9.16719767,26.9074186 8.89126163,26.9074186 8.72093023,27.07775 C8.55059884,27.2480814 8.55059884,27.5240174 8.72093023,27.6943488 L9.39089535,28.364314 L8.72093023,29.0342791 C8.55059884,29.2046105 8.55059884,29.4805465 8.72093023,29.6508779 C8.89131977,29.8212733 9.16719186,29.8212151 9.33752907,29.6508779 L10.0074942,28.9809128 L10.6774593,29.6508779 C10.8478488,29.8212733 11.1237209,29.8212151 11.2940581,29.6508779 C11.4643895,29.4805465 11.4643895,29.2046105 11.2940581,29.0342791 L10.624093,28.364314 L11.2940581,27.6943488 C11.4643895,27.5240174 11.4643895,27.2480814 11.2940581,27.07775 Z" id="Path" fill="#FC565B"></path>
                <path d="M20.1370581,27.07775 C19.9667267,26.9074186 19.6907907,26.9074186 19.5204593,27.07775 L18.8504942,27.7477151 L18.1805291,27.07775 C18.0101977,26.9074186 17.7342616,26.9074186 17.5639302,27.07775 C17.3935988,27.2480814 17.3935988,27.5240174 17.5639302,27.6943488 L18.2338953,28.364314 L17.5639302,29.0342791 C17.3935988,29.2046105 17.3935988,29.4805465 17.5639302,29.6508779 C17.7343256,29.8212733 18.0101919,29.8212151 18.1805291,29.6508779 L18.8504942,28.9809128 L19.5204593,29.6508779 C19.6908547,29.8212733 19.9667209,29.8212151 20.1370581,29.6508779 C20.3073895,29.4805465 20.3073895,29.2046105 20.1370581,29.0342791 L19.467093,28.364314 L20.1370581,27.6943488 C20.3073895,27.5240174 20.3073895,27.2480814 20.1370581,27.07775 Z" id="Path" fill="#FC565B"></path>
                <path d="M28.9806279,27.07775 C28.8102965,26.9074186 28.5343605,26.9074186 28.3640291,27.07775 L27.694064,27.7477151 L27.0240988,27.07775 C26.8537674,26.9074186 26.5778314,26.9074186 26.4075,27.07775 C26.2371686,27.2480814 26.2371686,27.5240174 26.4075,27.6943488 L27.0774651,28.364314 L26.4075,29.0342791 C26.2371686,29.2046105 26.2371686,29.4805465 26.4075,29.6508779 C26.5778953,29.8212733 26.8537616,29.8212151 27.0240988,29.6508779 L27.694064,28.9809128 L28.3640291,29.6508779 C28.5344244,29.8212733 28.8102907,29.8212151 28.9806279,29.6508779 C29.1509593,29.4805465 29.1509593,29.2046105 28.9806279,29.0342791 L28.3106628,28.364314 L28.9806279,27.6943488 C29.1509593,27.5240174 29.1509593,27.2480814 28.9806279,27.07775 Z" id="Path" fill="#FC565B"></path>
                <path d="M7.44089535,6.54154651 C7.92087209,6.54154651 8.31050581,6.15187791 8.31050581,5.67190116 C8.31050581,5.19192442 7.92087209,4.8022907 7.44089535,4.8022907 C6.96084884,4.8022907 6.56568023,5.19192442 6.56568023,5.67190116 C6.56568023,6.15187791 6.96084884,6.54154651 7.44089535,6.54154651 Z" id="Path" fill="#FC565B"></path>
                <path d="M10.7353023,6.54154651 C11.2152791,6.54154651 11.6049128,6.15187791 11.6049128,5.67190116 C11.6049128,5.19192442 11.2152791,4.8022907 10.7353023,4.8022907 C10.2553256,4.8022907 9.86001744,5.19192442 9.86001744,5.67190116 C9.86001744,6.15187791 10.2553256,6.54154651 10.7353023,6.54154651 Z" id="Path" fill="#FC565B"></path>
                <path d="M14.0297093,6.54154651 C14.5096163,6.54154651 14.89925,6.15187791 14.89925,5.67190116 C14.89925,5.19192442 14.5096163,4.8022907 14.0297093,4.8022907 C13.5496628,4.8022907 13.1544244,5.19192442 13.1544244,5.67190116 C13.1544244,6.15187791 13.5496628,6.54154651 14.0297093,6.54154651 Z" id="Path" fill="#FC565B"></path>
                <path d="M13.5282267,23.1859767 L24.1733256,23.1859767 C24.4140581,23.1859767 24.6093721,22.9906628 24.6093721,22.7499302 C24.6093721,19.4284826 22.0260233,16.726186 18.8504942,16.726186 C15.6755291,16.726186 13.0921802,19.4284826 13.0921802,22.7499302 C13.0921802,22.9906686 13.2874942,23.1859767 13.5282267,23.1859767 Z" id="Shape" fill="#FFFFFF"></path>
                <path d="M18.8504942,17.5982791 C21.4060233,17.5982791 23.5090407,19.6765988 23.7196802,22.3138837 L13.9818779,22.3138837 C14.1925174,19.6765988 16.2955349,17.5982791 18.8504942,17.5982791 Z" id="Path" fill="#FFFFFF"></path>
                <path d="M18.8504942,10.5485756 C20.2460698,10.5485756 21.3810407,11.6838314 21.3810407,13.0791221 C21.3810407,14.4783895 20.2460698,15.6167674 18.8504942,15.6167674 C17.4554884,15.6167674 16.3205174,14.4783895 16.3205174,13.0791221 C16.3205174,11.6838314 17.4554884,10.5485756 18.8504942,10.5485756 Z" id="Shape" fill="#FFFFFF"></path>
                <path d="M18.8504942,16.4888605 C20.7269709,16.4888605 22.2531337,14.9592907 22.2531337,13.0791221 C22.2531337,11.2029302 20.7269709,9.67648256 18.8504942,9.67648256 C16.9745872,9.67648256 15.4484244,11.2029302 15.4484244,13.0791221 C15.4484244,14.9592907 16.9745872,16.4888605 18.8504942,16.4888605 Z" id="Path" fill="#FFFFFF"></path>
            </g>
        </g>
    </g>
</svg>