<?xml version="1.0" encoding="UTF-8"?>
<svg width="38px" height="37px" viewBox="0 0 38 37" version="1.1" xmlns="http://www.w3.org/2000/svg" xmlns:xlink="http://www.w3.org/1999/xlink">
    <title>icons-seo-1</title>
    <g id="icons-seo-1" stroke="none" stroke-width="1" fill="none" fill-rule="evenodd">
        <g id="noun_Viral-Campaign_898363" fill-rule="nonzero">
            <g id="Group" transform="translate(0.622517, 0.000000)">
                <g transform="translate(3.642384, 3.973510)" fill="#FC565B" id="Path">
                    <path d="M4.70198675,2.31788079 C4.70198675,2.91390728 4.47019868,3.47682119 4.0397351,3.87417219 C3.60927152,4.30463576 3.04635762,4.50331126 2.45033113,4.50331126 C1.88741722,4.50331126 1.29139073,4.27152318 0.860927152,3.87417219 C0.430463576,3.44370861 0.198675497,2.8807947 0.198675497,2.31788079 C0.198675497,1.7218543 0.430463576,1.1589404 0.860927152,0.761589404 C1.7218543,-0.0993377483 3.14569536,-0.0993377483 4.00662252,0.761589404 C4.47019868,1.19205298 4.70198675,1.75496689 4.70198675,2.31788079 Z"></path>
                    <path d="M4.70198675,25.6291391 C4.70198675,26.2251656 4.47019868,26.7880795 4.0397351,27.1854305 C3.60927152,27.615894 3.04635762,27.8145695 2.45033113,27.8145695 C1.88741722,27.8145695 1.29139073,27.5827815 0.860927152,27.1854305 C0.430463576,26.7549669 0.198675497,26.192053 0.198675497,25.6291391 C0.198675497,25.0331126 0.430463576,24.4701987 0.860927152,24.0728477 C1.7218543,23.2119205 3.14569536,23.2119205 4.00662252,24.0728477 C4.47019868,24.4701987 4.70198675,25.0331126 4.70198675,25.6291391 Z"></path>
                    <path d="M28.807947,26.0596026 C28.807947,26.6556291 28.5761589,27.218543 28.1456954,27.615894 C27.7152318,28.0463576 27.1523179,28.2450331 26.5562914,28.2450331 C25.9933775,28.2450331 25.397351,28.0463576 24.9668874,27.615894 C24.5364238,27.1854305 24.3046358,26.6225166 24.3046358,26.0596026 C24.3046358,25.4635762 24.5364238,24.9006623 24.9668874,24.5033113 C25.8278146,23.6423841 27.2516556,23.6423841 28.1456954,24.5033113 C28.5761589,24.9006623 28.807947,25.4635762 28.807947,26.0596026 Z"></path>
                    <path d="M28.807947,2.41721854 C28.807947,3.01324503 28.5761589,3.57615894 28.1456954,3.97350993 C27.7152318,4.40397351 27.1523179,4.60264901 26.5562914,4.60264901 C25.9933775,4.60264901 25.397351,4.40397351 24.9668874,3.97350993 C24.5364238,3.54304636 24.3046358,2.98013245 24.3046358,2.41721854 C24.3046358,1.82119205 24.5364238,1.25827815 24.9668874,0.860927152 C25.8278146,-2.30371278e-15 27.2516556,-2.30371278e-15 28.1456954,0.860927152 C28.5761589,1.25827815 28.807947,1.82119205 28.807947,2.41721854 Z"></path>
                </g>
                <path d="M29.5695364,18.807947 C29.7019868,19.5033113 30,20.1324503 30.5298013,20.6291391 C31.192053,21.2913907 32.0860927,21.6225166 32.9801325,21.6225166 C33.8741722,21.6225166 34.7350993,21.2913907 35.4304636,20.6291391 C36.0927152,19.9668874 36.4569536,19.1390728 36.4569536,18.2119205 C36.4569536,17.2847682 36.0927152,16.4569536 35.4304636,15.794702 C34.0728477,14.4701987 31.8874172,14.4701987 30.5629139,15.794702 C30.0662252,16.2913907 29.7350993,16.9205298 29.602649,17.615894 L27.4172185,17.615894 C27.2847682,15.6291391 26.4900662,13.7748344 25.1655629,12.2516556 L28.1788079,9.27152318 C28.013245,9.17218543 27.8807947,9.0397351 27.7152318,8.90728477 C27.5496689,8.74172185 27.4172185,8.57615894 27.3178808,8.41059603 L24.3046358,11.3907285 C22.781457,10.0662252 20.8940397,9.30463576 18.8410596,9.17218543 L18.8410596,7.05298013 C19.5033113,6.95364238 20.1655629,6.62251656 20.6622517,6.12582781 C21.3245033,5.46357616 21.6887417,4.63576159 21.6887417,3.70860927 C21.6887417,2.78145695 21.3245033,1.9205298 20.6622517,1.29139073 C19.3046358,-0.0331125828 17.1192053,-0.0331125828 15.794702,1.29139073 C15.1324503,1.9205298 14.7682119,2.78145695 14.7682119,3.70860927 C14.7682119,4.63576159 15.1324503,5.46357616 15.794702,6.12582781 C16.3245033,6.62251656 16.9536424,6.95364238 17.615894,7.05298013 L17.615894,9.17218543 C15.5960265,9.30463576 13.6754967,10.0662252 12.1523179,11.3907285 L9.0397351,8.31125828 C8.90728477,8.47682119 8.77483444,8.64238411 8.64238411,8.80794702 C8.50993377,8.94039735 8.34437086,9.07284768 8.21192053,9.17218543 L11.3245033,12.218543 C10,13.7086093 9.20529801,15.5960265 9.07284768,17.5827815 L6.88741722,17.5827815 C6.75496689,16.8874172 6.42384106,16.2582781 5.92715232,15.7615894 C5.26490066,15.0993377 4.37086093,14.7682119 3.47682119,14.7682119 C2.58278146,14.7682119 1.7218543,15.0993377 1.02649007,15.7615894 C0.364238411,16.4238411 7.05837155e-15,17.2516556 7.05837155e-15,18.1788079 C7.05837155e-15,19.1059603 0.364238411,19.9668874 1.02649007,20.5960265 C1.68874172,21.2582781 2.58278146,21.589404 3.47682119,21.589404 C4.37086093,21.589404 5.23178808,21.2582781 5.92715232,20.5960265 C6.42384106,20.0993377 6.75496689,19.4701987 6.88741722,18.7748344 L9.07284768,18.7748344 C9.20529801,20.7615894 10,22.615894 11.3245033,24.1390728 L8.50993377,26.9205298 C8.57615894,26.9536424 8.60927152,27.0198675 8.67549669,27.0529801 C8.90728477,27.2847682 9.13907285,27.5496689 9.27152318,27.8476821 L12.1854305,24.9668874 C13.7086093,26.2913907 15.5960265,27.0529801 17.6490066,27.1854305 L17.6490066,29.3046358 C16.986755,29.4370861 16.3245033,29.7350993 15.8278146,30.2317881 C15.1655629,30.8609272 14.8013245,31.7218543 14.8013245,32.6490066 C14.8013245,33.5761589 15.1655629,34.4039735 15.8278146,35.0662252 C16.4900662,35.7284768 17.384106,36.0596026 18.2781457,36.0596026 C19.1721854,36.0596026 20.0331126,35.7284768 20.7284768,35.0662252 C21.3907285,34.4039735 21.7549669,33.5761589 21.7549669,32.6490066 C21.7549669,31.7218543 21.3907285,30.8609272 20.7284768,30.2317881 C20.1986755,29.7350993 19.5695364,29.4039735 18.9072848,29.3046358 L18.9072848,27.1854305 C20.9271523,27.0529801 22.8476821,26.2913907 24.3708609,24.9668874 L27.384106,27.9470199 C27.5165563,27.781457 27.6490066,27.615894 27.781457,27.4503311 C27.9139073,27.3178808 28.0794702,27.1854305 28.2450331,27.0860927 L25.2317881,24.1059603 C26.5562914,22.615894 27.3509934,20.7284768 27.4834437,18.7417219 L29.5695364,18.7417219 L29.5695364,18.807947 Z M32.9801325,16.0264901 C33.5430464,16.0264901 34.1390728,16.2582781 34.5695364,16.6887417 C35,17.1192053 35.2317881,17.6490066 35.2317881,18.2450331 C35.2317881,18.8410596 35,19.3708609 34.5695364,19.8013245 C33.6754967,20.6622517 32.2516556,20.6622517 31.3907285,19.8013245 C31.3576159,19.7682119 31.3245033,19.7019868 31.2582781,19.6688742 C30.9271523,19.2715232 30.7284768,18.7748344 30.7284768,18.2450331 C30.7284768,17.6821192 30.9271523,17.1854305 31.2913907,16.7880795 C31.3245033,16.7549669 31.3576159,16.7218543 31.3576159,16.6887417 C31.8211921,16.2251656 32.384106,16.0264901 32.9801325,16.0264901 Z M1.22516556,18.2119205 C1.22516556,17.615894 1.45695364,17.0860927 1.88741722,16.6556291 C1.95364238,16.589404 1.98675497,16.5562914 2.05298013,16.4900662 C2.45033113,16.1589404 2.98013245,15.9933775 3.47682119,15.9933775 C4.0397351,15.9933775 4.63576159,16.2251656 5.06622517,16.6556291 C5.49668874,17.0860927 5.72847682,17.615894 5.72847682,18.2119205 C5.72847682,18.807947 5.49668874,19.3377483 5.06622517,19.7682119 C4.33774834,20.4966887 3.21192053,20.5960265 2.35099338,20.0993377 C2.18543046,20 2.01986755,19.9006623 1.88741722,19.7682119 C1.45695364,19.3377483 1.22516556,18.807947 1.22516556,18.2119205 Z M16.6225166,5.23178808 C16.192053,4.8013245 15.9602649,4.27152318 15.9602649,3.67549669 C15.9602649,3.0794702 16.192053,2.54966887 16.6225166,2.1192053 C16.7880795,1.98675497 16.9536424,1.85430464 17.1192053,1.75496689 C17.4503311,1.55629139 17.8476821,1.49006623 18.2119205,1.49006623 C18.6754967,1.49006623 19.1059603,1.62251656 19.5033113,1.88741722 C19.602649,1.95364238 19.7019868,2.05298013 19.8013245,2.1192053 C19.8013245,2.1192053 19.8013245,2.1192053 19.8013245,2.1192053 C20.2317881,2.51655629 20.4635762,3.0794702 20.4635762,3.67549669 C20.4635762,4.27152318 20.2317881,4.8013245 19.8013245,5.23178808 C19.5364238,5.49668874 19.205298,5.69536424 18.8410596,5.79470199 C18.0794702,6.02649007 17.218543,5.82781457 16.6225166,5.23178808 Z M19.8013245,31.192053 C20.2317881,31.6225166 20.4635762,32.1523179 20.4635762,32.7483444 C20.4635762,33.3443709 20.2317881,33.8741722 19.8013245,34.3046358 C19.0728477,35.0331126 17.9139073,35.1324503 17.0529801,34.6357616 C16.8874172,34.5364238 16.7549669,34.4370861 16.6225166,34.3046358 C16.192053,33.8741722 15.9602649,33.3443709 15.9602649,32.7483444 C15.9602649,32.2516556 16.1258278,31.7549669 16.4569536,31.3907285 C16.5231788,31.3245033 16.5562914,31.2582781 16.6225166,31.2251656 C16.8874172,30.9602649 17.1854305,30.794702 17.5165563,30.6953642 C17.7483444,30.6291391 17.9801325,30.5960265 18.2119205,30.5960265 C18.3443709,30.5960265 18.5099338,30.5960265 18.6423841,30.6291391 C19.0728477,30.6622517 19.4701987,30.8609272 19.8013245,31.192053 Z" id="Shape" fill="#FC565B"></path>
                <path d="M23.8741722,23.7748344 C22.3509934,25.2649007 20.3642384,26.0927152 18.2119205,26.0927152 C16.0596026,26.0927152 14.0728477,25.2649007 12.5496689,23.7748344 C11.0596026,22.2847682 10.1986755,20.3311258 10.1986755,18.2119205 C10.1986755,16.1258278 11.0264901,14.1390728 12.5496689,12.6490066 C14.0728477,11.1589404 16.0596026,10.3311258 18.2119205,10.3311258 C20.3311258,10.3311258 22.3509934,11.1589404 23.8741722,12.6490066 C25.3642384,14.1390728 26.2251656,16.0927152 26.2251656,18.2119205 C26.192053,20.2980132 25.3642384,22.2847682 23.8741722,23.7748344 Z" id="Path" fill="#FFFFFF"></path>
                <path d="M19.1721854,19.0066225 C19.4039735,18.7748344 19.5364238,18.4768212 19.5364238,18.1456954 C19.5364238,17.8145695 19.4039735,17.5165563 19.1721854,17.2847682 C18.9403974,17.0529801 18.6092715,16.9205298 18.2781457,16.9205298 C17.9470199,16.9205298 17.615894,17.0529801 17.384106,17.2847682 C17.1523179,17.5165563 17.0198675,17.8145695 17.0198675,18.1456954 C17.0198675,18.4768212 17.1523179,18.7748344 17.384106,19.0066225 C17.8807947,19.5033113 18.6754967,19.5033113 19.1721854,19.0066225 Z" id="Path" fill="#FC565B"></path>
                <path d="M11.589404,17.3178808 L11.5231788,17.384106 L12.384106,18.2450331 L12.4503311,18.1788079 C12.9139073,17.7483444 13.410596,17.3509934 13.9403974,17.0529801 C13.8410596,17.4172185 13.7748344,17.781457 13.7748344,18.1456954 C13.7748344,19.3377483 14.2384106,20.4635762 15.0993377,21.2913907 C15.9602649,22.1192053 17.0860927,22.5827815 18.3112583,22.5827815 C19.5033113,22.5827815 20.6622517,22.1192053 21.5231788,21.2913907 C22.384106,20.4635762 22.8476821,19.3377483 22.8476821,18.1456954 C22.8476821,17.8145695 22.8145695,17.4834437 22.7152318,17.1523179 C23.2119205,17.4503311 23.6754967,17.8145695 24.0728477,18.2450331 L24.9337748,17.384106 C21.2582781,13.7417219 15.2980132,13.7086093 11.589404,17.3178808 Z M21.0264901,16.3576159 C21.3907285,16.8874172 21.589404,17.5165563 21.589404,18.1456954 C21.589404,19.0066225 21.2582781,19.8344371 20.6291391,20.4304636 C20,21.0596026 19.1721854,21.3907285 18.2781457,21.3907285 C17.384106,21.3907285 16.5562914,21.0596026 15.9271523,20.4304636 C15.2980132,19.8013245 14.9668874,19.0066225 14.9668874,18.1456954 C14.9668874,17.4834437 15.1986755,16.8211921 15.5629139,16.2913907 C17.3509934,15.6953642 19.2715232,15.6953642 21.0264901,16.3576159 Z" id="Shape" fill="#FC565B"></path>
            </g>
        </g>
    </g>
</svg>