<?xml version="1.0" encoding="UTF-8"?>
<svg width="48px" height="47px" viewBox="0 0 48 47" version="1.1" xmlns="http://www.w3.org/2000/svg" xmlns:xlink="http://www.w3.org/1999/xlink">
    <title>icons-web</title>
    <g id="icons-web" stroke="none" stroke-width="1" fill="none" fill-rule="evenodd">
        <g id="noun_website_2029853" transform="translate(3.120488, 7.000000)" fill="#034EA1" fill-rule="nonzero">
            <g id="Group">
                <path d="M28.9230769,24.5760073 L24.8342491,24.5760073 C24.7481685,24.5760073 24.6620879,24.6620879 24.6620879,24.7481685 L24.6620879,25.3076923 C24.6620879,25.6520147 24.3608059,25.9532967 24.0164835,25.9532967 L16.1831502,25.9532967 C15.8388278,25.9532967 15.5375458,25.6520147 15.5375458,25.3076923 L15.5375458,24.7481685 C15.5375458,24.6620879 15.4514652,24.5760073 15.3653846,24.5760073 L0.215201465,24.5760073 C0.0860805861,24.5760073 0,24.6620879 0,24.8342491 L0,27.1584249 C0,28.2774725 0.903846154,29.1813187 2.06593407,29.1813187 L29.8269231,29.1813187 C29.7408425,28.9661172 29.6978022,28.793956 29.6547619,28.5787546 L28.9230769,24.5760073 Z" id="Path"></path>
                <path d="M4.64835165,22.8543956 L28.6217949,22.8543956 L28.2344322,20.702381 C28.1483516,20.2289377 28.1483516,19.7554945 28.2774725,19.2820513 L6.41300366,19.2820513 L6.41300366,3.87362637 C6.41300366,3.65842491 6.58516484,3.52930403 6.75732601,3.52930403 L33.3992674,3.52930403 C33.6144689,3.52930403 33.7435897,3.7014652 33.7435897,3.87362637 L33.7435897,16.9578755 C33.78663,17.0009158 33.8296703,17.0009158 33.8727106,17.043956 L37.3159341,19.4111722 L37.3159341,3.91666667 C37.3159341,1.76465201 35.5512821,-2.29364757e-15 33.3992674,-2.29364757e-15 L6.75732601,-2.29364757e-15 C4.60531136,-2.29364757e-15 2.84065934,1.76465201 2.84065934,3.91666667 L2.84065934,21.1327839 C2.84065934,22.03663 3.61538462,22.8543956 4.64835165,22.8543956 Z" id="Path"></path>
                <path d="M28.2344322,6.1547619 L20.4010989,6.1547619 C19.8846154,6.1547619 19.4542125,6.58516484 19.4542125,7.10164835 L19.4542125,7.10164835 C19.4542125,7.61813187 19.8846154,8.0485348 20.4010989,8.0485348 L28.2344322,8.0485348 C28.7509158,8.0485348 29.1813187,7.61813187 29.1813187,7.10164835 C29.224359,6.58516484 28.793956,6.1547619 28.2344322,6.1547619 Z" id="Path"></path>
                <path d="M28.2344322,10.4157509 L20.4010989,10.4157509 C19.8846154,10.4157509 19.4542125,10.8461538 19.4542125,11.3626374 L19.4542125,11.3626374 C19.4542125,11.8791209 19.8846154,12.3095238 20.4010989,12.3095238 L28.2344322,12.3095238 C28.7509158,12.3095238 29.1813187,11.8791209 29.1813187,11.3626374 C29.224359,10.8461538 28.793956,10.4157509 28.2344322,10.4157509 Z" id="Path"></path>
                <path d="M20.4010989,14.6767399 C19.8846154,14.6767399 19.4542125,15.1071429 19.4542125,15.6236264 L19.4542125,15.6236264 C19.4542125,16.1401099 19.8846154,16.5705128 20.4010989,16.5705128 L28.2344322,16.5705128 C28.7509158,16.5705128 29.1813187,16.1401099 29.1813187,15.6236264 L29.1813187,15.6236264 C29.1813187,15.1071429 28.7509158,14.6767399 28.2344322,14.6767399 L20.4010989,14.6767399 Z" id="Path"></path>
                <path d="M12.3525641,6.1547619 C11.6639194,6.1547619 11.0613553,6.71428571 11.0613553,7.4459707 L11.0613553,15.3223443 C11.0613553,16.010989 11.6208791,16.6135531 12.3525641,16.6135531 L16.3553114,16.6135531 C17.043956,16.6135531 17.6465201,16.0540293 17.6465201,15.3223443 L17.6465201,7.4459707 C17.6465201,6.75732601 17.0869963,6.1547619 16.3553114,6.1547619 L12.3525641,6.1547619 Z" id="Path"></path>
                <path d="M40.5869963,29.9990842 L38.3058608,26.4697802 L39.2957875,25.8241758 C40.1996337,25.2216117 40.1996337,23.9304029 39.3388278,23.3278388 L32.7106227,18.7655678 C31.5915751,17.9908425 30.0421245,18.9807692 30.3003663,20.3150183 L31.720696,28.1913919 C31.8928571,29.2673993 33.0979853,29.7838828 34.0018315,29.1813187 L34.9917582,28.5357143 L37.2728938,32.0650183 C37.8324176,32.9688645 39.0375458,33.2271062 39.9413919,32.6245421 C40.8882784,32.0650183 41.1465201,30.8598901 40.5869963,29.9990842 Z" id="Path"></path>
            </g>
        </g>
    </g>
</svg>