<?xml version="1.0" encoding="UTF-8"?>
<svg width="36px" height="40px" viewBox="0 0 36 40" version="1.1" xmlns="http://www.w3.org/2000/svg" xmlns:xlink="http://www.w3.org/1999/xlink">
    <title>icons-gmb-3</title>
    <g id="icons-gmb-3" stroke="none" stroke-width="1" fill="none" fill-rule="evenodd">
        <g id="noun_dollar-marketing_2753040" transform="translate(0.380583, 0.299016)" fill="#034EA1" fill-rule="nonzero">
            <g id="Group">
                <path d="M20.8194171,32.6291089 C15.4395574,35.261796 8.97261946,34.3984479 4.49941711,30.4503589 C4.21693664,30.2013811 4.05550306,29.8457903 4.05550306,29.4725464 C4.05550306,29.0993025 4.21693664,28.7437116 4.49941711,28.4947339 L4.49941711,28.4947339 C5.00275879,28.0594487 5.75607543,28.0594487 6.25941711,28.4947339 C10.1462774,31.8691037 15.7946161,32.4059473 20.2655163,29.8259369 C24.7364165,27.2459265 27.0195815,22.1320714 25.9270456,17.1451883 C24.8345097,12.1583052 20.6131551,8.42528857 15.4594171,7.88848388 C14.7861304,7.80839066 14.2811853,7.24355508 14.2860838,6.57598388 L14.2860838,6.57598388 C14.2833136,6.19879784 14.4455305,5.8386707 14.7313612,5.58745229 C15.017192,5.33623387 15.3990041,5.21821052 15.7794171,5.26348388 C22.3325017,5.86431096 27.6766032,10.6886013 28.8506484,17.0633001 C30.0246937,23.4379989 26.7411686,29.8019947 20.8194171,32.6291089 L20.8194171,32.6291089 Z" id="Path"></path>
                <path d="M14.2860668,38.0759839 L14.2860668,38.0759839 C14.2826394,37.3994189 14.8022154,36.8311327 15.4860838,36.7634839 C21.6786873,36.7705175 27.404701,33.5249228 30.5071908,28.2492838 C33.6096806,22.9736447 33.6173045,16.4694565 30.5271908,11.1867838 C27.437077,5.90411105 21.7186873,2.64551755 15.5260838,2.63848388 C14.8263832,2.59015367 14.2843633,2.01644314 14.2860668,1.32598388 L14.2860668,0.0134838816 C25.3317788,-0.385196672 34.6144083,8.10600287 35.0194171,18.9791089 C35.4244259,29.8522149 26.7984454,38.9898033 15.7527504,39.3884839 C15.3766572,39.4256968 15.0021921,39.3040256 14.7225033,39.0537359 C14.4428145,38.8034462 14.2841886,38.4480616 14.2860668,38.0759839 Z" id="Path"></path>
                <path d="M0.499417109,30.8703589 L0.00608377605,25.4759839 C-0.0336464116,25.0676981 0.122801486,24.6646035 0.428968356,24.3864038 C0.735135226,24.1082041 1.15581577,23.9868887 1.56608378,24.0584839 L6.99275044,25.0034839 C7.34113977,25.064263 7.65070246,25.2588598 7.85326814,25.5444211 C8.05583383,25.8299825 8.1347904,26.1830899 8.07275044,26.5259839 L8.07275044,26.5259839 C8.01100659,26.8689296 7.81332095,27.1736554 7.52322688,27.373056 C7.23313281,27.5724566 6.8744205,27.6501795 6.52608378,27.5891089 L4.53941711,27.2478589 C4.13165229,27.1770878 3.71362711,27.2968114 3.40808028,27.571877 C3.10253345,27.8469426 2.94414384,28.2461309 2.97941711,28.6522339 L3.16608378,30.6341089 C3.19938311,30.9825093 3.08996536,31.3295741 2.86213774,31.5982025 C2.63431011,31.866831 2.30693914,32.034778 1.95275044,32.0647339 L1.95275044,32.0647339 C1.59881986,32.0975129 1.24624614,31.9898048 0.973353712,31.765537 C0.700461285,31.5412692 0.529848512,31.2190134 0.499417109,30.8703589 Z" id="Path"></path>
                <path d="M9.37941711,22.2472339 L11.7660838,21.9847339 C11.8342586,22.7332955 12.1424349,23.4411379 12.6460838,24.0059839 C13.1270627,24.4521262 13.7728613,24.6845866 14.4327504,24.6491089 C15.0822294,24.6949616 15.723973,24.4875324 16.2194171,24.0716089 C16.5949958,23.7344675 16.8121659,23.2594078 16.8194171,22.7591089 C16.8290893,22.4595576 16.7402363,22.1649399 16.5660838,21.9191089 C16.3340696,21.6427368 16.0297921,21.4339782 15.6860838,21.3153589 C15.3927504,21.2016089 14.7349727,21.0003589 13.7127504,20.7116089 C12.6922164,20.5067546 11.7392867,20.0557737 10.9394171,19.3991089 C10.2053027,18.649637 9.80260601,17.6444682 9.81941711,16.6034839 C9.81628854,15.9080894 10.0003045,15.2242832 10.3527504,14.6216089 C10.683606,13.9832621 11.2109379,13.4641699 11.8594171,13.1384839 C12.6102909,12.7954591 13.4319724,12.6291969 14.2594171,12.6528589 C15.5201453,12.5572228 16.7663324,12.9692855 17.7127504,13.7947339 C18.5079783,14.6186442 18.9435605,15.7164999 18.9260838,16.8528589 L16.4727504,16.9709839 C16.4306079,16.3977542 16.1906775,15.8559262 15.7927504,15.4353589 C15.3680609,15.0970091 14.8318222,14.92417 14.2860838,14.9497339 C13.6836065,14.9136645 13.0878429,15.0905318 12.6060838,15.4484839 C12.3465705,15.6617485 12.2034745,15.9823268 12.2194171,16.3147339 C12.2140966,16.6321058 12.3447722,16.9370156 12.5794171,17.1547339 C13.2568791,17.6155908 14.0241944,17.9329172 14.8327504,18.0866089 C15.7623978,18.3020196 16.6590492,18.6374232 17.4994171,19.0841089 C18.066016,19.4290908 18.5268481,19.9190129 18.8327504,20.5016089 C19.175372,21.1909615 19.3402278,21.9527754 19.3127504,22.7197339 C19.3141721,23.500622 19.1121861,24.2688289 18.7260838,24.9509839 C18.3605913,25.6257392 17.7861188,26.1682479 17.0860838,26.4997339 C16.248078,26.8670527 15.3362244,27.0420859 14.4194171,27.0116089 C13.1178177,27.096017 11.8373744,26.6553381 10.8727504,25.7909839 C9.97177797,24.8164332 9.44375513,23.5634103 9.37941711,22.2472339 Z" id="Path"></path>
                <polygon id="Rectangle" transform="translate(14.111080, 12.687870) rotate(-0.480000) translate(-14.111080, -12.687870) " points="12.7775455 11.165194 15.4442093 11.165543 15.4446142 14.2105464 12.7779504 14.2101974"></polygon>
                <polygon id="Rectangle" transform="translate(14.126689, 26.653063) rotate(-0.460000) translate(-14.126689, -26.653063) " points="12.793155 25.0713317 15.459819 25.0716662 15.4602221 28.2347945 12.7935581 28.23446"></polygon>
                <path d="M9.33941711,22.2472339 L11.7260838,21.9847339 C11.7942586,22.7332955 12.1024349,23.4411379 12.6060838,24.0059839 C13.0870627,24.4521262 13.7328613,24.6845866 14.3927504,24.6491089 C15.0422294,24.6949616 15.683973,24.4875324 16.1794171,24.0716089 C16.5549958,23.7344675 16.7721659,23.2594078 16.7794171,22.7591089 C16.7890893,22.4595576 16.7002363,22.1649399 16.5260838,21.9191089 C16.2940696,21.6427368 15.9897921,21.4339782 15.6460838,21.3153589 C15.3527504,21.2016089 14.6949727,21.0003589 13.6727504,20.7116089 C12.6522164,20.5067546 11.6992867,20.0557737 10.8994171,19.3991089 C10.1653027,18.649637 9.76260601,17.6444682 9.77941711,16.6034839 C9.77628854,15.9080894 9.96030452,15.2242832 10.3127504,14.6216089 C10.643606,13.9832621 11.1709379,13.4641699 11.8194171,13.1384839 C12.5702909,12.7954591 13.3919724,12.6291969 14.2194171,12.6528589 C15.4801453,12.5572228 16.7263324,12.9692855 17.6727504,13.7947339 C18.4679783,14.6186442 18.9035605,15.7164999 18.8860838,16.8528589 L16.4327504,16.9709839 C16.3906079,16.3977542 16.1506775,15.8559262 15.7527504,15.4353589 C15.3122495,15.0891681 14.7547612,14.9203134 14.1927504,14.9628589 C13.5902732,14.9267895 12.9945096,15.1036568 12.5127504,15.4616089 C12.2532372,15.6748735 12.1101411,15.9954518 12.1260838,16.3278589 C12.1207633,16.6452308 12.2514389,16.9501406 12.4860838,17.1678589 C13.1635457,17.6287158 13.9308611,17.9460422 14.7394171,18.0997339 C15.6690645,18.3151446 16.5657158,18.6505482 17.4060838,19.0972339 C17.9726827,19.4422158 18.4335147,19.9321379 18.7394171,20.5147339 C19.0820387,21.2040865 19.2468945,21.9659004 19.2194171,22.7328589 C19.2208388,23.513747 19.0188528,24.2819539 18.6327504,24.9641089 C18.2546426,25.6401692 17.6656299,26.1785636 16.9527504,26.4997339 C16.1147447,26.8670527 15.202891,27.0420859 14.2860838,27.0116089 C12.9844844,27.096017 11.7040411,26.6553381 10.7394171,25.7909839 C9.87230877,24.8035621 9.37782242,23.5518935 9.33941711,22.2472339 L9.33941711,22.2472339 Z" id="Path"></path>
                <polygon id="Rectangle" transform="translate(14.071081, 12.688200) rotate(-0.480000) translate(-14.071081, -12.688200) " points="12.7375469 11.1655238 15.4042107 11.1658729 15.4046156 14.2108763 12.7379518 14.2105272"></polygon>
                <polygon id="Rectangle" transform="translate(14.086690, 26.653379) rotate(-0.460000) translate(-14.086690, -26.653379) " points="12.7531563 25.0716478 15.4198203 25.0719823 15.4202234 28.2351106 12.7535594 28.2347761"></polygon>
            </g>
        </g>
    </g>
</svg>