<?xml version="1.0" encoding="UTF-8"?>
<svg width="49px" height="31px" viewBox="0 0 49 31" version="1.1" xmlns="http://www.w3.org/2000/svg" xmlns:xlink="http://www.w3.org/1999/xlink">
    <title>icon-lgp</title>
    <g id="icon-lgp" stroke="none" stroke-width="1" fill="none" fill-rule="evenodd">
        <g id="noun_Lead-Generation_2077824" transform="translate(0.000000, 0.904337)" fill="#034EA1" fill-rule="nonzero">
            <g id="Group" transform="translate(0.000000, -0.000000)">
                <polygon id="Path" points="48.7039583 10.605663 42.783125 9.36566303 44.314375 11.975663 20.8454167 25.325663 11.668125 21.335663 0 27.575663 0.98 29.325663 11.76 23.565663 20.9679167 27.575663 45.325 13.705663 46.825625 16.245663"></polygon>
                <path d="M14.8122917,18.265663 C14.8131325,17.7997788 14.8541113,17.3347953 14.9347917,16.875663 C15.4336151,17.938944 15.691333,19.0954761 15.6902083,20.265663 L15.6902083,20.265663 C15.691333,19.0954761 15.4336151,17.938944 14.9347917,16.875663 C14.854063,17.3347892 14.8130839,17.7997767 14.8122917,18.265663 L14.8122917,18.265663 Z" id="Path"></path>
                <path d="M14.9347917,16.875663 C14.1916095,15.2547319 12.8756236,13.9513976 11.2291667,13.205663 C13.1169475,11.9941653 13.9684524,9.71203721 13.3231407,7.5935788 C12.677829,5.47512038 10.6889031,4.02327137 8.43208333,4.02327137 C6.17526355,4.02327137 4.1863377,5.47512038 3.541026,7.5935788 C2.89571431,9.71203721 3.74721916,11.9941653 5.635,13.205663 C2.86957483,14.5037899 1.13061296,17.2621656 1.18416667,20.265663 L1.18416667,24.515663 L11.7089583,18.595663 L15.12875,20.095663 L15.12875,20.095663 L20.7433333,22.445663 L28.389375,18.205663 L29.0222917,17.795663 L41.0375,11.135663 C40.3321378,10.3005324 39.4419325,9.63368 38.434375,9.18566303 C40.3245771,7.97577143 41.1786658,5.6930657 40.5343243,3.5731705 C39.8899829,1.4532753 37.9003441,-7.10542736e-15 35.6423958,-7.10542736e-15 C33.3844476,-7.10542736e-15 31.3948088,1.4532753 30.7504673,3.5731705 C30.1061259,5.6930657 30.9602146,7.97577143 32.8504167,9.18566303 C30.535217,10.2920809 28.9350454,12.4558517 28.5833333,14.955663 C27.9531795,13.26029 26.6390122,11.8933873 24.9491667,11.175663 C26.8247959,9.95617431 27.6633794,7.67697612 27.0132273,5.56572272 C26.3630753,3.45446931 24.3777284,2.00975677 22.1265625,2.00975677 C19.8753966,2.00975677 17.8900497,3.45446931 17.2398977,5.56572272 C16.5897456,7.67697612 17.4283291,9.95617431 19.3039583,11.175663 C16.9922408,12.2475611 15.371668,14.3704677 14.975625,16.845663" id="Path"></path>
            </g>
        </g>
    </g>
</svg>