<?xml version="1.0" encoding="UTF-8"?>
<svg width="44px" height="44px" viewBox="0 0 44 44" version="1.1" xmlns="http://www.w3.org/2000/svg" xmlns:xlink="http://www.w3.org/1999/xlink">
    <title>icons-bb-3</title>
    <g id="icons-bb-3" stroke="none" stroke-width="1" fill="none" fill-rule="evenodd">
        <g id="noun_dollar_1111239" transform="translate(0.334605, 0.333581)" fill="#034EA1" fill-rule="nonzero">
            <g id="Group">
                <path d="M21.6674419,0 C9.7204186,0 0,9.72093023 0,21.6694884 C0,33.616 9.7204186,43.3338605 21.6674419,43.3338605 C33.6129302,43.3338605 43.3307907,33.616 43.3307907,21.6694884 C43.3307907,9.72093023 33.6144651,0 21.6674419,0 Z M22.8022326,32.2325581 L22.8022326,32.8628837 C22.8022326,33.5822326 22.2164186,34.1690698 21.4950233,34.1690698 C20.7741395,34.1690698 20.1898605,33.5827442 20.1898605,32.8628837 L20.1898605,32.2463721 C17.3226977,32.0074419 15.2193953,30.918186 14.1531628,29.1924651 C13.3713953,27.9251628 14.3250698,26.2884651 15.8149302,26.2884651 L16.0073023,26.2884651 C16.733814,26.2884651 17.3876744,26.7069767 17.723814,27.3516279 C18.1571628,28.1809767 19.0371628,28.7744651 20.1893488,28.9873023 L20.1893488,23.4156744 L19.0494419,23.148093 C15.6230698,22.3525116 13.7893953,20.3771163 13.7893953,17.4183721 C13.7893953,14.0390698 16.1505581,11.8293488 20.1893488,11.3888372 L20.1893488,10.4745581 C20.1893488,9.75213953 20.7736279,9.16939535 21.4945116,9.16939535 C22.215907,9.16939535 22.8017209,9.75316279 22.8017209,10.4745581 L22.8017209,11.3888372 C25.3450233,11.673814 27.2835814,12.7748372 28.3170698,14.4197209 C29.1111163,15.6798605 28.1456744,17.3186047 26.6563256,17.3186047 C25.9262326,17.3186047 25.2616279,16.9057209 24.9346977,16.2513488 C24.5504651,15.4787907 23.7789302,14.9001395 22.8017209,14.6944651 L22.8017209,19.9964651 L24.0813023,20.248186 C27.7225581,21.0437674 29.5408838,22.9342326 29.5408838,26.0188372 C29.5413953,29.5654419 27.1126977,31.7879535 22.8022326,32.2325581 Z" id="Shape"></path>
                <path d="M22.8022326,23.9114419 L22.8022326,29.0394884 C24.5166977,28.8583721 25.5189767,27.9144186 25.5189767,26.474186 C25.5189767,25.1526512 24.6522791,24.3284186 22.8022326,23.9114419 Z" id="Path"></path>
                <path d="M17.899814,17.0643256 C17.899814,18.2226512 18.6928372,19.0386977 20.1903721,19.4474884 L20.1903721,14.6729767 C18.836093,14.8842791 17.899814,15.8236279 17.899814,17.0643256 Z" id="Path"></path>
            </g>
        </g>
    </g>
</svg>