<?xml version="1.0" encoding="UTF-8"?>
<svg width="38px" height="42px" viewBox="0 0 38 42" version="1.1" xmlns="http://www.w3.org/2000/svg" xmlns:xlink="http://www.w3.org/1999/xlink">
    <title>icons-seo-2</title>
    <g id="icons-seo-2" stroke="none" stroke-width="1" fill="none" fill-rule="evenodd">
        <g id="noun_trust_3147025" transform="translate(0.208914, 0.222458)" fill-rule="nonzero">
            <g id="Group">
                <path d="M12.6724417,25.404661 C10.6597298,23.625 9.9440989,22.9576271 9.58628346,22.6461864 C9.22846802,22.2902542 9.22846802,22.2902542 8.64701793,21.845339 C7.79720625,21.1334746 7.03684843,20.9110169 6.45539834,21 C6.00812904,18.1970339 4.71104806,9.74364407 4.30850568,8.54237288 C4.0401441,7.65254237 3.23505936,7.11864407 2.34052075,7.20762712 C1.49070907,7.29661017 0.596170468,7.96398305 0.506716607,9.29872881 C0.372535816,11.0783898 0.0594473042,20.0211864 0.0147203738,22.6461864 C-0.119460417,25.5826271 0.685624329,26.4724576 1.535436,27.4512712 C1.62488987,27.5402542 1.6696168,27.6292373 1.75907066,27.7182203 C2.74306312,28.875 4.97940964,31.3220339 6.67903299,32.9237288 C8.06556783,34.2584746 8.06556783,34.6144068 8.11029476,35.5932203 L8.11029476,35.9491525 C8.15502169,37.2394068 7.84193318,40.6207627 7.84193318,40.6652542 C7.84193318,40.8432203 7.88666011,41.0211864 8.0208409,41.1991525 C8.15502169,41.3326271 8.33392941,41.4216102 8.51283713,41.4216102 C8.51283713,41.4216102 8.51283713,41.4216102 8.51283713,41.4216102 L15.3560575,41.2436441 C15.7138729,41.2436441 16.0269614,40.9322034 16.0269614,40.5762712 C16.0269614,39.5084746 16.0269614,38.4851695 16.0716884,37.5063559 C16.1611422,32.4788136 16.2505961,28.5635593 12.6724417,25.404661 Z M14.6851535,39.9088983 L9.22846802,40.0423729 C9.27319495,39.3305085 9.36264881,38.2627119 9.40737574,37.2838983 L14.7298804,36.8389831 C14.7298804,37.0614407 14.7298804,37.2394068 14.7298804,37.4618644 C14.7298804,38.2182203 14.6851535,39.0635593 14.6851535,39.9088983 Z M14.7746074,35.5042373 L9.45210267,35.9491525 C9.45210267,35.9491525 9.45210267,35.904661 9.45210267,35.904661 L9.45210267,35.5932203 C9.45210267,34.3029661 9.36264881,33.5911017 7.61829853,31.9894068 C5.91867518,30.3877119 3.72705559,27.9851695 2.78779005,26.8728814 C2.69833619,26.7838983 2.60888233,26.6949153 2.5641554,26.6059322 C1.80379759,25.7605932 1.26707442,25.1377119 1.35652828,22.690678 C1.44598214,19.5762712 1.71434373,11.0783898 1.84852452,9.43220339 C1.89325145,8.85381356 2.25106689,8.63135593 2.51942847,8.58686441 C2.51942847,8.58686441 2.5641554,8.58686441 2.5641554,8.58686441 C2.69833619,8.58686441 2.96669777,8.63135593 3.05615164,8.98728814 C3.36924015,10.0550847 4.71104806,18.4194915 5.24777122,21.8898305 C4.93468271,22.4682203 5.02413657,23.3135593 5.42667894,24.1144068 C6.36594448,25.9385593 7.93138704,28.4745763 8.0208409,28.6080508 C8.19974862,28.9194915 8.64701793,29.0084746 8.96010644,28.8305085 C9.27319495,28.6525424 9.36264881,28.2076271 9.18374109,27.8961864 C9.18374109,27.8516949 7.52884467,25.2711864 6.67903299,23.5360169 C6.41067141,23.0021186 6.41067141,22.6016949 6.50012527,22.4682203 C6.50012527,22.4682203 6.5448522,22.4237288 6.5448522,22.4237288 C6.5448522,22.4237288 6.5448522,22.4237288 6.5448522,22.4237288 C6.67903299,22.3347458 7.12630229,22.3347458 7.84193318,22.9576271 C8.37865634,23.4025424 8.37865634,23.4025424 8.73647179,23.7139831 C9.09428723,24.0254237 9.85464504,24.6927966 11.8673569,26.4724576 C14.4615189,28.7415254 14.7746074,31.6779661 14.7746074,35.5042373 Z" id="Shape" fill="#034EA1"></path>
                <path d="M37.1827995,22.6016949 C37.0933456,20.0211864 36.824984,11.0783898 36.6908032,9.25423729 C36.6013494,7.96398305 35.6620838,7.29661017 34.8569991,7.16313559 C33.9624605,7.07415254 33.1573757,7.60805085 32.8890142,8.49788136 C32.5311987,9.69915254 31.1893908,18.1525424 30.7421215,20.9555085 C30.1606714,20.9110169 29.4003136,21.0889831 28.5505019,21.8008475 C27.9690518,22.2457627 27.9690518,22.2457627 27.6112364,22.6016949 C27.2534209,22.9131356 26.4930631,23.5805085 24.5250782,25.3601695 C20.9469238,28.5190678 21.0363776,32.434322 21.1258315,37.4173729 C21.1258315,38.3961864 21.1705584,39.4194915 21.1705584,40.4872881 C21.1705584,40.8432203 21.43892,41.154661 21.8414624,41.154661 L28.6846827,41.3326271 C28.6846827,41.3326271 28.6846827,41.3326271 28.6846827,41.3326271 C28.8635904,41.3326271 29.0424982,41.2436441 29.1766789,41.1101695 C29.3108597,40.9766949 29.3555867,40.7987288 29.3555867,40.5762712 C29.3555867,40.5317797 29.0872251,37.1504237 29.0872251,35.8601695 L29.0872251,35.5042373 C29.0872251,34.5254237 29.0872251,34.1694915 30.5184869,32.8347458 C32.2181102,31.1885593 34.4991837,28.7415254 35.4384492,27.6292373 C35.527903,27.5402542 35.57263,27.4512712 35.6620838,27.3622881 C36.4671686,26.4724576 37.2722533,25.5826271 37.1827995,22.6016949 Z M22.4676394,39.9088983 C22.4676394,39.0635593 22.4676394,38.2627119 22.4229125,37.4618644 C22.4229125,37.2394068 22.4229125,37.0614407 22.4229125,36.8389831 L27.7454172,37.2838983 C27.7901441,38.2182203 27.879598,39.3305085 27.9243249,40.0423729 L22.4676394,39.9088983 Z M34.6333644,26.5614407 C34.5439106,26.6504237 34.4544567,26.7394068 34.4097298,26.8283898 C33.4704643,27.940678 31.2341177,30.3432203 29.5792213,31.9449153 C27.879598,33.5911017 27.7901441,34.2584746 27.7454172,35.5487288 L27.7454172,35.8601695 C27.7454172,35.8601695 27.7454172,35.904661 27.7454172,35.904661 L22.4229125,35.4597458 C22.3781855,31.6334746 22.736001,28.7415254 25.3748899,26.3389831 C27.3876017,24.559322 28.1479595,23.8919492 28.505775,23.5805085 C28.8635904,23.2690678 28.8635904,23.2690678 29.4003136,22.8241525 C30.1159445,22.2457627 30.5632138,22.2012712 30.6973946,22.2902542 C30.6973946,22.2902542 30.6973946,22.2902542 30.6973946,22.2902542 C30.6973946,22.2902542 30.6973946,22.3347458 30.7421215,22.3347458 C30.8315754,22.4682203 30.8315754,22.8686441 30.5632138,23.4025424 C29.6686752,25.1822034 28.0585057,27.7627119 28.0585057,27.7627119 C27.879598,28.0741525 27.9690518,28.4745763 28.2821403,28.6970339 C28.5952288,28.875 28.9977712,28.7860169 29.2214059,28.4745763 C29.3108597,28.3855932 30.8763023,25.8050847 31.8155678,23.9809322 C32.2181102,23.1355932 32.3075641,22.3347458 31.9944756,21.7563559 C32.5311987,18.2860169 33.8730066,9.92161017 34.1860951,8.85381356 C34.3202759,8.45338983 34.6333644,8.45338983 34.7228183,8.45338983 C34.9911799,8.49788136 35.3489953,8.72033898 35.3937223,9.29872881 C35.527903,10.9449153 35.7962646,19.4427966 35.8857185,22.5572034 C35.8857185,25.0932203 35.3489953,25.7161017 34.6333644,26.5614407 Z" id="Shape" fill="#034EA1"></path>
                <path d="M28.9083174,6.00635593 C28.9083174,5.73940678 28.7294096,5.47245763 28.4610481,5.38347458 C24.8381667,4.09322034 22.6465471,3.02542373 19.0236658,0.133474576 C18.8000311,-0.0444915254 18.4422157,-0.0444915254 18.1738541,0.133474576 C14.5509727,3.02542373 12.3146262,4.09322034 8.69174486,5.38347458 C8.42338327,5.47245763 8.24447555,5.73940678 8.24447555,6.00635593 C8.24447555,12.9025424 9.80991811,17.8411017 12.8513494,20.6440678 C15.1771498,22.779661 17.6818579,22.957686 18.4422157,22.957686 C18.5316695,22.957686 18.5763965,22.957686 18.6211234,22.957686 C19.0236658,22.957686 21.7520085,23.0021186 24.3461705,20.6440678 C27.3876017,17.8855932 28.9083174,12.9470339 28.9083174,6.00635593 Z" id="Shape" fill="#034EA1"></path>
                <path d="M18.6658503,21.6673729 C18.6658503,21.6673729 18.6211234,21.6673729 18.6211234,21.6673729 C18.6211234,21.6673729 18.5763965,21.6673729 18.5763965,21.6673729 C18.4869426,21.6673729 16.0716884,21.8008475 13.745888,19.6652542 C11.1069991,17.2182203 9.67573732,12.6355932 9.58628346,6.49576271 C12.9408032,5.29449153 15.2666036,4.13771186 18.6211234,1.51271186 C21.9756432,4.13771186 24.2567166,5.25 27.5665095,6.49576271 C27.5217825,12.6800847 26.0905208,17.2182203 23.4516319,19.6652542 C21.1705584,21.8008475 18.7553042,21.6673729 18.6658503,21.6673729 Z" id="Path" fill="#FFFFFF"></path>
                <path d="M23.362178,8.2309322 C23.0490895,8.00847458 22.6465471,8.09745763 22.4229125,8.36440678 L17.1004078,15.75 L14.7298804,12.4131356 C14.5062458,12.1016949 14.1037034,12.0572034 13.7906149,12.279661 C13.4775264,12.5021186 13.4327995,12.9025424 13.6564341,13.2139831 L16.6084115,17.3072034 C16.7425923,17.4851695 16.9215,17.5741525 17.1451347,17.5741525 C17.3687693,17.5741525 17.5476771,17.4851695 17.6818579,17.3072034 L23.5410857,9.16525424 C23.7199934,8.85381356 23.6752665,8.45338983 23.362178,8.2309322 Z" id="Path" fill="#034EA1"></path>
            </g>
        </g>
    </g>
</svg>