<?xml version="1.0" encoding="UTF-8"?>
<svg width="39px" height="39px" viewBox="0 0 39 39" version="1.1" xmlns="http://www.w3.org/2000/svg" xmlns:xlink="http://www.w3.org/1999/xlink">
    <title>icons-seo-3</title>
    <g id="icons-seo-3" stroke="none" stroke-width="1" fill="none" fill-rule="evenodd">
        <g id="noun_Increase-Revenue_1423876" transform="translate(0.816794, 0.000000)" fill="#034EA1" fill-rule="nonzero">
            <rect id="Rectangle" x="0" y="24.8091603" width="6.67938931" height="13.3587786"></rect>
            <rect id="Rectangle" x="10.4961832" y="19.0839695" width="6.67938931" height="19.0839695"></rect>
            <rect id="Rectangle" x="20.9923664" y="16.221374" width="6.67938931" height="21.9465649"></rect>
            <rect id="Rectangle" x="31.4885496" y="7.63358779" width="6.67938931" height="30.5343511"></rect>
            <path d="M24.5534351,5.9389313 L34.6374046,1.29389313 L34.8396947,1.72519084 L35.3053435,0.461832061 L34.0267176,0 L34.2290076,0.43129771 L24.1946565,5.05343511 C24.3388754,5.33801442 24.4588917,5.63422484 24.5534351,5.9389313 L24.5534351,5.9389313 Z" id="Path"></path>
            <path d="M14.2442748,10.6870229 C14.073515,10.4186406 13.9254197,10.1364936 13.8015267,9.84351145 L2.86259542,14.8854962 L3.26717557,15.7480916 L14.2442748,10.6870229 Z" id="Path"></path>
            <path d="M23.8549618,7.63358779 C23.8549618,4.99864146 21.7189158,2.86259542 19.0839695,2.86259542 C16.4490231,2.86259542 14.3129771,4.99864146 14.3129771,7.63358779 C14.3129771,10.2685341 16.4490231,12.4045802 19.0839695,12.4045802 C21.7189158,12.4045802 23.8549618,10.2685341 23.8549618,7.63358779 Z M19.5839695,9.92366412 L19.5839695,10.4961832 L18.5839695,10.4961832 L18.5839695,10.0152672 C18.1807182,9.99880505 17.7843139,9.90553345 17.4160305,9.74045802 L17.6412214,8.8740458 C18.0204264,9.05587077 18.4344731,9.15352331 18.8549618,9.16030534 C19.3587786,9.16030534 19.6183206,8.96183206 19.6183206,8.66030534 C19.6183206,8.35877863 19.389313,8.20610687 18.8015267,8.00763359 C17.9923664,7.74045802 17.4656489,7.3129771 17.4656489,6.64122137 C17.4858913,5.99910808 17.9518868,5.4583624 18.5839695,5.34351145 L18.5839695,4.77099237 L19.5839695,4.77099237 L19.5839695,5.25572519 C19.9187651,5.27543203 20.2478244,5.35156731 20.5572519,5.48091603 L20.3129771,6.32442748 C19.9944372,6.17883523 19.6479378,6.10458535 19.2977099,6.10687023 C18.8206107,6.10687023 18.5916031,6.3129771 18.5916031,6.55343511 C18.5916031,6.79389313 18.8664122,6.98091603 19.4923664,7.20610687 C20.351145,7.50763359 20.7557252,7.9351145 20.7557252,8.58778626 C20.7397144,9.25789972 20.2462796,9.82044748 19.5839695,9.92366412 L19.5839695,9.92366412 Z" id="Shape"></path>
        </g>
    </g>
</svg>