<?xml version="1.0" encoding="UTF-8"?>
<svg width="46px" height="46px" viewBox="0 0 46 46" version="1.1" xmlns="http://www.w3.org/2000/svg" xmlns:xlink="http://www.w3.org/1999/xlink">
    <title>icons-bb</title>
    <g id="icons-bb" stroke="none" stroke-width="1" fill="none" fill-rule="evenodd">
        <g id="noun_content_3344849" fill="#FC565B" fill-rule="nonzero">
            <g id="Group">
                <path d="M6.97690625,9.85190625 L5.96059375,8.83559375 L14.1644063,0.63178125 C14.5678692,0.225716362 15.1171711,-0.00182197416 15.6895938,-1.08581272e-05 L38.09375,-1.08581272e-05 C39.284614,-1.08581272e-05 40.25,0.965386008 40.25,2.15625 L40.25,5.03125 L38.8125,5.03125 L38.8125,2.15625 C38.8125,1.75929534 38.4907047,1.4375 38.09375,1.4375 L15.6895938,1.4375 C15.4987359,1.43734996 15.3156552,1.51311641 15.1807188,1.64809375 L6.97690625,9.85190625 Z" id="Path"></path>
                <path d="M39.53125,46 L6.46875,46 C6.07179534,46 5.75,45.6782047 5.75,45.28125 L5.75,40.96875 L7.1875,40.96875 L7.1875,44.5625 L38.8125,44.5625 L38.8125,19.40625 L40.25,19.40625 L40.25,45.28125 C40.25,45.6782047 39.9282047,46 39.53125,46 Z" id="Path"></path>
                <path d="M7.1875,26.59375 L5.75,26.59375 L5.75,9.34375 C5.75,8.94679534 6.07179534,8.625 6.46875,8.625 L14.375,8.625 L14.375,0.71875 L15.8125,0.71875 L15.8125,9.34375 C15.8125,9.74070466 15.4907047,10.0625 15.09375,10.0625 L7.1875,10.0625 L7.1875,26.59375 Z" id="Path"></path>
                <path d="M23.71875,41.6875 L2.15625,41.6875 C0.965386008,41.6875 0,40.722114 0,39.53125 L0,28.03125 C0,26.840386 0.965386008,25.875 2.15625,25.875 L14.0774375,25.875 L18.1793438,21.7730938 C18.3849021,21.5675974 18.6939951,21.5061343 18.962533,21.6173565 C19.2310709,21.7285787 19.4061879,21.9905904 19.40625,22.28125 L19.40625,25.875 L23.71875,25.875 C24.909614,25.875 25.875,26.840386 25.875,28.03125 L25.875,39.53125 C25.875,40.722114 24.909614,41.6875 23.71875,41.6875 Z M2.15625,27.3125 C1.75929534,27.3125 1.4375,27.6342953 1.4375,28.03125 L1.4375,39.53125 C1.4375,39.9282047 1.75929534,40.25 2.15625,40.25 L23.71875,40.25 C24.1157047,40.25 24.4375,39.9282047 24.4375,39.53125 L24.4375,28.03125 C24.4375,27.6342953 24.1157047,27.3125 23.71875,27.3125 L18.6875,27.3125 C18.2905453,27.3125 17.96875,26.9907047 17.96875,26.59375 L17.96875,24.0163125 L14.8831563,27.1019062 C14.7483958,27.2367074 14.5656088,27.3124593 14.375,27.3125 L2.15625,27.3125 Z" id="Shape"></path>
                <path d="M27.3125,24.4375 C26.9155453,24.4375 26.59375,24.1157047 26.59375,23.71875 L26.59375,20.125 L22.28125,20.125 C21.090386,20.125 20.125,19.159614 20.125,17.96875 L20.125,6.46875 C20.125,5.27788601 21.090386,4.3125 22.28125,4.3125 L43.84375,4.3125 C45.034614,4.3125 46,5.27788601 46,6.46875 L46,17.96875 C46,19.159614 45.034614,20.125 43.84375,20.125 L31.9225625,20.125 L27.8206563,24.2269062 C27.6858958,24.3617074 27.5031088,24.4375 27.3125,24.4375 Z M22.28125,5.75 C21.8842953,5.75 21.5625,6.07179534 21.5625,6.46875 L21.5625,17.96875 C21.5625,18.3657047 21.8842953,18.6875 22.28125,18.6875 L27.3125,18.6875 C27.7094547,18.6875 28.03125,19.0092953 28.03125,19.40625 L28.03125,21.9836875 L31.1168438,18.8980938 C31.2516042,18.7632926 31.4343912,18.6875407 31.625,18.6875 L43.84375,18.6875 C44.2407047,18.6875 44.5625,18.3657047 44.5625,17.96875 L44.5625,6.46875 C44.5625,6.07179534 44.2407047,5.75 43.84375,5.75 L22.28125,5.75 Z" id="Shape"></path>
                <rect id="Rectangle" x="4.3125" y="30.1875" width="1.4375" height="1.4375"></rect>
                <rect id="Rectangle" x="7.1875" y="30.1875" width="1.4375" height="1.4375"></rect>
                <rect id="Rectangle" x="10.0625" y="30.1875" width="11.5" height="1.4375"></rect>
                <rect id="Rectangle" x="4.3125" y="33.0625" width="17.25" height="1.4375"></rect>
                <rect id="Rectangle" x="4.3125" y="35.9375" width="15.8125" height="1.4375"></rect>
                <path d="M35.21875,15.8125 C35.1326443,15.8123979 35.0472352,15.797068 34.9664688,15.7672188 L29.2164688,13.6109688 C28.9357377,13.5057369 28.7498128,13.2373059 28.7499999,12.9375 L28.7499999,10.0625 C28.7498128,9.76269406 28.9357377,9.4942631 29.2164688,9.38903125 L34.9664688,7.23278125 C35.187264,7.15001616 35.4346123,7.18081436 35.6283698,7.31519686 C35.8221273,7.44957937 35.9376473,7.67045221 35.9375001,7.90625 L35.9375001,15.09375 C35.9375001,15.4907047 35.6157047,15.8125 35.21875,15.8125 Z M30.1875,12.4394063 L34.5,14.0565938 L34.5,8.94340625 L30.1875,10.5605937 L30.1875,12.4394063 Z" id="Shape"></path>
                <rect id="Rectangle" x="32.34375" y="8.625" width="1.4375" height="5.75"></rect>
                <path d="M29.46875,13.65625 L25.15625,13.65625 C24.7592953,13.65625 24.4375,13.3344547 24.4375,12.9375 L24.4375,10.0625 C24.4375,9.66554534 24.7592953,9.34375 25.15625,9.34375 L29.46875,9.34375 L29.46875,10.78125 L25.875,10.78125 L25.875,12.21875 L29.46875,12.21875 L29.46875,13.65625 Z" id="Path"></path>
                <path d="M28.03125,17.25 L25.875,17.25 C25.4780453,17.25 25.15625,16.9282047 25.15625,16.53125 L25.15625,12.9375 L26.59375,12.9375 L26.59375,15.8125 L27.3125,15.8125 L27.3125,12.9375 L28.75,12.9375 L28.75,16.53125 C28.75,16.9282047 28.4282047,17.25 28.03125,17.25 Z" id="Path"></path>
                <rect id="Rectangle" x="37.375" y="10.78125" width="3.59375" height="1.4375"></rect>
                <polygon id="Rectangle" transform="translate(38.453337, 8.265022) rotate(-45.000000) translate(-38.453337, -8.265022) " points="36.9285084 7.54627243 39.9781647 7.54627243 39.9781647 8.98377243 36.9285084 8.98377243"></polygon>
                <polygon id="Rectangle" transform="translate(38.453309, 14.734971) rotate(-45.000000) translate(-38.453309, -14.734971) " points="37.7345585 13.2101433 39.1720585 13.2101433 39.1720585 16.2597995 37.7345585 16.2597995"></polygon>
                <rect id="Rectangle" x="33.0625" y="41.6875" width="4.3125" height="1.4375"></rect>
                <rect id="Rectangle" x="33.0625" y="38.8125" width="4.3125" height="1.4375"></rect>
                <rect id="Rectangle" x="33.0625" y="35.9375" width="4.3125" height="1.4375"></rect>
                <rect id="Rectangle" x="33.0625" y="33.0625" width="4.3125" height="1.4375"></rect>
                <rect id="Rectangle" x="35.9375" y="30.1875" width="1.4375" height="1.4375"></rect>
            </g>
        </g>
    </g>
</svg>