<?xml version="1.0" encoding="UTF-8"?>
<svg width="38px" height="37px" viewBox="0 0 38 37" version="1.1" xmlns="http://www.w3.org/2000/svg" xmlns:xlink="http://www.w3.org/1999/xlink">
    <title>icons-seo-1</title>
    <g id="icons-seo-1" stroke="none" stroke-width="1" fill="none" fill-rule="evenodd">
        <g id="noun_Viral-Campaign_898363" transform="translate(0.622517, 0.298013)" fill="#034EA1" fill-rule="nonzero">
            <g id="Group" transform="translate(0.000000, 0.000000)">
                <g transform="translate(3.841060, 3.791391)" id="Path">
                    <path d="M4.50331126,2.20198675 C4.50331126,2.79801325 4.27152318,3.36092715 3.8410596,3.75827815 C3.41059603,4.18874172 2.84768212,4.38741722 2.25165563,4.38741722 C1.68874172,4.38741722 1.09271523,4.15562914 0.662251656,3.75827815 C0.231788079,3.32781457 0,2.76490066 0,2.20198675 C0,1.60596026 0.231788079,1.04304636 0.662251656,0.645695364 C1.52317881,-0.215231788 2.94701987,-0.215231788 3.80794702,0.645695364 C4.27152318,1.07615894 4.50331126,1.63907285 4.50331126,2.20198675 Z"></path>
                    <path d="M4.50331126,25.513245 C4.50331126,26.1092715 4.27152318,26.6721854 3.8410596,27.0695364 C3.41059603,27.5 2.84768212,27.6986755 2.25165563,27.6986755 C1.68874172,27.6986755 1.09271523,27.4668874 0.662251656,27.0695364 C0.231788079,26.6390728 0,26.0761589 0,25.513245 C0,24.9172185 0.231788079,24.3543046 0.662251656,23.9569536 C1.52317881,23.0960265 2.94701987,23.0960265 3.80794702,23.9569536 C4.27152318,24.3543046 4.50331126,24.9172185 4.50331126,25.513245 Z"></path>
                    <path d="M28.6092715,25.9437086 C28.6092715,26.5397351 28.3774834,27.102649 27.9470199,27.5 C27.5165563,27.9304636 26.9536424,28.1291391 26.3576159,28.1291391 C25.794702,28.1291391 25.1986755,27.9304636 24.7682119,27.5 C24.3377483,27.0695364 24.1059603,26.5066225 24.1059603,25.9437086 C24.1059603,25.3476821 24.3377483,24.7847682 24.7682119,24.3874172 C25.6291391,23.5264901 27.0529801,23.5264901 27.9470199,24.3874172 C28.3774834,24.7847682 28.6092715,25.3476821 28.6092715,25.9437086 Z"></path>
                    <path d="M28.6092715,2.3013245 C28.6092715,2.89735099 28.3774834,3.4602649 27.9470199,3.85761589 C27.5165563,4.28807947 26.9536424,4.48675497 26.3576159,4.48675497 C25.794702,4.48675497 25.1986755,4.28807947 24.7682119,3.85761589 C24.3377483,3.42715232 24.1059603,2.86423841 24.1059603,2.3013245 C24.1059603,1.70529801 24.3377483,1.14238411 24.7682119,0.745033113 C25.6291391,-0.11589404 27.0529801,-0.11589404 27.9470199,0.745033113 C28.3774834,1.14238411 28.6092715,1.70529801 28.6092715,2.3013245 Z"></path>
                </g>
                <path d="M29.5695364,18.5099338 C29.7019868,19.205298 30,19.8344371 30.5298013,20.3311258 C31.192053,20.9933775 32.0860927,21.3245033 32.9801325,21.3245033 C33.8741722,21.3245033 34.7350993,20.9933775 35.4304636,20.3311258 C36.0927152,19.6688742 36.4569536,18.8410596 36.4569536,17.9139073 C36.4569536,16.986755 36.0927152,16.1589404 35.4304636,15.4966887 C34.0728477,14.1721854 31.8874172,14.1721854 30.5629139,15.4966887 C30.0662252,15.9933775 29.7350993,16.6225166 29.602649,17.3178808 L27.4172185,17.3178808 C27.2847682,15.3311258 26.4900662,13.4768212 25.1655629,11.9536424 L28.1788079,8.97350993 C28.013245,8.87417219 27.8807947,8.74172185 27.7152318,8.60927152 C27.5496689,8.44370861 27.4172185,8.2781457 27.3178808,8.11258278 L24.3046358,11.0927152 C22.781457,9.76821192 20.8940397,9.00662252 18.8410596,8.87417219 L18.8410596,6.75496689 C19.5033113,6.65562914 20.1655629,6.32450331 20.6622517,5.82781457 C21.3245033,5.16556291 21.6887417,4.33774834 21.6887417,3.41059603 C21.6887417,2.48344371 21.3245033,1.62251656 20.6622517,0.993377483 C19.3046358,-0.331125828 17.1192053,-0.331125828 15.794702,0.993377483 C15.1324503,1.62251656 14.7682119,2.48344371 14.7682119,3.41059603 C14.7682119,4.33774834 15.1324503,5.16556291 15.794702,5.82781457 C16.3245033,6.32450331 16.9536424,6.65562914 17.615894,6.75496689 L17.615894,8.87417219 C15.5960265,9.00662252 13.6754967,9.76821192 12.1523179,11.0927152 L9.0397351,8.01324503 C8.90728477,8.17880795 8.77483444,8.34437086 8.64238411,8.50993377 C8.50993377,8.64238411 8.34437086,8.77483444 8.21192053,8.87417219 L11.3245033,11.9205298 C10,13.410596 9.20529801,15.2980132 9.07284768,17.2847682 L6.88741722,17.2847682 C6.75496689,16.589404 6.42384106,15.9602649 5.92715232,15.4635762 C5.26490066,14.8013245 4.37086093,14.4701987 3.47682119,14.4701987 C2.58278146,14.4701987 1.7218543,14.8013245 1.02649007,15.4635762 C0.364238411,16.1258278 0,16.9536424 0,17.8807947 C0,18.807947 0.364238411,19.6688742 1.02649007,20.2980132 C1.68874172,20.9602649 2.58278146,21.2913907 3.47682119,21.2913907 C4.37086093,21.2913907 5.23178808,20.9602649 5.92715232,20.2980132 C6.42384106,19.8013245 6.75496689,19.1721854 6.88741722,18.4768212 L9.07284768,18.4768212 C9.20529801,20.4635762 10,22.3178808 11.3245033,23.8410596 L8.50993377,26.6225166 C8.57615894,26.6556291 8.60927152,26.7218543 8.67549669,26.7549669 C8.90728477,26.986755 9.13907285,27.2516556 9.27152318,27.5496689 L12.1854305,24.6688742 C13.7086093,25.9933775 15.5960265,26.7549669 17.6490066,26.8874172 L17.6490066,29.0066225 C16.986755,29.1390728 16.3245033,29.4370861 15.8278146,29.9337748 C15.1655629,30.5629139 14.8013245,31.4238411 14.8013245,32.3509934 C14.8013245,33.2781457 15.1655629,34.1059603 15.8278146,34.7682119 C16.4900662,35.4304636 17.384106,35.7615894 18.2781457,35.7615894 C19.1721854,35.7615894 20.0331126,35.4304636 20.7284768,34.7682119 C21.3907285,34.1059603 21.7549669,33.2781457 21.7549669,32.3509934 C21.7549669,31.4238411 21.3907285,30.5629139 20.7284768,29.9337748 C20.1986755,29.4370861 19.5695364,29.1059603 18.9072848,29.0066225 L18.9072848,26.8874172 C20.9271523,26.7549669 22.8476821,25.9933775 24.3708609,24.6688742 L27.384106,27.6490066 C27.5165563,27.4834437 27.6490066,27.3178808 27.781457,27.1523179 C27.9139073,27.0198675 28.0794702,26.8874172 28.2450331,26.7880795 L25.2317881,23.807947 C26.5562914,22.3178808 27.3509934,20.4304636 27.4834437,18.4437086 L29.5695364,18.4437086 L29.5695364,18.5099338 Z M32.9801325,15.7284768 C33.5430464,15.7284768 34.1390728,15.9602649 34.5695364,16.3907285 C35,16.8211921 35.2317881,17.3509934 35.2317881,17.9470199 C35.2317881,18.5430464 35,19.0728477 34.5695364,19.5033113 C33.6754967,20.3642384 32.2516556,20.3642384 31.3907285,19.5033113 C31.3576159,19.4701987 31.3245033,19.4039735 31.2582781,19.3708609 C30.9271523,18.9735099 30.7284768,18.4768212 30.7284768,17.9470199 C30.7284768,17.384106 30.9271523,16.8874172 31.2913907,16.4900662 C31.3245033,16.4569536 31.3576159,16.4238411 31.3576159,16.3907285 C31.8211921,15.9271523 32.384106,15.7284768 32.9801325,15.7284768 Z M1.22516556,17.9139073 C1.22516556,17.3178808 1.45695364,16.7880795 1.88741722,16.3576159 C1.95364238,16.2913907 1.98675497,16.2582781 2.05298013,16.192053 C2.45033113,15.8609272 2.98013245,15.6953642 3.47682119,15.6953642 C4.0397351,15.6953642 4.63576159,15.9271523 5.06622517,16.3576159 C5.49668874,16.7880795 5.72847682,17.3178808 5.72847682,17.9139073 C5.72847682,18.5099338 5.49668874,19.0397351 5.06622517,19.4701987 C4.33774834,20.1986755 3.21192053,20.2980132 2.35099338,19.8013245 C2.18543046,19.7019868 2.01986755,19.602649 1.88741722,19.4701987 C1.45695364,19.0397351 1.22516556,18.5099338 1.22516556,17.9139073 Z M16.6225166,4.93377483 C16.192053,4.50331126 15.9602649,3.97350993 15.9602649,3.37748344 C15.9602649,2.78145695 16.192053,2.25165563 16.6225166,1.82119205 C16.7880795,1.68874172 16.9536424,1.55629139 17.1192053,1.45695364 C17.4503311,1.25827815 17.8476821,1.19205298 18.2119205,1.19205298 C18.6754967,1.19205298 19.1059603,1.32450331 19.5033113,1.58940397 C19.602649,1.65562914 19.7019868,1.75496689 19.8013245,1.82119205 C19.8013245,1.82119205 19.8013245,1.82119205 19.8013245,1.82119205 C20.2317881,2.21854305 20.4635762,2.78145695 20.4635762,3.37748344 C20.4635762,3.97350993 20.2317881,4.50331126 19.8013245,4.93377483 C19.5364238,5.1986755 19.205298,5.39735099 18.8410596,5.49668874 C18.0794702,5.72847682 17.218543,5.52980132 16.6225166,4.93377483 Z M19.8013245,30.8940397 C20.2317881,31.3245033 20.4635762,31.8543046 20.4635762,32.4503311 C20.4635762,33.0463576 20.2317881,33.5761589 19.8013245,34.0066225 C19.0728477,34.7350993 17.9139073,34.8344371 17.0529801,34.3377483 C16.8874172,34.2384106 16.7549669,34.1390728 16.6225166,34.0066225 C16.192053,33.5761589 15.9602649,33.0463576 15.9602649,32.4503311 C15.9602649,31.9536424 16.1258278,31.4569536 16.4569536,31.0927152 C16.5231788,31.0264901 16.5562914,30.9602649 16.6225166,30.9271523 C16.8874172,30.6622517 17.1854305,30.4966887 17.5165563,30.397351 C17.7483444,30.3311258 17.9801325,30.2980132 18.2119205,30.2980132 C18.3443709,30.2980132 18.5099338,30.2980132 18.6423841,30.3311258 C19.0728477,30.3642384 19.4701987,30.5629139 19.8013245,30.8940397 Z" id="Shape"></path>
                <path d="M23.8741722,23.4768212 C22.3509934,24.9668874 20.3642384,25.794702 18.2119205,25.794702 C16.0596026,25.794702 14.0728477,24.9668874 12.5496689,23.4768212 C11.0596026,21.986755 10.1986755,20.0331126 10.1986755,17.9139073 C10.1986755,15.8278146 11.0264901,13.8410596 12.5496689,12.3509934 C14.0728477,10.8609272 16.0596026,10.0331126 18.2119205,10.0331126 C20.3311258,10.0331126 22.3509934,10.8609272 23.8741722,12.3509934 C25.3642384,13.8410596 26.2251656,15.794702 26.2251656,17.9139073 C26.192053,20 25.3642384,21.986755 23.8741722,23.4768212 Z" id="Path"></path>
                <path d="M19.1721854,18.7086093 C19.4039735,18.4768212 19.5364238,18.1788079 19.5364238,17.8476821 C19.5364238,17.5165563 19.4039735,17.218543 19.1721854,16.986755 C18.9403974,16.7549669 18.6092715,16.6225166 18.2781457,16.6225166 C17.9470199,16.6225166 17.615894,16.7549669 17.384106,16.986755 C17.1523179,17.218543 17.0198675,17.5165563 17.0198675,17.8476821 C17.0198675,18.1788079 17.1523179,18.4768212 17.384106,18.7086093 C17.8807947,19.205298 18.6754967,19.205298 19.1721854,18.7086093 Z" id="Path"></path>
                <path d="M11.589404,17.0198675 L11.5231788,17.0860927 L12.384106,17.9470199 L12.4503311,17.8807947 C12.9139073,17.4503311 13.410596,17.0529801 13.9403974,16.7549669 C13.8410596,17.1192053 13.7748344,17.4834437 13.7748344,17.8476821 C13.7748344,19.0397351 14.2384106,20.1655629 15.0993377,20.9933775 C15.9602649,21.8211921 17.0860927,22.2847682 18.3112583,22.2847682 C19.5033113,22.2847682 20.6622517,21.8211921 21.5231788,20.9933775 C22.384106,20.1655629 22.8476821,19.0397351 22.8476821,17.8476821 C22.8476821,17.5165563 22.8145695,17.1854305 22.7152318,16.8543046 C23.2119205,17.1523179 23.6754967,17.5165563 24.0728477,17.9470199 L24.9337748,17.0860927 C21.2582781,13.4437086 15.2980132,13.410596 11.589404,17.0198675 Z M21.0264901,16.0596026 C21.3907285,16.589404 21.589404,17.218543 21.589404,17.8476821 C21.589404,18.7086093 21.2582781,19.5364238 20.6291391,20.1324503 C20,20.7615894 19.1721854,21.0927152 18.2781457,21.0927152 C17.384106,21.0927152 16.5562914,20.7615894 15.9271523,20.1324503 C15.2980132,19.5033113 14.9668874,18.7086093 14.9668874,17.8476821 C14.9668874,17.1854305 15.1986755,16.5231788 15.5629139,15.9933775 C17.3509934,15.397351 19.2715232,15.397351 21.0264901,16.0596026 Z" id="Shape"></path>
            </g>
        </g>
    </g>
</svg>