<?xml version="1.0" encoding="UTF-8"?>
<svg width="39px" height="39px" viewBox="0 0 39 39" version="1.1" xmlns="http://www.w3.org/2000/svg" xmlns:xlink="http://www.w3.org/1999/xlink">
    <title>icons-lead-1</title>
    <g id="icons-lead-1" stroke="none" stroke-width="1" fill="none" fill-rule="evenodd">
        <g id="noun_ranking_3233452" transform="translate(0.000000, 1.000000)" fill="#FC565B" fill-rule="nonzero" stroke="#FC565B">
            <g id="Group">
                <path d="M30.3461255,10.1608696 C31.8667897,13.314578 32.2649446,16.9785166 31.497417,20.3654731 C30.7442804,23.6746803 28.9501845,26.6048593 26.3837638,28.7867008 C26.2494465,28.8984655 26.1151292,29.0102302 25.9760148,29.1219949 C25.9136531,29.1754476 25.9712177,29.1268542 25.9856089,29.1171355 C25.9472325,29.1462916 25.9136531,29.1754476 25.8752768,29.1997442 C25.7937269,29.2629156 25.7073801,29.326087 25.6258303,29.3892583 C25.3380074,29.5982097 25.0453875,29.8023018 24.7431734,29.9918159 C24.1579336,30.3611253 23.5535055,30.6915601 22.9250923,30.9831202 C22.8531365,31.0171355 22.7811808,31.0462916 22.7092251,31.0803069 C22.6660517,31.0997442 22.6276753,31.1143223 22.5845018,31.1337596 C22.6132841,31.1240409 22.704428,31.0851662 22.5701107,31.1386189 C22.4166052,31.2017903 22.2583026,31.2649616 22.104797,31.328133 C21.7833948,31.4496164 21.4571956,31.5662404 21.1261993,31.6682864 C20.4833948,31.8675192 19.8214022,32.0230179 19.1594096,32.1396419 C18.99631,32.168798 18.8332103,32.1930946 18.6701107,32.2173913 C18.8092251,32.197954 18.6077491,32.22711 18.5645756,32.2319693 C18.4638376,32.241688 18.3678967,32.256266 18.2671587,32.2659847 C17.9409594,32.3 17.6099631,32.3242967 17.2789668,32.3340153 C16.597786,32.3631714 15.9166052,32.343734 15.2354244,32.2805627 C15.0819188,32.2659847 14.9284133,32.2514066 14.7749077,32.2319693 C14.7461255,32.22711 14.4870849,32.1930946 14.6405904,32.2173913 C14.5542435,32.2028133 14.4678967,32.1930946 14.3767528,32.1785166 C14.0409594,32.1250639 13.700369,32.0618926 13.3693727,31.9841432 C12.7073801,31.8335038 12.0597786,31.6439898 11.4217712,31.4107417 C11.2634686,31.3524297 11.1099631,31.2941176 10.9516605,31.2309463 C10.8797048,31.2017903 10.8077491,31.1726343 10.7357934,31.1434783 C10.6062731,31.0900256 10.6926199,31.1240409 10.7214022,31.1386189 C10.6686347,31.1143223 10.6206642,31.0948849 10.5678967,31.0705882 C10.2512915,30.9296675 9.93468635,30.7741688 9.62767528,30.6138107 C9.01365314,30.2882353 8.41881919,29.9237852 7.85276753,29.515601 C7.71365314,29.413555 7.5697417,29.311509 7.43542435,29.2046036 C7.40664207,29.1851662 7.37785978,29.1608696 7.35387454,29.1414322 C7.26273063,29.0685422 7.42583026,29.1997442 7.33468635,29.1268542 C7.26273063,29.0685422 7.19077491,29.0102302 7.11881919,28.9519182 C6.83579336,28.7186701 6.56236162,28.4805627 6.29852399,28.2278772 C5.69409594,27.6544757 5.12804428,27.0324808 4.61476015,26.3716113 C2.53763838,23.684399 1.4103321,20.2342711 1.4295203,16.8230179 C1.43431734,16.3905371 1.45350554,15.9580563 1.48708487,15.5255754 C1.52546125,15.0736573 1.55424354,14.8647059 1.62140221,14.4565217 C1.75092251,13.6790281 1.93321033,12.9112532 2.17306273,12.1580563 C2.64317343,10.6759591 3.32915129,9.29104859 4.2597786,7.96445013 C4.70110701,7.33273657 5.20479705,6.73017903 5.77564576,6.13734015 C6.03468635,5.86521739 6.30811808,5.60767263 6.58634686,5.35498721 C6.71586716,5.23836317 6.8501845,5.12173913 6.98450185,5.00997442 C7.04686347,4.95652174 7.10922509,4.90306905 7.17158672,4.8544757 C7.2099631,4.82531969 7.24354244,4.79616368 7.28191882,4.76700767 C7.29630996,4.75242967 7.42103321,4.6601023 7.3298893,4.72813299 C7.88154982,4.29565217 8.46678967,3.90690537 9.06642066,3.55217391 C9.36863469,3.37723785 9.6804428,3.20716113 9.99225092,3.0516624 C10.1313653,2.98363171 10.2752768,2.91560102 10.4191882,2.84757033 C10.500738,2.80869565 10.5822878,2.77468031 10.6638376,2.73580563 C10.6686347,2.73094629 10.7693727,2.68721228 10.702214,2.72122762 C10.6254613,2.75524297 10.7885609,2.68721228 10.802952,2.67749361 C11.4409594,2.41508951 12.0933579,2.1915601 12.7601476,2.01176471 C13.0815498,1.92429668 13.402952,1.85140665 13.7291513,1.78337596 C13.8922509,1.74936061 14.0553506,1.7202046 14.2184502,1.69104859 C14.295203,1.67647059 14.3719557,1.66675192 14.4487085,1.65217391 C14.4918819,1.64731458 14.5350554,1.63759591 14.5782288,1.63273657 C14.7173432,1.61329923 14.5302583,1.63759591 14.6166052,1.62787724 C15.9501845,1.45780051 17.298155,1.45294118 18.6317343,1.61815857 C18.6509225,1.6230179 18.7900369,1.63759591 18.698893,1.62787724 C18.6173432,1.61815857 18.7228782,1.63273657 18.7324723,1.63273657 C18.8188192,1.64731458 18.9051661,1.65703325 18.99631,1.67161125 C19.1690037,1.70076726 19.3464945,1.72992327 19.5191882,1.76393862 C19.8453875,1.82710997 20.1667897,1.9 20.4881919,1.98746803 C21.1549815,2.16240409 21.8121771,2.38107417 22.4501845,2.64347826 C22.4789668,2.65805627 22.5125461,2.66777494 22.5413284,2.68235294 C22.5605166,2.68721228 22.6852399,2.7455243 22.6084871,2.71150895 C22.5317343,2.67749361 22.6612546,2.73580563 22.6756458,2.74066496 C22.704428,2.75524297 22.7380074,2.76982097 22.7667897,2.77953964 C22.9298893,2.85242967 23.0929889,2.93017903 23.2560886,3.00792839 C23.5726937,3.16342711 23.8797048,3.3286445 24.1819188,3.50358056 C24.7863469,3.85345269 25.3667897,4.24705882 25.9232472,4.66982097 C26.0383764,4.757289 25.9664207,4.70383632 25.9424354,4.68439898 C25.9808118,4.71355499 26.0143911,4.742711 26.0527675,4.77186701 C26.1151292,4.82531969 26.1774908,4.87391304 26.2446494,4.92736573 C26.3789668,5.03913043 26.5132841,5.15575448 26.6428044,5.27237852 C26.9066421,5.51048593 27.1656827,5.75345269 27.4151292,6.00613811 C27.6885609,6.2831202 28.1586716,6.2831202 28.4321033,6.00613811 C28.7055351,5.72915601 28.7103321,5.25294118 28.4321033,4.97595908 C26.3261993,2.85242967 23.6782288,1.30716113 20.8,0.563682864 C18.003321,-0.160358056 15.0291513,-0.136061381 12.2420664,0.631713555 C9.35904059,1.4286445 6.70627306,3.03222506 4.63874539,5.2140665 C2.29298893,7.69232737 0.700369004,10.8849105 0.196678967,14.286445 C-0.359778598,17.9941176 0.278228782,21.8184143 2.07712177,25.1033248 C3.6601476,27.9946292 6.11143911,30.414578 9.01845018,31.9209719 C11.5944649,33.257289 14.5110701,33.9132992 17.4084871,33.7723785 C20.3154982,33.6314578 23.1841328,32.7276215 25.6354244,31.1289003 C28.5472325,29.2289003 30.8066421,26.4493606 32.1114391,23.2033248 C33.5169742,19.7046036 33.6848708,15.7102302 32.6247232,12.0948849 C32.3560886,11.1764706 32.001107,10.2823529 31.5837638,9.4173913 C31.4110701,9.06265985 30.9169742,8.96547315 30.600369,9.15498721 C30.2501845,9.37365729 30.1782288,9.80613811 30.3461255,10.1608696 L30.3461255,10.1608696 Z" id="Path"></path>
                <path d="M37.2154982,36.7171355 C36.2225092,35.7112532 35.2343173,34.7102302 34.2413284,33.7043478 C32.6678967,32.1104859 31.0944649,30.516624 29.5210332,28.9227621 C29.1612546,28.558312 28.796679,28.1890026 28.4369004,27.8245524 C28.1634686,27.5475703 27.6933579,27.5475703 27.4199262,27.8245524 C27.1464945,28.1015345 27.1464945,28.5777494 27.4199262,28.8547315 C28.4129151,29.8606138 29.401107,30.8616368 30.3940959,31.8675192 C31.9675277,33.4613811 33.5409594,35.055243 35.1143911,36.6491049 C35.4741697,37.013555 35.8387454,37.3828645 36.198524,37.7473146 C36.4719557,38.0242967 36.9420664,38.0242967 37.2154982,37.7473146 C37.4937269,37.4654731 37.4937269,36.9941176 37.2154982,36.7171355 L37.2154982,36.7171355 Z" id="Path"></path>
                <path d="M2.97896679,24.816624 C4.1302583,23.6455243 5.28634686,22.4744246 6.43763838,21.3033248 C8.27490775,19.4373402 10.1169742,17.5713555 11.9542435,15.7005115 C12.3763838,15.2680307 12.803321,14.8404092 13.2254613,14.4079284 C12.8848708,14.4079284 12.5490775,14.4079284 12.2084871,14.4079284 C13.0095941,15.2194373 13.8154982,16.0358056 14.6166052,16.8473146 C15.897417,18.144757 17.1734317,19.4373402 18.4542435,20.7347826 C18.7468635,21.031202 19.0394834,21.3276215 19.3273063,21.6191816 C19.600738,21.8961637 20.0708487,21.8961637 20.3442804,21.6191816 C20.9535055,21.002046 21.5675277,20.3800512 22.1767528,19.7629156 C23.6446494,18.2759591 25.1077491,16.7938619 26.5756458,15.3069054 C28.3505535,13.5089514 30.1206642,11.7158568 31.895572,9.91790281 C33.4258303,8.36777494 34.9608856,6.81278772 36.4911439,5.26265985 C37.2298893,4.51432225 37.9926199,3.78056266 38.7169742,3.00792839 C38.7265683,2.99820972 38.7361624,2.98849105 38.7505535,2.97391304 C39.0239852,2.69693095 39.0239852,2.22071611 38.7505535,1.94373402 C38.4771218,1.66675192 38.0070111,1.66675192 37.7335793,1.94373402 C37.1243542,2.56086957 36.5103321,3.18286445 35.901107,3.8 C34.4332103,5.28695652 32.9701107,6.76905371 31.502214,8.25601023 C29.7273063,10.0539642 27.9571956,11.8470588 26.1822878,13.6450128 C24.6520295,15.1951407 23.1169742,16.7501279 21.5867159,18.3002558 C20.8479705,19.0485934 20.0660517,19.7677749 19.3608856,20.5549872 C19.3512915,20.5647059 19.3416974,20.5744246 19.3273063,20.5890026 C19.6678967,20.5890026 20.00369,20.5890026 20.3442804,20.5890026 C19.5431734,19.7774936 18.7372694,18.9611253 17.9361624,18.1496164 C16.6553506,16.8521739 15.3793358,15.5595908 14.098524,14.2621483 C13.8059041,13.9657289 13.5132841,13.6693095 13.2254613,13.3777494 C12.9520295,13.1007673 12.4819188,13.1007673 12.2084871,13.3777494 C11.0571956,14.5488491 9.90110701,15.7199488 8.7498155,16.8910486 C6.91254613,18.7570332 5.0704797,20.6230179 3.23321033,22.4938619 C2.81107011,22.9263427 2.38413284,23.3539642 1.96199262,23.786445 C1.68856089,24.0634271 1.68856089,24.5396419 1.96199262,24.816624 C2.23542435,25.0936061 2.70553506,25.0936061 2.97896679,24.816624 L2.97896679,24.816624 Z" id="Path"></path>
                <path d="M32.2265683,3.19744246 C33.9822878,3.19744246 35.7332103,3.19744246 37.4889299,3.19744246 C37.7383764,3.19744246 37.9878229,3.19744246 38.2372694,3.19744246 C37.997417,2.9544757 37.7575646,2.71150895 37.5177122,2.4685422 C37.5177122,4.24705882 37.5177122,6.02071611 37.5177122,7.79923274 C37.5177122,8.05191816 37.5177122,8.30460358 37.5177122,8.557289 C37.5177122,8.93631714 37.8487085,9.3056266 38.2372694,9.28618926 C38.6258303,9.26675192 38.9568266,8.96547315 38.9568266,8.557289 C38.9568266,6.77877238 38.9568266,5.00511509 38.9568266,3.22659847 C38.9568266,2.97391304 38.9568266,2.72122762 38.9568266,2.4685422 C38.9568266,2.07493606 38.6258303,1.73964194 38.2372694,1.73964194 C36.4815498,1.73964194 34.7306273,1.73964194 32.9749077,1.73964194 C32.7254613,1.73964194 32.4760148,1.73964194 32.2265683,1.73964194 C31.8523985,1.73964194 31.4878229,2.07493606 31.5070111,2.4685422 C31.5261993,2.86214834 31.8236162,3.19744246 32.2265683,3.19744246 L32.2265683,3.19744246 Z" id="Path"></path>
            </g>
        </g>
    </g>
</svg>