<?xml version="1.0" encoding="UTF-8"?>
<svg width="48px" height="47px" viewBox="0 0 48 47" version="1.1" xmlns="http://www.w3.org/2000/svg" xmlns:xlink="http://www.w3.org/1999/xlink">
    <title>icons-gmb</title>
    <g id="icons-gmb" stroke="none" stroke-width="1" fill="none" fill-rule="evenodd">
        <g id="noun_google-store_1014788" fill="#FC565B" fill-rule="nonzero" stroke="#FC565B">
            <g id="Group">
                <path d="M14.0625004,0.596563504 C14.0213679,0.596563504 13.9803057,0.600243387 13.9396552,0.606529965 L6.62392237,0.606529965 C5.70660662,0.606529965 4.90678659,1.02423201 4.37068966,1.61932044 C3.83459272,2.2142432 3.51882472,2.95824339 3.3362069,3.72579498 L0.025862069,17.6427633 C0.00298750881,17.7358408 -0.00357541027,17.8321856 0.00646543448,17.9275094 C0.00427353161,17.9522559 0.00319486899,17.9770885 0.00323271724,18.0019319 C0.00324049655,20.396699 1.25883807,22.6139766 3.30711211,23.8165787 C3.3092107,23.8178113 3.31147796,23.818585 3.31357754,23.8198143 L3.31357754,46.1659166 C3.31362324,46.6233841 3.68411944,46.9942691 4.14116375,46.9942691 L43.8653015,46.9942691 C44.3223458,46.9942691 44.692842,46.6233841 44.6928877,46.1659166 L44.6928877,23.8198143 C44.6941473,23.8190754 44.6948607,23.8173176 44.6961203,23.8165787 C46.7443961,22.6139766 48.0032326,20.396699 48.0032326,18.0019319 C48.0029986,17.9803266 48.0019202,17.9587387 48,17.9372177 C48.0000084,17.9350607 48.0000084,17.9329037 48,17.9307466 C48.0000337,17.9264321 48.0000337,17.9221173 48,17.9178028 C48.0089293,17.8256821 48.0023729,17.7327149 47.980603,17.6427633 L44.6702582,3.72579498 C44.4876397,2.95824339 44.1718726,2.2142432 43.6357754,1.61932044 C43.09968,1.02423201 42.2998593,0.606529965 41.3825429,0.606529965 L34.0668099,0.606529965 C34.0176338,0.598825217 33.9678636,0.595576341 33.9181043,0.596563504 C33.8791309,0.597311697 33.8402408,0.60055548 33.8017241,0.606529965 L24.1357754,0.606529965 C24.0876641,0.599017367 24.0389843,0.595769057 23.9903023,0.596563504 C23.9480906,0.596563504 23.9059417,0.60008098 23.8642246,0.606529965 L14.2015084,0.606529965 C14.1555274,0.599388903 14.1090266,0.596563504 14.0625004,0.596563504 Z M6.62392237,2.26323495 L13.1573277,2.26323495 L11.6508621,17.1735794 L6.62392237,17.1735794 L1.83943961,17.1735794 L4.94612061,4.11084933 C5.08208474,3.53928611 5.31735261,3.04196912 5.59913793,2.72918322 C5.88092326,2.41639732 6.16577396,2.26323495 6.62392237,2.26323495 Z M14.8221981,2.26323495 L23.1756463,2.26323495 L23.1756463,17.1735794 L18.2101291,17.1735794 L13.3189655,17.1735794 L14.8221981,2.26323495 Z M24.8308188,2.26323495 L33.184267,2.26323495 L34.6874996,17.1735794 L29.796336,17.1735794 L24.8308188,17.1735794 L24.8308188,2.26323495 Z M34.8491388,2.26323495 L41.3825429,2.26323495 C41.8406913,2.26323495 42.122309,2.41722567 42.4040954,2.72918322 C42.6858803,3.04196929 42.9243807,3.53928611 43.0603448,4.11084933 L46.1670257,17.1735794 L41.3825429,17.1735794 L36.3556039,17.1735794 L34.8491388,2.26323495 Z M1.875,18.8302844 L6.62392237,18.8302844 L11.369612,18.8302844 C11.1175741,20.2949773 10.3854621,21.6349832 9.10021556,22.3896124 C7.56370792,23.2916882 5.68090428,23.2916882 4.14439647,22.3896124 C2.85898726,21.6348176 2.12691178,20.2953086 1.875,18.8302844 Z M13.4612061,18.8302844 L18.2101291,18.8302844 L22.9558196,18.8302844 C22.7037848,20.2949773 21.971669,21.6349832 20.6864226,22.3896124 C19.1499211,23.2916882 17.2671046,23.2916882 15.730603,22.3896124 C14.4451945,21.6348176 13.713115,20.2953086 13.4612061,18.8302844 Z M25.047413,18.8302844 L29.796336,18.8302844 L34.5420265,18.8302844 C34.2899917,20.2949773 33.5578759,21.6349832 32.2726295,22.3896124 C30.7361263,23.2916882 28.8533131,23.2916882 27.3168099,22.3896124 C26.0314014,21.6348176 25.2993219,20.2953086 25.047413,18.8302844 Z M36.6336199,18.8302844 L41.3825429,18.8302844 L46.1282334,18.8302844 C45.8761986,20.2949773 45.1440828,21.6349832 43.8588364,22.3896124 C42.3223332,23.2916882 40.43952,23.2916882 38.9030168,22.3896124 C37.6176083,21.6348176 36.8855305,20.2953086 36.6336199,18.8302844 Z M12.4137931,21.2376838 C12.9850949,22.2908578 13.8307167,23.1926935 14.8933192,23.8165787 C16.9415934,25.0191809 19.4754323,25.0191809 21.5237065,23.8165787 C22.5858919,23.1929387 23.4278681,22.2903211 24,21.2376838 C24.5713026,22.2908578 25.4169252,23.1926935 26.4795261,23.8165787 C28.5278019,25.0191809 31.0616392,25.0191809 33.1099134,23.8165787 C34.1720988,23.1929387 35.014075,22.2903211 35.5862069,21.2376838 C36.1575095,22.2908578 37.0031321,23.1926935 38.065733,23.8165787 C39.5881672,24.710444 41.3775492,24.9374689 43.0377153,24.5025573 L43.0377153,45.3375641 L4.96874996,45.3375641 L4.96874996,24.5025573 C6.62804938,24.9363771 8.41600634,24.709889 9.93749992,23.8165787 C10.9996836,23.1929387 11.8416612,22.2903211 12.4137931,21.2376838 Z M34.9105606,32.0839243 C34.6432188,32.0760765 34.376448,32.0911574 34.112069,32.1259897 C33.0545512,32.2651529 32.0411503,32.742718 31.2478444,33.5367767 C29.6611564,35.1247284 29.3371117,37.594125 30.4590521,39.5390967 C31.5809859,41.4840683 33.8779415,42.4339981 36.045259,41.8526603 C38.2125865,41.2714882 39.7273705,39.3000342 39.7273705,37.0540392 C39.7273705,36.5965717 39.3568286,36.2257325 38.8997843,36.2256867 L34.7618532,36.2256867 C34.4633959,36.2214619 34.1857859,36.3784145 34.0353255,36.6364442 C33.884865,36.894474 33.884865,37.2136044 34.0353255,37.4716342 C34.1857859,37.729664 34.4633959,37.8866165 34.7618532,37.8823917 L37.7909479,37.8823917 C37.4820679,38.9890706 36.7716745,39.9448917 35.6185341,40.2541985 C34.1670554,40.6433585 32.6457401,40.0132456 31.8943961,38.7107442 C31.1430753,37.4082427 31.3556044,35.771559 32.4181043,34.7081201 C33.4806604,33.6445155 35.1156877,33.4319487 36.4170257,34.1839271 C36.8131366,34.4100281 37.3173268,34.2732078 37.5450949,33.877807 C37.772863,33.4824061 37.6385622,32.9771059 37.2446119,32.747254 C36.5159123,32.326161 35.7125826,32.107471 34.9105606,32.0839243 Z" id="Shape"></path>
            </g>
        </g>
    </g>
</svg>