<?xml version="1.0" encoding="UTF-8"?>
<svg width="45px" height="44px" viewBox="0 0 45 44" version="1.1" xmlns="http://www.w3.org/2000/svg" xmlns:xlink="http://www.w3.org/1999/xlink">
    <title>icons-digital</title>
    <g id="icons-digital" stroke="none" stroke-width="1" fill="none" fill-rule="evenodd">
        <g id="noun_digital_2995255" fill="#FC565B" fill-rule="nonzero">
            <g id="Group" transform="translate(0.020811, 0.000000)">
                <path d="M32.5973393,6.76321859 C30.1967854,2.57028902 25.9496514,0.00520269708 21.2408725,0.00520269708 C15.5164745,0.00520269708 10.5307086,3.85283218 8.6841286,9.52561925 C3.88302066,9.57494783 0.00520269708,13.817206 0.00520269708,18.9473786 C0.00520269708,24.1762085 3.97534965,28.369138 8.8226221,28.369138 L10.8538601,28.369138 L10.8538601,33.4499821 C10.8538601,35.7190969 12.5619466,37.5442545 14.6855135,37.5442545 L20.456076,37.5442545 L20.456076,40.7506124 L18.332509,40.7506124 C17.501548,40.7506124 16.855245,41.4412126 16.855245,42.3291271 C16.855245,43.2170416 17.501548,43.9076417 18.332509,43.9076417 L25.5341709,43.9076417 C26.3651319,43.9076417 27.0114349,43.2170416 27.0114349,42.3291271 C27.0114349,41.4412126 26.3651319,40.7506124 25.5341709,40.7506124 L23.4106039,40.7506124 L23.4106039,37.5442545 L29.1811664,37.5442545 C31.3047334,37.5442545 33.0128198,35.7190969 33.0128198,33.4499821 L33.0128198,28.4184666 L33.7514518,28.4184666 C39.3373563,28.4184666 43.9076417,23.5349369 43.9076417,17.5661783 C43.8614772,11.2027911 38.6910533,6.02328984 32.5973393,6.76321859 Z M30.0582919,33.4993107 C30.0582919,34.0419251 29.6428114,34.4365538 29.1811664,34.4365538 L14.6855135,34.4365538 C14.177704,34.4365538 13.808388,33.9925965 13.808388,33.4993107 L13.808388,23.633594 C13.808388,23.0909796 14.2238685,22.696351 14.6855135,22.696351 L29.1350019,22.696351 C29.6428114,22.696351 30.0121274,23.1403082 30.0121274,23.633594 L30.0121274,33.4993107 L30.0582919,33.4993107 Z M33.7052873,25.2614373 L32.9666553,25.2614373 L32.9666553,23.5842655 C32.9666553,21.3151506 31.2585689,19.4899931 29.1350019,19.4899931 L14.6855135,19.4899931 C12.5619466,19.4899931 10.8538601,21.3151506 10.8538601,23.5842655 L10.8538601,25.2614373 L8.8226221,25.2614373 C5.54494264,25.2614373 2.91356617,22.449708 2.91356617,18.9473786 C2.91356617,15.4450492 5.54494264,12.63332 8.8226221,12.63332 C9.0072801,12.63332 9.1919381,12.6826486 9.56125409,12.7319772 C10.2998861,12.8306343 10.9923536,12.3373485 11.1770116,11.5480912 C12.3311241,6.56590426 16.4397645,3.11290344 21.2408725,3.11290344 C25.1648549,3.11290344 28.7195214,5.43134685 30.4737724,9.18031917 C30.7969239,9.82159075 31.4432269,10.1668908 32.0895298,10.0189051 C32.6435038,9.87091933 33.1513133,9.82159075 33.6591228,9.82159075 C37.6292698,9.82159075 40.8607848,13.2745916 40.8607848,17.5168497 C40.8607848,21.7591079 37.6754343,25.2614373 33.7052873,25.2614373 Z" id="Shape"></path>
            </g>
        </g>
    </g>
</svg>