<?xml version="1.0" encoding="UTF-8"?>
<svg width="30px" height="41px" viewBox="0 0 30 41" version="1.1" xmlns="http://www.w3.org/2000/svg" xmlns:xlink="http://www.w3.org/1999/xlink">
    <title>icons-lead-3</title>
    <g id="Symbols" stroke="none" stroke-width="1" fill="none" fill-rule="evenodd">
        <g id="icons-lead-3" transform="translate(1.000000, 1.000000)" fill="#034EA1" fill-rule="nonzero" stroke="#034EA1">
            <path d="M8.90257771,2.7530648 L10.3805914,2.7530648 C10.5530705,2.11208406 10.8927218,1.54203152 11.3517817,1.08756567 C12.0284306,0.415061296 12.9651251,0 14,0 C15.0322214,0 15.9689158,0.415061296 16.6482183,1.08756567 L16.6482183,1.08756567 C17.1072782,1.54203152 17.449583,2.11208406 17.6220622,2.7530648 L19.0974223,2.7530648 C19.6307809,2.7530648 20.0633055,3.18126095 20.0633055,3.70928196 L20.0633055,4.58931699 L27.0341168,4.58931699 C27.5674754,4.58931699 28,5.01751313 28,5.54553415 L28,38.0437828 C28,38.5718039 27.5674754,39 27.0341168,39 L0.965883245,39 C0.43252464,39 0,38.5718039 0,38.0437828 L0,5.54553415 C0,5.01751313 0.43252464,4.58931699 0.965883245,4.58931699 L7.93669447,4.58931699 L7.93669447,3.70928196 C7.93669447,3.18126095 8.36921911,2.7530648 8.90257771,2.7530648 Z M5.12661107,31.9912434 C4.72062168,31.6523643 4.66755118,31.0534151 5.00985595,30.6488616 C5.35216073,30.2469352 5.95716452,30.1970228 6.3631539,30.533275 L6.77975739,30.882662 L7.71114481,29.7924694 C8.05610311,29.3905429 8.66376042,29.3406305 9.06974981,29.6821366 C9.4757392,30.0210158 9.52615618,30.6225919 9.18119788,31.0245184 L7.63153904,32.8397548 L7.62888552,32.8371278 C7.28658074,33.2364273 6.68423048,33.2889667 6.27824109,32.9500876 L5.12661107,31.9912434 Z M5.12661107,26.2539405 C4.72062168,25.9150613 4.66755118,25.3161121 5.00985595,24.9141856 C5.35216073,24.5122592 5.95716452,24.4597198 6.3631539,24.7985989 L6.77975739,25.145359 L7.71114481,24.0551664 C8.05610311,23.6532399 8.66376042,23.6033275 9.06974981,23.9448336 C9.4757392,24.2837128 9.52615618,24.8879159 9.18119788,25.2898424 L7.63153904,27.1024518 L7.62888552,27.0998249 C7.28658074,27.5017513 6.68423048,27.5516637 6.27824109,27.2127846 L5.12661107,26.2539405 Z M5.12661107,14.7819615 C4.72062168,14.4457093 4.66755118,13.8441331 5.00985595,13.4422067 C5.35216073,13.0402802 5.95716452,12.9877408 6.3631539,13.32662 L6.77975739,13.67338 L7.71114481,12.5858144 C8.05610311,12.1838879 8.66376042,12.1339755 9.06974981,12.4728546 C9.4757392,12.8143608 9.52615618,13.415937 9.18119788,13.8178634 L7.63153904,15.6304729 L7.62888552,15.6304729 C7.28658074,16.0297723 6.68423048,16.0796848 6.27824109,15.7434326 L5.12661107,14.7819615 Z M5.12661107,20.5192644 C4.72062168,20.1803853 4.66755118,19.5814361 5.00985595,19.1768827 C5.35216073,18.7749562 5.95716452,18.7250438 6.3631539,19.061296 L6.77975739,19.410683 L7.71114481,18.3204904 C8.05610311,17.9185639 8.66376042,17.8686515 9.06974981,18.2101576 C9.4757392,18.5490368 9.52615618,19.150613 9.18119788,19.5525394 L7.63153904,21.3677758 L7.62888552,21.3651489 C7.28658074,21.7644483 6.68423048,21.8169877 6.27824109,21.4781086 L5.12661107,20.5192644 Z M12.0602729,32.2723292 C11.5269143,32.2723292 11.0943897,31.8441331 11.0943897,31.3161121 C11.0943897,30.7880911 11.5269143,30.3598949 12.0602729,30.3598949 L22.2551175,30.3598949 C22.7884761,30.3598949 23.2210008,30.7880911 23.2210008,31.3161121 C23.2210008,31.8441331 22.7884761,32.2723292 22.2551175,32.2723292 L12.0602729,32.2723292 Z M12.0602729,15.0630473 C11.5269143,15.0630473 11.0943897,14.6374781 11.0943897,14.1094571 C11.0943897,13.5814361 11.5269143,13.1532399 12.0602729,13.1532399 L22.2551175,13.1532399 C22.7884761,13.1532399 23.2210008,13.5814361 23.2210008,14.1094571 C23.2210008,14.6374781 22.7884761,15.0630473 22.2551175,15.0630473 L12.0602729,15.0630473 Z M12.0602729,20.8003503 C11.5269143,20.8003503 11.0943897,20.3721541 11.0943897,19.8441331 C11.0943897,19.3161121 11.5269143,18.8879159 12.0602729,18.8879159 L22.2551175,18.8879159 C22.7884761,18.8879159 23.2210008,19.3161121 23.2210008,19.8441331 C23.2210008,20.3721541 22.7884761,20.8003503 22.2551175,20.8003503 L12.0602729,20.8003503 Z M12.0602729,26.5350263 C11.5269143,26.5350263 11.0943897,26.1068301 11.0943897,25.5788091 C11.0943897,25.0507881 11.5269143,24.6225919 12.0602729,24.6225919 L22.2551175,24.6225919 C22.7884761,24.6225919 23.2210008,25.0507881 23.2210008,25.5788091 C23.2210008,26.1068301 22.7884761,26.5350263 22.2551175,26.5350263 L12.0602729,26.5350263 Z M20.0633055,6.49912434 L20.0633055,7.37915937 C20.0633055,7.90718039 19.6307809,8.33537653 19.0974223,8.33537653 L8.90257771,8.33537653 C8.36921911,8.33537653 7.93669447,7.90718039 7.93669447,7.37915937 L7.93669447,6.49912434 L1.93176649,6.49912434 L1.93176649,37.0875657 L26.070887,37.0875657 L26.070887,6.49912434 L20.0633055,6.49912434 Z M11.2191054,4.66549912 L9.86846096,4.66549912 L9.86846096,6.42294221 L18.1341926,6.42294221 L18.1341926,4.66549912 L16.7808946,4.66549912 C16.247536,4.66549912 15.8150114,4.23730298 15.8150114,3.70928196 C15.8150114,3.21278459 15.6133434,2.76357268 15.2843063,2.43782837 L15.2843063,2.4352014 C14.9579227,2.11208406 14.5041698,1.91243433 14,1.91243433 C13.4984837,1.91243433 13.0447309,2.11208406 12.7156937,2.43782837 C12.3893101,2.76357268 12.1849886,3.21278459 12.1849886,3.70928196 C12.1849886,4.23730298 11.752464,4.66549912 11.2191054,4.66549912 Z" id="Shape"></path>
        </g>
    </g>
</svg>