<?xml version="1.0" encoding="UTF-8"?>
<svg width="226px" height="43px" viewBox="0 0 226 43" version="1.1" xmlns="http://www.w3.org/2000/svg" xmlns:xlink="http://www.w3.org/1999/xlink">
    <title>Artboard</title>
    <g id="Artboard" stroke="none" stroke-width="1" fill="none" fill-rule="evenodd">
        <g id="Group" fill="#FFFFFF" fill-rule="nonzero">
            <g id="KPI-Media_logo">
                <polygon id="Path" points="69.5829787 0 81.9744681 4.56226386 69.6235495 9.55555556"></polygon>
                <g id="KPI_Media_CAPS">
                    <polygon id="Path" points="0 0 6.3943214 0 6.3943214 21.9325522 6.50794212 21.9325522 23.8540381 0 31.4287525 0 17.9331363 16.7951977 32.8237624 42.5520833 25.249048 42.5520833 13.7922925 21.7540833 6.3943214 29.5812191 6.3943214 42.5520833 0 42.5520833"></polygon>
                    <path d="M35.9287129,0 L51.1906903,0 C54.5016564,0 57.3963868,0.420676678 60.6505936,2.98935397 C63.1732345,4.95888569 65.2039604,8.54738522 65.2039604,13.1493331 C65.2039604,19.1854061 60.6505936,25.9353546 52.0168551,25.9353546 L42.3173009,25.9353546 L42.3173009,42.5520833 L35.9287129,42.5520833 L35.9287129,0 Z M42.3173009,19.8419166 L51.7772043,19.8419166 C56.5071559,19.8419166 58.8090657,16.317156 58.8090657,12.9708642 C58.8090657,10.1026142 57.6864905,8.36891633 56.0909202,7.29172908 C54.7420509,6.40339555 53.1437992,5.9827901 51.5375534,6.09343794 L42.3173009,6.09343794 L42.3173009,19.8419166 Z" id="Shape"></path>
                    <polygon id="Path" points="69.639604 6.71875 75.849505 6.71875 75.849505 42.5520833 69.639604 42.5520833"></polygon>
                    <path d="M83.390099,12.011727 L89.464305,12.011727 L89.464305,15.2687655 L89.5785534,15.2687655 C91.4922508,12.8823676 94.4015239,11.5432782 97.4363036,11.6519753 C101.663494,11.6519753 103.783436,13.399341 105.947809,15.6285172 C108.448579,12.8597134 111.361913,11.6519753 115.468508,11.6519753 C120.171733,11.6519753 125.528713,15.3265827 125.528713,22.2518044 L125.528713,42.5520833 L119.454507,42.5520833 L119.454507,24.358922 C119.454507,20.2025041 116.915654,17.793452 113.507244,17.793452 C110.098833,17.793452 107.496509,20.2025041 107.496509,24.358922 L107.496509,42.5520833 L101.454039,42.5520833 L101.454039,24.358922 C101.454039,20.2025041 98.9151855,17.793452 95.5067753,17.793452 C92.098365,17.793452 89.4960406,20.2025041 89.4960406,24.358922 L89.4960406,42.5520833 L83.4218347,42.5520833 L83.390099,12.011727 Z" id="Path"></path>
                    <path d="M136.467288,29.8377026 C136.467288,34.7785742 139.496972,37.2807636 143.654864,37.2807636 C146.150936,37.2149436 148.520974,36.167883 150.252983,34.3657764 L154.651729,38.1127098 C151.94432,41.2974457 147.949477,43.0912016 143.775291,42.9964248 C137.595497,42.9964248 130.407921,40.024281 130.407921,27.6339977 C130.407921,15.9041908 136.999701,12.09375 142.824554,12.09375 C149.479717,12.09375 155.247525,17.0346216 155.247525,24.8396744 L155.247525,29.8377026 L136.467288,29.8377026 Z M149.188157,24.8396744 C149.004348,20.2480933 146.392989,17.8094112 142.849907,17.8094112 C139.306825,17.8094112 136.613068,20.2480933 136.511656,24.8396744 L149.188157,24.8396744 Z" id="Shape"></path>
                    <path d="M178.062679,39.4652461 C176.07738,41.6871087 173.264082,42.967765 170.303694,42.9972547 C167.146782,43.0724337 164.148504,41.5997961 162.254298,39.0437044 C160.600227,36.8912868 160.126733,34.9177052 160.126733,27.4257593 C160.126733,19.9338134 160.600227,18.0241017 162.254298,15.8716842 C164.150561,13.3181174 167.14747,11.8461523 170.303694,11.9181339 C173.38456,11.9181339 175.808849,13.3552079 178.062679,15.5140124 L178.062679,0 L184.079208,0 L184.079208,42.6395829 L178.04374,42.6395829 L178.062679,39.4652461 Z M166.162201,27.4257593 C166.162201,32.1585231 166.458924,36.8912868 172.14085,36.8912868 C177.822776,36.8912868 178.062679,31.8583343 178.062679,27.4257593 C178.062679,22.9931843 177.765957,18.0241017 172.14085,18.0241017 C166.515743,18.0241017 166.162201,22.7568655 166.162201,27.4257593 Z" id="Shape"></path>
                    <path d="M189.40198,0 L195.611881,0 L195.611881,6.09343794 L189.40198,6.09343794 L189.40198,0 Z M189.40198,12.2506148 L195.611881,12.2506148 L195.611881,42.5520833 L189.40198,42.5520833 L189.40198,12.2506148 Z" id="Shape"></path>
                    <path d="M217.916948,39.9658682 L217.79567,39.9658682 C216.519058,42.0478666 214.444565,43 210.314728,43 C203.555072,43 199.60396,39.0137349 199.60396,33.7770012 C199.60396,28.9592062 202.955065,24.8523375 209.478548,24.8523375 L217.916948,24.8523375 L217.916948,21.6785595 C217.916948,18.8158118 216.059478,17.8065504 211.693468,17.8065504 C208.50194,17.8065504 207.027454,18.4032206 205.948718,20.1297559 L201.161426,16.4989538 C203.491241,13.2870905 206.842346,12.09375 211.374315,12.09375 C218.893555,12.1127927 224,14.6137297 224,22.0530653 L224,42.6445369 L217.891416,42.6445369 L217.916948,39.9658682 Z M217.916948,29.847864 L210.595583,29.847864 C207.008305,29.847864 205.329562,31.2760641 205.329562,33.4786661 C205.329562,35.5035364 206.944475,37.2871996 211.074312,37.2871996 C216.180757,37.2871996 217.897799,36.7540049 217.897799,32.050466 L217.916948,29.847864 Z" id="Shape"></path>
                </g>
            </g>
        </g>
    </g>
</svg>