<?xml version="1.0" encoding="UTF-8"?>
<svg width="235px" height="45px" viewBox="0 0 235 45" version="1.1" xmlns="http://www.w3.org/2000/svg" xmlns:xlink="http://www.w3.org/1999/xlink">
    <title>KPI Media_logo</title>
    <g id="Symbols" stroke="none" stroke-width="1" fill="none" fill-rule="evenodd">
        <g id="KPImedia_logo-RED_WHITE-color" fill-rule="nonzero">
            <g id="KPI-Media_logo">
                <polygon id="Path" fill="#FFFFFF" points="73 0 86 4.77446218 73.0425631 10"></polygon>
                <g id="KPI_Media_CAPS">
                    <polygon id="Path" fill="#FFFFFF" points="0 0 6.70832826 0 6.70832826 22.9526709 6.82752856 22.9526709 25.0254417 0 32.9721287 0 18.8137814 17.5763696 34.4356436 44.53125 26.4889566 44.53125 14.4695925 22.7659012 6.70832826 30.9570898 6.70832826 44.53125 0 44.53125"></polygon>
                    <path d="M37.6930693,0 L53.7045188,0 C57.178077,0 60.2149594,0.440243035 63.628971,3.12839369 C66.2754915,5.18953153 68.4059406,8.94493802 68.4059406,13.76093 C68.4059406,20.0777505 63.628971,27.1416501 54.5712543,27.1416501 L44.3953827,27.1416501 L44.3953827,44.53125 L37.6930693,44.53125 L37.6930693,0 Z M44.3953827,20.7647965 L54.3198348,20.7647965 C59.2820609,20.7647965 61.6970109,17.0760935 61.6970109,13.5741602 C61.6970109,10.5725032 60.5193093,8.75816825 58.845385,7.63087927 C57.4302767,6.7012279 55.7535393,6.2610594 54.0684154,6.37685365 L44.3953827,6.37685365 L44.3953827,20.7647965 Z" id="Shape" fill="#FFFFFF"></path>
                    <polygon id="Path" fill="#FFFFFF" points="73.0594059 7.03125 79.5742574 7.03125 79.5742574 44.53125 73.0594059 44.53125"></polygon>
                    <path d="M87.4851485,12.570412 L93.8576414,12.570412 L93.8576414,15.9789406 L93.9775002,15.9789406 C95.9851738,13.4815475 99.0373131,12.0801748 102.221122,12.1939276 C106.655898,12.1939276 108.879944,14.0225662 111.150603,16.355425 C113.774179,13.4578396 116.830578,12.1939276 121.138836,12.1939276 C126.073023,12.1939276 131.693069,16.039447 131.693069,23.2867721 L131.693069,44.53125 L125.320576,44.53125 L125.320576,25.4918951 C125.320576,21.1421555 122.657048,18.6210545 119.08126,18.6210545 C115.505472,18.6210545 112.775355,21.1421555 112.775355,25.4918951 L112.775355,44.53125 L106.436157,44.53125 L106.436157,25.4918951 C106.436157,21.1421555 103.772628,18.6210545 100.19684,18.6210545 C96.6210526,18.6210545 93.8909355,21.1421555 93.8909355,25.4918951 L93.8909355,44.53125 L87.5184426,44.53125 L87.4851485,12.570412 Z" id="Path" fill="#FC565B"></path>
                    <path d="M143.168807,31.2255027 C143.168807,36.3961823 146.34727,39.0147526 150.709344,39.0147526 C153.327991,38.9458712 155.814415,37.8501101 157.631478,35.9641846 L162.246234,39.885394 C159.405871,43.2182572 155.214853,45.0954435 150.835685,44.9962585 C144.352419,44.9962585 136.811881,41.8858754 136.811881,28.9192999 C136.811881,16.6439206 143.727365,12.65625 149.838259,12.65625 C156.820239,12.65625 162.871287,17.8269295 162.871287,25.9950081 L162.871287,31.2255027 L143.168807,31.2255027 Z M156.514361,25.9950081 C156.321526,21.1898651 153.58193,18.6377559 149.864857,18.6377559 C146.147785,18.6377559 143.321746,21.1898651 143.215353,25.9950081 L156.514361,25.9950081 Z" id="Shape" fill="#FC565B"></path>
                    <path d="M186.806829,41.3008389 C184.724037,43.626044 181.772586,44.9662657 178.666822,44.997127 C175.354883,45.0758027 172.209368,43.5346703 170.222143,40.8596906 C168.486845,38.6071606 167.990099,36.5417845 167.990099,28.701376 C167.990099,20.8609675 168.486845,18.862432 170.222143,16.609902 C172.211526,13.9375647 175.355605,12.3971361 178.666822,12.4724657 C181.898981,12.4724657 184.442319,13.9763803 186.806829,16.2355944 L186.806829,0 L193.118812,0 L193.118812,44.6228193 L186.786959,44.6228193 L186.806829,41.3008389 Z M174.321952,28.701376 C174.321952,33.6542683 174.633246,38.6071606 180.594195,38.6071606 C186.555144,38.6071606 186.806829,33.3401173 186.806829,28.701376 C186.806829,24.0626347 186.495535,18.862432 180.594195,18.862432 C174.692855,18.862432 174.321952,23.8153243 174.321952,28.701376 Z" id="Shape" fill="#FC565B"></path>
                    <path d="M198.70297,0 L205.217822,0 L205.217822,6.37685365 L198.70297,6.37685365 L198.70297,0 Z M198.70297,12.8204108 L205.217822,12.8204108 L205.217822,44.53125 L198.70297,44.53125 L198.70297,12.8204108 Z" id="Shape" fill="#FC565B"></path>
                    <path d="M228.618226,41.8247458 L228.490993,41.8247458 C227.151691,44.0035813 224.975325,45 220.642684,45 C213.55108,45 209.405941,40.8283272 209.405941,35.3480245 C209.405941,30.306146 212.921608,26.0082602 219.765441,26.0082602 L228.618226,26.0082602 L228.618226,22.6868646 C228.618226,19.6909658 226.669542,18.634762 222.08913,18.634762 C218.740875,18.634762 217.193981,19.2591844 216.062271,21.0660236 L211.039889,17.266347 C213.484115,13.9050947 216.999782,12.65625 221.754304,12.65625 C229.642792,12.6761784 235,15.2934381 235,23.0787893 L235,44.6280037 L228.59144,44.6280037 L228.618226,41.8247458 Z M228.618226,31.2361368 L220.93733,31.2361368 C217.173892,31.2361368 215.41271,32.7307648 215.41271,35.0358133 C215.41271,37.1548637 217.106927,39.021488 221.439568,39.021488 C226.796776,39.021488 228.598137,38.4634935 228.598137,33.5411853 L228.618226,31.2361368 Z" id="Shape" fill="#FC565B"></path>
                </g>
            </g>
        </g>
    </g>
</svg>